<svg width="258" height="48" viewBox="0 0 258 48" fill="none" xmlns="http://www.w3.org/2000/svg">
<path d="M241.322 25.2573C240.97 25.2972 240.615 25.3246 240.27 25.3845C240.046 25.4219 239.95 25.3122 239.801 25.2549C239.751 25.2349 239.698 25.195 239.652 25.2C239.304 25.2399 238.955 25.2848 238.607 25.3296C238.501 25.4269 238.433 25.5565 238.27 25.6039C238.11 25.6487 237.921 25.6488 237.744 25.6712C237.509 25.6986 237.275 25.7261 237.04 25.751C236.923 25.7635 236.827 25.8108 236.788 25.9006C236.781 25.9155 236.859 25.9529 236.902 25.9753C237.044 26.0501 237.182 26.1349 237.339 26.1922C237.488 26.2471 237.673 26.1573 237.833 26.2271C238.192 26.3842 238.195 26.3817 238.469 26.3518C238.703 26.3244 238.938 26.2945 239.172 26.2745C239.218 26.2695 239.272 26.3069 239.321 26.3269C239.471 26.3817 239.567 26.5064 239.787 26.459C239.954 26.4216 240.139 26.4141 240.313 26.3942C240.459 26.4665 240.594 26.5488 240.75 26.6061C240.896 26.6609 240.938 26.7033 240.86 26.7756C240.789 26.843 240.69 26.8704 240.558 26.8754C240.441 26.8779 240.324 26.9003 240.206 26.9127C240.146 26.9202 240.089 26.9252 240.032 26.9327C239.808 26.9601 239.808 26.9601 239.4 26.8006C239.24 26.7382 239.059 26.8255 238.906 26.7657C238.803 26.7258 238.714 26.666 238.614 26.6236C238.572 26.6061 238.504 26.6036 238.451 26.6086C238.273 26.626 238.096 26.6385 237.925 26.6709C237.804 26.6934 237.733 26.7632 237.747 26.833C237.751 26.8604 237.836 26.9003 237.886 26.9028C238 26.9078 238.12 26.8729 238.231 26.8903C238.337 26.9078 238.447 26.9576 238.526 27.0125C238.685 27.1272 238.867 27.025 239.019 27.0549C239.179 27.0873 239.311 27.187 239.464 27.2468C239.503 27.2618 239.577 27.2369 239.638 27.2294C239.812 27.2119 239.986 27.197 240.16 27.1795C240.306 27.2518 240.462 27.3166 240.594 27.3989C240.832 27.5485 241.088 27.6058 241.397 27.5335C241.571 27.4936 241.741 27.5086 241.88 27.6058C242.022 27.7056 242.186 27.6956 242.367 27.6756C242.534 27.6557 242.704 27.6009 242.875 27.6707C243.245 27.8252 243.248 27.8327 243.685 27.7729C243.817 27.7554 243.916 27.7504 244.016 27.8078C244.108 27.8601 244.207 27.905 244.303 27.9549C244.478 27.9374 244.655 27.92 244.829 27.9C245.053 27.8726 245.178 27.9075 245.231 28.0471C245.263 28.1319 245.277 28.2092 245.355 28.2665C245.448 28.3363 245.547 28.3338 245.682 28.3139C245.81 28.2964 245.902 28.269 245.956 28.1793C245.977 28.1419 246.02 28.107 246.059 28.077C246.091 28.0546 246.141 28.0197 246.169 28.0247C246.222 28.0347 246.293 28.0621 246.311 28.0945C246.485 28.3961 246.485 28.3986 246.663 28.4859C246.858 28.5831 247.061 28.6704 247.239 28.7801C247.398 28.8773 247.558 28.8349 247.732 28.8349C247.864 28.8349 247.949 28.8998 247.939 28.9646C247.932 29.002 247.882 29.0568 247.839 29.0618C247.491 29.1117 247.139 29.154 246.787 29.1889C246.745 29.1939 246.691 29.1491 246.642 29.1266C246.542 29.0817 246.453 29.0119 246.347 28.997C246.24 28.982 246.116 29.0194 245.998 29.0319C245.881 29.0443 245.757 29.0768 245.65 29.0568C245.544 29.0369 245.458 28.9646 245.359 28.9172C245.313 28.8948 245.249 28.8624 245.21 28.8699C244.95 28.9297 244.758 28.8474 244.574 28.7377C244.534 28.7153 244.467 28.7003 244.417 28.7053C244.005 28.7477 243.596 28.7975 243.184 28.8449C243.017 28.8648 242.882 28.7776 242.846 28.6305C242.829 28.5482 242.793 28.466 242.793 28.3837C242.793 28.2341 242.598 28.1518 242.456 28.1693C242.221 28.1942 241.983 28.2141 241.752 28.2515C241.564 28.2815 241.404 28.2515 241.276 28.1618C241.127 28.0596 240.956 28.0795 240.786 28.1069C240.658 28.1269 240.622 28.2092 240.629 28.4161C240.636 28.5831 240.576 28.6355 240.345 28.6629C240.053 28.6978 239.759 28.7327 239.464 28.7601C239.417 28.7651 239.364 28.7227 239.318 28.7003C239.218 28.6554 239.13 28.5831 239.023 28.5682C238.916 28.5507 238.792 28.5881 238.675 28.6031C238.557 28.6155 238.433 28.6504 238.327 28.633C238.22 28.6155 238.131 28.5408 238.035 28.4934C237.989 28.471 237.932 28.4385 237.886 28.4435C237.651 28.4635 237.417 28.4934 237.182 28.5208C236.919 28.5507 236.919 28.5507 236.546 28.3962C236.376 28.3263 236.205 28.3812 236.038 28.4011C235.86 28.4211 235.693 28.4311 235.555 28.3313C235.462 28.2665 235.359 28.2266 235.249 28.2391C234.954 28.269 234.663 28.3064 234.368 28.3363C234.318 28.3413 234.251 28.3288 234.212 28.3064C234.023 28.2017 233.839 28.1194 233.576 28.1718C233.348 28.2166 233.103 28.2191 232.876 28.2615C232.751 28.284 232.694 28.3637 232.719 28.4261C232.733 28.4585 232.808 28.4959 232.858 28.4959C232.971 28.4984 233.096 28.461 233.202 28.4759C233.423 28.5058 233.533 28.7153 233.821 28.6579C233.991 28.623 234.169 28.6105 234.347 28.6006C234.393 28.5981 234.443 28.6455 234.492 28.6704C234.634 28.7377 234.759 28.8249 234.965 28.7801C235.136 28.7452 235.317 28.7352 235.491 28.7153C235.768 28.6829 235.768 28.6854 236.127 28.8374C236.298 28.9097 236.468 28.8524 236.635 28.8349C236.759 28.8225 236.877 28.7975 236.976 28.8324C237.129 28.8848 237.239 29.0044 237.427 28.997C237.605 28.9895 237.779 28.9546 237.957 28.9421C238.067 28.9347 238.17 28.9745 238.259 29.0419C238.351 29.1092 238.451 29.1391 238.572 29.1241C238.746 29.1042 238.923 29.0793 239.101 29.0668C239.151 29.0643 239.208 29.0867 239.254 29.1067C239.353 29.1516 239.449 29.2039 239.545 29.2513C239.719 29.2363 239.897 29.2313 240.068 29.2014C240.199 29.179 240.292 29.189 240.398 29.2388C240.533 29.3061 240.643 29.4258 240.864 29.3685C240.974 29.341 241.102 29.3485 241.212 29.3236C241.347 29.2912 241.439 29.3036 241.535 29.3784C241.717 29.5205 241.944 29.523 242.178 29.4682C242.434 29.4083 242.626 29.4782 242.818 29.5879C243.021 29.7025 243.021 29.7 243.177 29.9768C243.223 30.0565 243.355 30.094 243.465 30.079C243.65 30.0541 243.81 30.0665 243.945 30.1613C244.087 30.2635 244.257 30.251 244.431 30.2236C244.662 30.1862 244.893 30.1538 245.082 30.2984C245.174 30.3682 245.274 30.3856 245.398 30.3682C245.75 30.3233 246.105 30.2959 246.45 30.2411C246.659 30.2061 246.78 30.2859 246.922 30.3532C247.114 30.4455 247.324 30.5277 247.324 30.7247C247.324 30.7571 247.374 30.7945 247.416 30.8194C247.509 30.8718 247.608 30.9167 247.704 30.9665C247.846 31.0413 247.985 31.1036 248.18 31.0638C248.351 31.0313 248.532 31.0214 248.706 30.9989C248.88 30.9765 249.04 30.964 249.197 31.0588C249.378 31.166 249.57 31.2682 249.776 31.348C249.921 31.4053 250.113 31.3081 250.27 31.3854C250.366 31.4327 250.458 31.4876 250.561 31.5275C250.604 31.5449 250.671 31.5325 250.728 31.5275C250.845 31.5175 250.966 31.51 251.08 31.4851C251.211 31.4577 251.311 31.4627 251.41 31.52C251.503 31.5724 251.595 31.6446 251.702 31.6596C251.862 31.682 252.039 31.5823 252.199 31.697C252.281 31.7544 252.384 31.8092 252.491 31.8267C252.597 31.8441 252.722 31.8067 252.835 31.8092C252.885 31.8092 252.945 31.8491 252.974 31.8815C252.992 31.8989 252.967 31.9463 252.942 31.9712C252.91 32.0012 252.864 32.0411 252.817 32.046C252.466 32.0909 252.114 32.1283 251.762 32.1707C251.552 32.1956 251.552 32.1956 251.13 32.0386C251.03 32.0012 250.92 32.0086 250.796 32.0261C250.629 32.0485 250.458 32.0909 250.284 32.046C250.057 31.8765 249.776 31.8615 249.477 31.9264C249.353 31.9538 249.239 31.9538 249.147 31.9064C248.951 31.8117 248.745 31.7244 248.571 31.6123C248.436 31.525 248.372 31.5175 248.315 31.6372C248.298 31.6746 248.28 31.7145 248.283 31.7494C248.305 31.874 248.344 31.9962 248.365 32.1208C248.372 32.1557 248.344 32.1956 248.326 32.233C248.269 32.3377 248.195 32.3302 248.07 32.243C247.946 32.1557 247.796 32.0984 247.597 32.1383C247.427 32.1732 247.242 32.1682 247.072 32.2056C246.809 32.2605 246.624 32.1807 246.436 32.0735C246.396 32.051 246.329 32.0386 246.279 32.0436C245.75 32.1009 245.224 32.1657 244.694 32.223C244.581 32.2355 244.478 32.1981 244.389 32.1308C244.296 32.0635 244.193 32.0286 244.08 32.0411C243.61 32.0934 243.141 32.1408 242.672 32.2056C242.48 32.233 242.328 32.2006 242.196 32.1133C242.097 32.0485 242.004 32.0286 241.88 32.0361C241.745 32.0435 241.649 32.0685 241.582 32.1408C241.518 32.2106 241.564 32.253 241.706 32.3078C241.859 32.3676 242.001 32.4449 242.146 32.5148C242.264 32.5048 242.381 32.4848 242.495 32.4873C242.544 32.4873 242.591 32.5322 242.64 32.5571C242.783 32.6294 242.914 32.7017 243.117 32.6618C243.287 32.6269 243.468 32.6194 243.642 32.597C243.884 32.5696 243.884 32.5696 244.275 32.7267C244.374 32.7665 244.481 32.764 244.609 32.7416C244.719 32.7242 244.833 32.7591 244.911 32.8338C244.943 32.8638 244.932 32.9137 244.865 33.0782C244.865 33.2004 244.939 33.1455 244.964 33.0657C245.003 32.951 244.929 32.9136 244.787 32.976C244.687 33.0208 244.637 33.0857 244.662 33.138C244.677 33.1655 244.744 33.2004 244.865 33.0782C245.178 32.9286 245.416 32.9111 245.643 32.8712C245.778 32.8488 245.863 32.8588 245.97 32.9236C246.098 33.0009 246.226 33.0832 246.436 33.0433C246.663 32.9984 246.905 32.9934 247.136 32.956C247.349 32.9211 247.459 33.0308 247.594 33.0956C247.757 33.1729 247.939 33.0857 248.088 33.1305C248.244 33.1754 248.354 33.2851 248.536 33.305C248.799 33.2377 248.966 33.3624 249.165 33.4447C249.321 33.507 249.506 33.4521 249.673 33.4247C249.861 33.3948 250.017 33.4222 250.149 33.512C250.298 33.6142 250.465 33.5918 250.636 33.5693C251.034 33.5195 251.048 33.512 251.279 33.6491C251.446 33.7488 251.606 33.7039 251.773 33.6915C251.918 33.7588 252.061 33.8311 252.213 33.8909C252.253 33.9059 252.327 33.881 252.388 33.8735C252.562 33.8535 252.739 33.8336 252.913 33.8136C253.031 33.8012 253.155 33.7638 253.262 33.7787C253.368 33.7962 253.457 33.8685 253.553 33.9159C253.649 33.9632 253.749 34.0106 253.841 34.0605C253.983 34.1353 254.118 34.1976 254.317 34.1602C254.488 34.1278 254.665 34.1178 254.843 34.0954C255.067 34.0679 255.06 34.0754 255.475 34.225C255.699 34.3073 255.93 34.2076 256.158 34.1976C256.271 34.1926 256.382 34.22 256.46 34.2923C256.492 34.3222 256.481 34.3721 256.492 34.4145C255.905 34.4818 255.316 34.5391 254.736 34.6214C254.512 34.6538 254.395 34.5641 254.274 34.4893C254.075 34.3696 253.812 34.5441 253.624 34.3895C253.51 34.2973 253.347 34.245 253.152 34.2898C253.038 34.3148 252.917 34.3123 252.8 34.3347C252.501 34.3895 252.228 34.392 251.99 34.22C251.908 34.1602 251.791 34.1278 251.705 34.0704C251.606 34.0081 251.51 33.9732 251.393 33.9857C250.863 34.0455 250.337 34.1053 249.811 34.1701C249.765 34.1751 249.719 34.2125 249.68 34.24C249.58 34.3098 249.612 34.3646 249.772 34.4095C249.825 34.4245 249.868 34.4568 249.918 34.4818C250.014 34.5291 250.103 34.604 250.209 34.6214C250.316 34.6389 250.44 34.604 250.558 34.5915C250.675 34.579 250.799 34.5416 250.906 34.5566C251.012 34.574 251.101 34.6463 251.201 34.6912C251.247 34.7137 251.304 34.751 251.35 34.7486C251.584 34.7336 251.815 34.7062 252.05 34.6837C252.196 34.751 252.32 34.8483 252.494 34.8707C252.604 34.8857 252.722 34.8582 252.835 34.8632C252.885 34.8657 252.949 34.9031 252.974 34.9355C252.988 34.9555 252.942 35.0053 252.906 35.0303C252.771 35.125 252.587 35.1075 252.42 35.1375C252.238 35.1699 252.075 35.1599 251.936 35.0627C251.844 34.9979 251.741 34.963 251.627 34.9754C251.332 35.0078 251.041 35.0452 250.746 35.0727C250.696 35.0777 250.636 35.0552 250.589 35.0378C250.216 34.8857 250.216 34.8807 249.953 34.9131C249.566 34.9605 249.566 34.9605 249.307 34.8283C249.257 34.8034 249.204 34.756 249.161 34.7585C248.749 34.7984 248.34 34.8383 247.932 34.8956C247.796 34.9131 247.704 34.9131 247.605 34.8483C247.519 34.7934 247.42 34.7311 247.313 34.7161C247.203 34.7012 247.082 34.7386 246.965 34.751C246.848 34.7635 246.723 34.7959 246.62 34.776C246.514 34.756 246.421 34.6862 246.329 34.6364C246.233 34.584 246.13 34.5865 245.998 34.6064C245.593 34.6638 245.59 34.6563 245.188 34.5017C245.142 34.4843 245.082 34.4643 245.032 34.4693C244.737 34.4992 244.446 34.5366 244.151 34.5666C244.037 34.579 243.927 34.5466 243.849 34.4743C243.817 34.4444 243.827 34.3945 243.806 34.2973C243.781 34.2749 243.809 34.3148 243.817 34.3522C243.87 34.3472 243.934 34.3521 243.973 34.3322C244.072 34.2848 244.122 34.2225 244.097 34.1701C244.083 34.1427 244.016 34.1078 243.973 34.1078C243.895 34.1078 243.827 34.1627 243.806 34.2973C243.582 34.3796 243.344 34.397 243.113 34.4369C242.978 34.4618 242.893 34.4494 242.786 34.3846C242.658 34.3048 242.527 34.2275 242.317 34.2674C242.09 34.3122 241.848 34.3198 241.613 34.3547C241.343 34.3945 241.226 34.1701 240.999 34.1751C240.764 34.1801 240.53 34.2225 240.295 34.2524C240.089 34.2774 240.089 34.2774 239.663 34.1153C239.506 34.0555 239.322 34.1427 239.169 34.0804C239.066 34.0405 238.977 33.9807 238.877 33.9383C238.835 33.9208 238.767 33.9208 238.714 33.9258C238.419 33.9557 238.12 33.9757 237.836 34.0305C237.513 34.0954 237.268 34.0256 237.037 33.8785C236.745 33.9059 236.45 33.9208 236.163 33.9682C235.953 34.0031 235.832 33.9209 235.69 33.8535C235.64 33.8311 235.598 33.7937 235.544 33.7837C235.491 33.7738 235.427 33.7937 235.37 33.8012C235.135 33.8286 234.894 33.8411 234.666 33.886C234.386 33.9433 234.279 33.7388 234.062 33.7139C233.917 33.8361 233.839 34.0031 233.551 34.0156C233.316 34.0255 233.082 34.0654 232.847 34.0929C232.73 34.1053 232.613 34.1203 232.495 34.1328C232.307 34.1552 232.218 34.2524 232.257 34.402C232.279 34.4843 232.296 34.5666 232.314 34.6488C232.35 34.7959 232.261 34.9206 232.112 34.938C231.699 34.9854 231.291 35.0352 230.878 35.0776C230.768 35.0901 230.662 35.0477 230.573 34.9804C230.48 34.9131 230.377 34.8832 230.264 34.8956C229.852 34.943 229.443 34.9929 229.031 35.0353C228.985 35.0403 228.924 35.0153 228.878 34.9954C228.778 34.9505 228.682 34.8981 228.587 34.8508C228.352 34.8732 228.121 34.8881 227.89 34.9181C227.517 34.9629 227.517 34.9654 227.243 34.8283C227.194 34.8034 227.144 34.756 227.098 34.7585C226.92 34.7685 226.746 34.7934 226.568 34.8159C226.046 34.8807 226.046 34.8807 225.893 34.8059C225.754 34.7361 225.63 34.6513 225.42 34.6912C225.193 34.7361 224.951 34.751 224.717 34.776C224.543 34.7934 224.369 34.8134 224.194 34.8184C224.148 34.8209 224.099 34.7735 224.049 34.7486C223.907 34.6713 223.768 34.6089 223.573 34.6513C223.459 34.6763 223.338 34.6812 223.221 34.6937C222.915 34.7286 222.915 34.7286 222.414 34.579C222.364 34.5641 222.304 34.5466 222.254 34.5541C221.842 34.599 221.433 34.6488 221.021 34.6912C220.971 34.6962 220.911 34.6812 220.861 34.6688C220.3 34.5242 220.3 34.5242 219.703 34.594C219.475 34.6189 219.468 34.6289 219.23 34.4967C219.124 34.4394 219.035 34.412 218.91 34.4294C218.441 34.4893 217.969 34.5292 217.503 34.599C217.294 34.6289 217.173 34.5541 217.031 34.4868C216.981 34.4643 216.928 34.4145 216.885 34.417C216.416 34.4644 215.947 34.5217 215.478 34.5691C215.435 34.574 215.382 34.5242 215.332 34.5017C215.236 34.4569 215.144 34.3895 215.037 34.3746C214.927 34.3596 214.806 34.397 214.685 34.4095C214.39 34.4419 214.39 34.4394 214.049 34.2923C214.003 34.2724 213.943 34.2449 213.897 34.2499C213.427 34.2998 212.955 34.3422 212.489 34.4145C212.223 34.4544 212.042 34.3821 211.853 34.2774C211.814 34.2549 211.747 34.2449 211.697 34.2499C211.167 34.3073 210.642 34.3721 210.112 34.4294C210.002 34.4419 209.895 34.3995 209.806 34.3347C209.664 34.2325 209.497 34.2449 209.32 34.2674C208.911 34.3197 208.907 34.3173 208.666 34.1976C208.616 34.1727 208.573 34.1402 208.52 34.1278C208.47 34.1153 208.406 34.1228 208.353 34.1278C208.119 34.1527 207.884 34.1801 207.65 34.2075C207.415 34.235 207.177 34.2499 206.946 34.2923C206.662 34.3447 206.527 34.1826 206.328 34.1078C206.036 34.1402 205.738 34.1602 205.45 34.2125C205.23 34.2524 205.127 34.1427 204.981 34.0854C204.931 34.0654 204.878 34.0231 204.832 34.028C204.302 34.0829 203.773 34.1427 203.247 34.21C203.119 34.225 203.034 34.205 202.927 34.1452C202.689 34.0106 202.678 34.0156 202.28 34.0654C202.106 34.0879 201.939 34.1078 201.79 34.0056C201.658 33.9134 201.499 33.8909 201.31 33.9208C201.079 33.9582 200.841 33.9782 200.607 34.0031C200.372 34.0305 200.138 34.0679 199.903 34.0804C199.715 34.0929 199.601 33.9757 199.452 33.9159C199.406 33.8984 199.342 33.8959 199.288 33.9009C199.054 33.9233 198.812 33.9408 198.585 33.9832C198.308 34.0355 198.155 33.8984 197.959 33.8186C197.917 33.8012 197.846 33.8112 197.792 33.8186C197.38 33.8635 196.971 33.9134 196.559 33.9607C196.414 33.8934 196.264 33.8286 196.119 33.7613C195.884 33.7862 195.65 33.8136 195.415 33.8386C195.237 33.8585 195.056 33.866 194.889 33.9034C194.672 33.9533 194.566 33.8361 194.42 33.7787C194.37 33.7588 194.317 33.7164 194.271 33.7214C193.976 33.7488 193.681 33.7787 193.39 33.8211C193.112 33.8635 193.002 33.6391 192.775 33.6416C192.54 33.6441 192.299 33.6765 192.071 33.7214C191.808 33.7738 191.623 33.694 191.435 33.5868C191.396 33.5643 191.329 33.5519 191.279 33.5568C190.984 33.5868 190.693 33.6242 190.398 33.6541C190.348 33.6591 190.287 33.6466 190.238 33.6317C189.676 33.4846 189.676 33.4821 189.431 33.512C189.257 33.5319 189.079 33.5569 188.902 33.5693C188.852 33.5743 188.791 33.5519 188.745 33.5319C188.376 33.3798 188.376 33.3773 188.109 33.4073C187.875 33.4347 187.64 33.4621 187.406 33.4895C187.26 33.4222 187.111 33.3574 186.965 33.2901C186.674 33.3225 186.375 33.3474 186.087 33.3923C185.952 33.4122 185.863 33.4048 185.76 33.3424C185.632 33.2677 185.504 33.1804 185.291 33.2228C185.064 33.2677 184.822 33.2726 184.591 33.31C184.314 33.3549 184.2 33.128 183.976 33.1305C183.742 33.133 183.5 33.1654 183.273 33.2103C183.01 33.2627 182.825 33.1829 182.637 33.0757C182.598 33.0533 182.53 33.0408 182.48 33.0458C181.834 33.1181 181.191 33.1904 180.544 33.2676C180.146 33.315 180.146 33.3175 179.389 33.1804C179.336 33.1704 179.279 33.1605 179.225 33.1654C178.991 33.1879 178.749 33.2053 178.522 33.2477C178.245 33.3001 178.092 33.1654 177.896 33.0832C177.854 33.0657 177.786 33.0757 177.729 33.0807C177.552 33.0981 177.378 33.1206 177.2 33.1405C176.965 33.1679 176.731 33.1954 176.496 33.2228C176.351 33.158 176.201 33.0906 176.056 33.0258C175.764 33.0582 175.466 33.0757 175.178 33.128C174.958 33.1679 174.855 33.0632 174.709 33.0034C174.659 32.9834 174.606 32.9411 174.56 32.9436C174.03 32.9984 173.501 33.0557 172.975 33.1255C172.758 33.1555 172.659 33.0433 172.513 32.9859C172.463 32.9685 172.406 32.9361 172.36 32.9411C172.008 32.976 171.657 33.0183 171.305 33.0607C171.106 33.0857 171.106 33.0857 170.672 32.9311C170.623 32.9136 170.566 32.8962 170.516 32.9012C169.4 33.0258 168.288 33.158 167.172 33.2826C167.058 33.2951 166.955 33.2577 166.867 33.1904C166.774 33.1231 166.671 33.0882 166.557 33.1006C166.088 33.153 165.616 33.2004 165.15 33.2652C164.958 33.2926 164.806 33.2602 164.674 33.1729C164.575 33.1081 164.482 33.0832 164.358 33.0981C164.123 33.128 163.889 33.153 163.654 33.1804C163.42 33.2078 163.185 33.2353 162.951 33.2627C162.716 33.2901 162.478 33.3051 162.247 33.3474C161.963 33.3998 161.824 33.2452 161.629 33.1679C161.277 33.2053 160.925 33.2427 160.577 33.2826C160.108 33.335 159.639 33.3923 159.17 33.4422C159.127 33.4472 159.074 33.4023 159.024 33.3798C158.878 33.3175 158.772 33.2303 158.555 33.2577C157.503 33.3898 156.444 33.502 155.389 33.6317C155.169 33.6591 155.073 33.5519 154.923 33.4945C154.874 33.4771 154.817 33.4422 154.771 33.4472C154.184 33.5095 153.598 33.5793 153.012 33.6466C152.774 33.674 152.774 33.674 152.376 33.5194C152.329 33.502 152.269 33.4796 152.219 33.4845C151.455 33.5693 150.695 33.6591 149.931 33.7463C149.817 33.7588 149.714 33.7239 149.622 33.6566C149.533 33.5893 149.426 33.5519 149.316 33.5643C148.612 33.6441 147.905 33.7214 147.205 33.8087C147.017 33.8336 146.861 33.8112 146.726 33.7214C146.63 33.6566 146.534 33.6291 146.413 33.6441C145.358 33.7663 144.302 33.8835 143.247 34.0131C143.044 34.038 142.902 33.9907 142.774 33.9084C142.671 33.8436 142.582 33.8311 142.454 33.8411C142.319 33.8535 142.238 33.8809 142.163 33.9557C142.067 34.053 142.007 34.1751 141.779 34.1826C141.545 34.1901 141.307 34.22 141.076 34.2624C140.855 34.3048 140.752 34.1926 140.614 34.1253C140.511 34.0779 140.415 34.0704 140.283 34.0929C140.162 34.1128 140.088 34.1552 140.017 34.235C139.86 34.4045 139.846 34.4045 139.654 34.2973C139.551 34.2399 139.459 34.1951 139.345 34.205C138.876 34.2549 138.407 34.3098 137.938 34.3671C137.668 34.3995 137.664 34.4045 137.462 34.2799C137.362 34.2175 137.266 34.1876 137.149 34.2026C135.859 34.3521 134.569 34.4967 133.279 34.6538C133.08 34.6787 132.945 34.6264 132.803 34.5516C132.757 34.5267 132.711 34.4917 132.658 34.4818C132.604 34.4718 132.544 34.4818 132.487 34.4868C131.549 34.594 130.607 34.6962 129.673 34.8159C129.459 34.8433 129.346 34.7635 129.2 34.6987C129.15 34.6763 129.108 34.6414 129.054 34.6314C129.001 34.6239 128.937 34.6413 128.88 34.6488C127.942 34.756 127 34.8583 126.066 34.9779C125.842 35.0054 125.746 34.9006 125.6 34.8458C125.551 34.8258 125.497 34.7884 125.451 34.7934C125.156 34.8208 124.865 34.8582 124.57 34.8906C123.866 34.9729 123.163 35.0502 122.459 35.135C122.189 35.1674 122.072 34.9455 121.844 34.9555C121.549 34.9679 121.258 35.0178 120.963 35.0527C120.729 35.0801 120.494 35.1051 120.259 35.135C120.029 35.1624 120.028 35.1624 119.453 35.0178C119.403 35.0053 119.343 34.9879 119.293 34.9929C118.472 35.0851 117.648 35.1774 116.83 35.2771C116.642 35.2995 116.486 35.2871 116.351 35.1948C116.255 35.13 116.155 35.0976 116.038 35.1125C114.805 35.2546 113.575 35.3968 112.342 35.5364C112.296 35.5414 112.236 35.5164 112.19 35.4965C112.09 35.4516 111.994 35.3993 111.898 35.3519C111.827 35.4092 111.735 35.4616 111.689 35.5264C111.625 35.6137 111.539 35.6386 111.404 35.6535C111.269 35.6685 111.184 35.6635 111.077 35.5987C110.949 35.5189 110.818 35.4566 110.608 35.4815C109.318 35.6386 108.028 35.7807 106.739 35.9353C106.525 35.9602 106.426 35.8505 106.277 35.7931C106.227 35.7757 106.17 35.7483 106.124 35.7533C105.594 35.8106 105.068 35.8729 104.539 35.9328C103.071 36.1023 101.604 36.2644 100.14 36.4439C99.8734 36.4763 99.6921 36.4139 99.5038 36.3067C99.4647 36.2843 99.3972 36.2718 99.3475 36.2768C97.2936 36.5112 95.2396 36.748 93.1893 36.9849C93.0791 36.9973 92.9725 36.9574 92.8837 36.8926C92.7913 36.8253 92.6883 36.7929 92.5746 36.8054C91.6364 36.9126 90.6984 37.0198 89.7603 37.1295C89.5257 37.1569 89.5221 37.1594 89.2805 37.0397C89.2308 37.0148 89.1775 36.9674 89.1384 36.9724C89.0567 36.9849 88.9785 37.0472 88.9216 37.1319C88.8647 37.2217 88.7759 37.2466 88.6444 37.2641C88.5094 37.2815 88.4206 37.2741 88.3175 37.2142C88.1861 37.1394 88.0652 37.0671 87.852 37.0921C85.1549 37.4112 82.4579 37.7178 79.7608 38.0344C79.544 38.0594 79.4445 37.9547 79.2953 37.8973C79.2455 37.8799 79.1958 37.8549 79.1425 37.8499C79.0856 37.845 79.0252 37.8599 78.9684 37.8674C74.5692 38.3735 70.1701 38.8821 65.7709 39.3882C65.5079 39.4181 65.5115 39.4181 65.2236 39.6475C65.1881 39.6749 65.1419 39.7123 65.0921 39.7173C63.7454 39.8768 62.3951 40.0314 61.0448 40.186C60.4585 40.2533 59.8722 40.3231 59.2858 40.3879C59.0762 40.4104 59.0762 40.4104 58.5751 40.6796C58.5325 40.7021 58.4827 40.732 58.433 40.737C56.0877 41.0087 53.7424 41.2805 51.3935 41.5472C51.2088 41.5672 51.0595 41.612 50.9743 41.7317C50.9139 41.8165 50.8357 41.8663 50.7184 41.8813C49.0767 42.0708 47.4351 42.2627 45.7898 42.4472C45.5944 42.4697 45.4771 42.5395 45.3811 42.6442C45.3492 42.6791 45.3207 42.719 45.2745 42.7439C45.2319 42.7663 45.1679 42.7738 45.1146 42.7813C43.7075 42.9433 42.3003 43.1104 40.8896 43.265C40.68 43.2874 40.5946 43.3796 40.4916 43.4769C40.456 43.5093 40.4312 43.5542 40.385 43.5766C40.3388 43.5966 40.2713 43.5965 40.2144 43.6015C39.0418 43.7362 37.8692 43.8733 36.6965 44.0079C36.4691 43.9954 36.4193 44.14 36.3092 44.2273C36.2701 44.2572 36.2417 44.2971 36.1955 44.3171C36.1458 44.337 36.0817 44.3345 36.0213 44.3395C35.0832 44.4467 34.1451 44.5614 33.2034 44.6611C32.9867 44.6835 32.944 44.8107 32.8268 44.8979C32.7877 44.9254 32.7486 44.9678 32.7024 44.9752C32.1161 45.0475 31.5298 45.1148 30.9435 45.1796C30.7481 45.2021 30.748 45.1996 30.4034 45.4464C30.3643 45.4739 30.318 45.5038 30.2683 45.5112C29.3906 45.616 28.5094 45.7157 27.6281 45.8179C27.5144 45.8304 27.4362 45.8902 27.3794 45.975C27.3225 46.0597 27.2408 46.1146 27.1271 46.127C26.4235 46.2093 25.7199 46.2941 25.0163 46.3689C24.8208 46.3888 24.6929 46.4511 24.6077 46.5633C24.5437 46.6481 24.4655 46.6905 24.3412 46.7054C23.6376 46.7852 22.934 46.8725 22.2269 46.9423C22.0208 46.9622 21.9141 47.047 21.8288 47.1517C21.7613 47.2365 21.6831 47.2664 21.5517 47.2813C20.2618 47.4259 18.9683 47.5705 17.682 47.7301C17.4652 47.7575 17.355 47.6702 17.2129 47.6079C17.0104 47.5207 16.8221 47.4259 16.8221 47.2315C16.8221 47.2015 16.7617 47.1666 16.719 47.1417C16.4028 46.9547 16.4027 46.9548 16.353 46.7553C16.3246 46.6331 16.2926 46.5085 16.2677 46.3838C16.2215 46.1794 16.1078 46.127 15.7809 46.1644C15.6636 46.1769 15.5463 46.1943 15.4291 46.2043C15.2549 46.2218 15.1235 46.1395 15.0915 45.9899C15.0737 45.9076 15.0524 45.8254 15.0347 45.7431C15.2124 45.7231 15.2088 45.7207 15.5215 45.419C15.6529 45.2919 15.653 45.2919 15.4007 45.1647C15.3048 45.1173 15.2123 45.065 15.1093 45.0201C15.0631 45.0001 15.0027 44.9877 14.953 44.9927C14.658 45.0226 14.3666 45.0575 14.0753 45.0924C13.6062 45.1472 13.6062 45.1472 13.13 44.8929C13.0909 44.873 13.0305 44.8356 13.0376 44.8157C13.0767 44.7234 13.1726 44.6835 13.2934 44.6735C13.4711 44.6586 13.6452 44.6337 13.8193 44.6137C13.9366 44.6012 14.0539 44.5863 14.1711 44.5738C14.2813 44.4791 14.3951 44.3869 14.4981 44.2896C14.6616 44.14 14.6615 44.135 14.4376 44.0303C14.2955 43.9605 14.1427 43.8982 13.997 43.8334C13.8229 43.8533 13.6452 43.8758 13.4711 43.8932C13.2508 43.9156 13.1619 43.8683 13.1051 43.7062C13.0553 43.5641 13.1158 43.442 13.2863 43.4121C13.4604 43.3821 13.624 43.3622 13.7128 43.2351C13.7981 43.1129 13.9473 43.0655 14.1321 43.0555C14.2494 43.048 14.3666 43.0306 14.4839 43.0157C14.6367 42.9957 14.7184 42.8686 14.6864 42.7265C14.6687 42.6342 14.6331 42.5569 14.4945 42.537C13.8798 42.4497 13.8727 42.4522 13.5671 42.2827C13.5386 42.2677 13.5174 42.2229 13.528 42.2004C13.5458 42.163 13.5849 42.1082 13.6275 42.1007C14.0362 42.0458 14.4448 41.996 14.8534 41.9586C14.9885 41.9461 15.088 41.9286 15.1342 41.8364C15.1981 41.7093 15.1697 41.5921 15.0454 41.5048C15.0063 41.4774 14.9422 41.4425 14.8996 41.445C14.4305 41.4899 13.9651 41.5472 13.496 41.5921C13.4534 41.5971 13.3752 41.5547 13.3575 41.5223C13.3219 41.4625 13.3752 41.3827 13.4996 41.3553C13.663 41.3179 13.83 41.3154 13.9402 41.1907C14.093 41.0137 14.2813 40.8517 14.4519 40.6821C14.4803 40.6522 14.5265 40.5948 14.5159 40.5899C14.4271 40.535 14.324 40.4926 14.2316 40.4403C14.0752 40.353 14.0752 40.2309 14.1107 40.1137C14.1392 40.019 14.2458 39.9816 14.3773 39.9816C14.4341 39.9816 14.5052 39.9816 14.5514 39.9591C14.6722 39.9043 14.7113 39.8344 14.6509 39.7821C14.6153 39.7522 14.5514 39.7098 14.5088 39.7148C13.7483 39.7971 12.9843 39.8768 12.2274 39.9791C12.0035 40.009 11.9006 39.9142 11.7655 39.8469C11.6625 39.7946 11.5665 39.7746 11.4385 39.812C11.3177 39.8469 11.2005 39.827 11.1259 39.7447C11.0655 39.6774 11.1721 39.6201 11.4599 39.5552C11.5132 39.5428 11.5736 39.5353 11.6127 39.5104C12.0249 39.2411 12.0248 39.2386 12.3091 39.2037C12.5863 39.1713 12.5864 39.1688 12.732 39.0242C12.7996 38.9569 12.8741 38.8896 12.9381 38.8198C12.963 38.7923 13.0057 38.7425 12.9914 38.7275C12.9133 38.6502 12.8066 38.6328 12.6823 38.6503C12.4051 38.6926 12.0782 38.6577 11.9325 38.8946C11.8757 38.9843 11.7868 39.0093 11.6589 39.0242C10.3726 39.1688 9.08616 39.3234 7.79625 39.463C7.5866 39.4854 7.49071 39.5777 7.40898 39.6799C7.33791 39.7647 7.25972 39.7896 7.12469 39.8046C6.98966 39.8195 6.883 39.827 6.80483 39.7447C6.75863 39.6949 6.79773 39.6251 6.90433 39.5552C7.05713 39.4555 7.02869 39.3309 6.97894 39.2137C6.94341 39.1364 6.83325 39.0816 6.71599 39.0865C6.54187 39.0965 6.3749 39.1239 6.22921 39.0242C6.14393 38.9669 6.03731 38.927 5.94136 38.8771C5.75658 38.7749 5.5718 38.6702 5.31239 38.7375C5.13472 38.7126 5.01035 38.6228 4.86821 38.553C4.63013 38.4383 4.60881 38.4209 4.77938 38.2987C4.97126 38.1616 4.82199 37.9821 4.92859 37.8475C5.0423 37.7029 5.19871 37.5757 5.33729 37.4411C5.37283 37.4062 5.40482 37.3738 5.44036 37.3389C5.35863 37.289 5.28402 37.2267 5.18808 37.1918C5.0637 37.1469 4.99974 37.0921 5.00685 36.9375C4.98197 36.9151 4.99256 36.9724 5.02099 36.9873C5.05297 37.0023 5.1312 36.9899 5.17029 36.9724C5.26979 36.925 5.31948 36.8627 5.29461 36.8103C5.2804 36.7829 5.21293 36.748 5.17029 36.748C5.09212 36.748 5.02461 36.8029 5.00329 36.9375C4.6053 37.0397 4.19304 37.0896 3.78084 37.1295C3.73819 37.1345 3.68492 37.0846 3.63518 37.0597C3.47172 36.9749 3.4717 36.9774 2.99198 36.9524C2.94223 36.9499 2.87475 36.9151 2.84988 36.8802C2.74683 36.7281 2.75041 36.561 2.70066 36.399C2.79305 36.2943 2.88537 36.1921 2.98131 36.0898C3.1732 35.8829 3.42199 35.7009 3.57124 35.4741C3.53926 35.3519 3.49661 35.2297 3.65296 35.13C4.09714 35.0054 4.09362 35.0054 4.21443 34.8857C4.55912 34.5466 4.90023 34.2051 5.25913 33.871C5.35507 33.7837 5.35508 33.7364 5.18452 33.699C5.13122 33.689 5.07429 33.6865 5.01743 33.6915C4.83976 33.7089 4.66209 33.7538 4.48797 33.7438C4.31385 33.7364 4.18593 33.6267 4.04379 33.5593C3.8981 33.4895 3.75241 33.4172 3.60672 33.3449C3.43971 33.3524 3.27273 33.4222 3.10571 33.31C2.97779 33.2228 2.81789 33.1604 2.6722 33.0881C2.78236 32.8987 2.98849 32.7541 3.1484 32.587C3.29409 32.435 3.29756 32.4375 3.68844 32.3203C3.87322 32.2654 3.93719 31.9837 3.78084 31.9014C3.5925 31.8017 3.39355 31.7095 3.20166 31.6147C3.03465 31.6222 2.86412 31.6895 2.70422 31.5773C2.57984 31.4926 2.43768 31.4352 2.23158 31.4676C1.88334 31.5225 1.52801 31.5499 1.17621 31.5948C1.0554 31.6097 0.92388 31.5998 0.870579 31.515C0.835044 31.4552 0.938101 31.3729 1.05537 31.3555C1.23304 31.3305 1.39293 31.3006 1.48176 31.176C1.56704 31.0513 1.72338 31.0139 1.90816 30.9964C1.95791 30.9914 2.0148 30.9615 2.03968 30.9316C2.1676 30.787 2.30975 30.6624 2.58337 30.6674C2.69708 30.6175 2.75745 30.5552 2.72191 30.4953C2.70059 30.4629 2.62601 30.4206 2.58337 30.4255C2.28843 30.4505 1.9935 30.4754 1.70567 30.5203C1.57064 30.5402 1.46754 30.5452 1.38225 30.4704C1.32185 30.4205 1.35382 30.3532 1.46753 30.2809C1.56703 30.2186 1.59549 30.1463 1.58838 30.0615C1.57062 29.8646 1.46399 29.8072 1.12286 29.8197C0.877672 29.8297 0.817259 29.7973 0.763958 29.6277C0.749744 29.5878 0.714272 29.533 0.739146 29.5056C0.891944 29.336 0.991448 29.1266 1.27928 29.0469C1.39299 29.0169 1.51376 29.0169 1.58483 28.9521C1.6559 28.8873 1.71989 28.8125 1.79451 28.7502C1.8869 28.6754 1.9508 28.6056 1.90816 28.5582C1.83709 28.4734 1.72342 28.466 1.59194 28.4959C1.47823 28.5208 1.35742 28.5233 1.24015 28.5382C1.0305 28.5657 0.85997 28.5009 0.835096 28.3912C0.767581 28.102 0.696491 27.8153 0.636082 27.5261C0.628975 27.4912 0.646694 27.4463 0.675121 27.4164C0.774618 27.3116 0.881263 27.2119 0.984313 27.1097C1.10513 26.9925 1.29705 27.015 1.46051 26.9925C1.69148 26.9601 1.6914 26.9626 2.00055 26.7233C2.12137 26.6285 2.33103 26.6659 2.4554 26.5812C2.49449 26.5538 2.5549 26.5089 2.54424 26.4839C2.53003 26.4515 2.459 26.4266 2.40569 26.4116C2.35595 26.3967 2.29555 26.3892 2.24225 26.3967C1.59552 26.469 0.952364 26.5463 0.305635 26.6161C0.195478 26.6285 0.0746572 26.5737 0.0355692 26.4964C-0.00351875 26.4241 0.00710691 26.3368 0 26.2546C0.10305 26.1523 0.220269 26.0576 0.309105 25.9479C0.376621 25.8632 0.454811 25.8258 0.589842 25.8208C0.767515 25.8133 0.941651 25.7834 1.14064 25.7609C1.5102 25.3969 1.87263 25.0155 2.27062 24.6515C2.43052 24.5044 2.3915 24.3548 2.42348 24.1978C2.45546 24.0532 2.69353 24.0756 2.85343 24.0332C2.98136 23.9983 3.02394 23.9185 2.97419 23.8637C2.94577 23.8313 2.88184 23.7939 2.83209 23.7939C2.71483 23.7939 2.59757 23.8163 2.4803 23.8288C2.36304 23.8413 2.22801 23.8338 2.13207 23.8762C2.03968 23.9161 1.97924 24.0008 1.91883 24.0731C1.85131 24.1529 1.76254 24.1803 1.62751 24.1853C1.45339 24.1903 1.27928 24.2127 1.10516 24.2302C0.913276 24.1329 0.714241 24.0382 0.529461 23.936C0.493926 23.9161 0.486781 23.8587 0.490335 23.8213C0.497442 23.7241 0.444154 23.6643 0.32689 23.6169C0.227393 23.577 0.145657 23.5197 0.0532671 23.4698C0.124336 23.4025 0.20254 23.3377 0.259395 23.2654C0.383766 23.1133 0.540135 23.0036 0.810198 23.0086C0.916801 22.9114 1.00206 22.7917 1.14064 22.7244C1.27212 22.6595 1.496 22.7243 1.5955 22.5773C1.64525 22.505 1.71991 22.4227 1.81585 22.3928C1.96865 22.3454 2.16764 22.3704 2.25648 22.2307C2.30978 22.151 2.38792 22.0786 2.49097 22.0587C2.60824 22.0363 2.72902 22.0313 2.81431 21.9839C2.8605 21.959 2.91026 21.9191 2.91026 21.8842C2.91026 21.8618 2.83924 21.8268 2.7895 21.8119C2.7433 21.7944 2.68282 21.782 2.62952 21.787C2.45185 21.8019 2.27773 21.8293 2.10006 21.8443C2.05031 21.8493 1.99347 21.8318 1.94017 21.8169C1.78382 21.777 1.79446 21.7271 1.91883 21.6374C2.0432 21.5501 2.13209 21.4379 2.23514 21.3357C2.34885 21.3182 2.49096 21.3257 2.56914 21.2784C2.70062 21.2011 2.79298 21.0889 2.89959 20.9916C3.01685 20.9767 3.13766 20.9717 3.24782 20.9443C3.29401 20.9343 3.31535 20.8795 3.35444 20.8471C3.42551 20.7847 3.48597 20.695 3.58191 20.6651C3.73826 20.6202 3.93014 20.6376 4.02253 20.5005C4.07583 20.4207 4.15753 20.336 4.25703 20.331C4.5342 20.321 4.65147 20.1839 4.7936 20.0542C4.90021 19.957 5.12764 20.0069 5.2449 19.9097C5.32308 19.8473 5.37997 19.77 5.45814 19.7102C5.49012 19.6853 5.55761 19.6728 5.61092 19.6653C5.9023 19.6279 6.19723 19.6005 6.48861 19.5606C6.5348 19.5531 6.57748 19.5158 6.61301 19.4858C6.68764 19.421 6.73378 19.3313 6.82617 19.2889C6.91856 19.2465 7.05002 19.2465 7.16373 19.234C7.52974 19.1966 7.55819 19.2066 7.7252 18.9947C7.86023 18.8227 8.19075 18.9448 8.3009 18.7554C8.36487 18.6457 8.48208 18.5559 8.69173 18.5434C8.98667 18.526 9.27804 18.4786 9.57298 18.4462C9.83594 18.4163 9.83239 18.4163 10.1167 18.1844C10.2446 18.0797 10.433 18.0947 10.6 18.0747C10.7776 18.0548 10.9411 18.0249 11.0264 17.9002C11.1117 17.7781 11.268 17.7382 11.4492 17.7207C11.6162 17.7033 11.8046 17.7157 11.9361 17.616C12.2559 17.3767 12.2523 17.3742 12.4762 17.3492C12.828 17.3094 13.1798 17.2695 13.5316 17.2271C13.7661 17.1997 14.0113 17.1947 14.2316 17.1398C14.3915 17.0999 14.4625 16.9603 14.5656 16.8631C14.857 16.8257 15.1484 16.7883 15.4397 16.7534C15.8484 16.7035 16.2606 16.6587 16.6728 16.6113C16.8504 16.5166 16.8754 16.3071 17.1739 16.2972C17.3515 16.2922 17.5257 16.2598 17.7033 16.2398C17.9983 16.2049 18.2896 16.16 18.5846 16.1426C18.8084 16.1301 18.8475 15.9955 18.9647 15.9107C19.0038 15.8808 19.0394 15.8384 19.0856 15.831C19.5475 15.7612 20.0237 15.7462 20.475 15.644C20.5211 15.634 20.5638 15.5816 20.5745 15.5442C20.5816 15.5243 20.5212 15.4869 20.4821 15.4695C20.4359 15.4495 20.3755 15.4296 20.3257 15.4346C18.8582 15.6016 17.3906 15.7711 15.923 15.9382C15.7169 15.9631 15.7169 15.9606 15.2159 16.2348C15.1733 16.2573 15.1235 16.2822 15.0702 16.2897C14.8356 16.3196 14.5976 16.3371 14.3666 16.3745C14.1783 16.4044 14.022 16.3744 13.8869 16.2847C13.791 16.2199 13.6914 16.1999 13.5706 16.2049C13.4356 16.2124 13.3468 16.2398 13.2686 16.3071C13.1656 16.3994 13.1123 16.519 12.8955 16.544C11.897 16.6512 10.8984 16.7708 9.90343 16.8855C9.76484 16.8506 9.69733 16.7983 9.73287 16.736C9.75419 16.6986 9.79685 16.6487 9.83949 16.6437C10.2481 16.5914 10.6603 16.5465 11.069 16.4966C11.1258 16.4891 11.204 16.4941 11.236 16.4692C11.3923 16.357 11.4492 16.175 11.7442 16.1625C11.9147 16.155 12.0888 16.1177 12.2523 16.0828C12.2985 16.0728 12.3411 16.0204 12.3518 15.983C12.3554 15.9631 12.2985 15.9257 12.2559 15.9082C12.0995 15.8359 11.9183 15.9232 11.762 15.8734C11.7087 15.8559 11.634 15.831 11.6233 15.801C11.6162 15.7736 11.6766 15.7287 11.7193 15.7013C11.7584 15.6764 11.8116 15.654 11.8649 15.6465C12.334 15.5891 12.8031 15.5293 13.2722 15.4844C13.4641 15.467 13.5991 15.4046 13.6844 15.2899C13.7483 15.2052 13.8265 15.1603 13.9473 15.1479C14.7681 15.0556 15.589 14.9534 16.4134 14.8686C16.6195 14.8487 16.7261 14.7664 16.8114 14.6592C16.8789 14.5745 16.9571 14.5445 17.0886 14.5296C18.2648 14.3999 19.4338 14.2553 20.61 14.1307C20.8268 14.1082 20.8908 14.001 21.0009 13.9088C21.04 13.8764 21.0648 13.8365 21.1146 13.8166C21.1643 13.7966 21.2283 13.7991 21.2887 13.7941C22.2268 13.6869 23.165 13.5722 24.1067 13.4725C24.327 13.4501 24.3695 13.3254 24.4833 13.2381C24.5223 13.2107 24.5579 13.1658 24.6041 13.1584C25.3077 13.0736 26.0112 12.9938 26.7148 12.9116C27.1839 12.8567 27.6529 12.8019 28.122 12.7495C28.353 12.7246 28.353 12.7221 28.6657 12.4852C28.7012 12.4578 28.751 12.4254 28.7972 12.4179C30.1475 12.2583 31.4942 12.1063 32.8445 11.9492C32.9583 11.9368 33.04 11.8794 33.0968 11.7946C33.1537 11.7099 33.2355 11.6525 33.3456 11.6401C34.401 11.5154 35.4564 11.3932 36.5153 11.2761C36.7072 11.2561 36.8422 11.1963 36.9275 11.0841C36.9914 10.9993 37.0696 10.9545 37.1904 10.942C38.2458 10.8223 39.3012 10.6952 40.3601 10.5805C40.5627 10.5581 40.6621 10.4733 40.7616 10.3736C40.7972 10.3387 40.8256 10.2813 40.8683 10.2763C41.3942 10.2065 41.9165 10.1342 42.446 10.0869C42.6663 10.0669 42.7409 9.9622 42.8298 9.86248C42.9008 9.7827 42.9826 9.75528 43.1176 9.74531C43.4126 9.72287 43.7039 9.6805 43.9918 9.63812C44.0344 9.63064 44.0877 9.57579 44.0913 9.54089C44.0984 9.47607 44.0166 9.43118 43.8816 9.40875C42.4744 9.5708 41.0637 9.73284 39.6566 9.89489C39.4256 9.92231 39.4256 9.92233 39.1129 10.1592C39.0773 10.1866 39.0275 10.219 38.9778 10.2265C37.6275 10.3836 36.2808 10.5381 34.9305 10.6952C34.8167 10.7077 34.735 10.765 34.6782 10.8498C34.6213 10.9345 34.5395 10.9919 34.4294 11.0043C33.1395 11.1539 31.8496 11.306 30.5561 11.4481C30.3643 11.4681 30.2292 11.5254 30.144 11.6401C30.08 11.7248 30.0018 11.7697 29.881 11.7822C28.648 11.9218 27.4184 12.0689 26.1818 12.2035C26.0574 12.216 25.9651 12.1437 25.9722 12.0763C25.9758 12.0414 26.029 11.9841 26.0716 11.9791C26.7148 11.8969 27.3545 11.8121 28.0012 11.7498C28.218 11.7298 28.2819 11.6201 28.3921 11.5279C28.4276 11.4955 28.456 11.4531 28.5022 11.4356C28.552 11.4157 28.6159 11.4182 28.6763 11.4132C30.2008 11.2362 31.7253 11.0567 33.2532 10.8897C33.4736 10.8647 33.5161 10.7426 33.6298 10.6553C33.6689 10.6254 33.7045 10.5805 33.7507 10.5755C34.2197 10.5157 34.6888 10.4633 35.1578 10.411C35.9787 10.3162 36.7995 10.2215 37.6239 10.1268C37.862 10.0993 37.862 10.0993 38.1676 9.86497C38.2031 9.83755 38.2529 9.80267 38.2991 9.79768C40.4703 9.54588 42.6415 9.29407 44.8126 9.04476C44.9263 9.0323 45.0081 8.97496 45.0649 8.89019C45.1218 8.80792 45.2035 8.74809 45.3136 8.73313C48.2488 8.39407 51.1804 8.05499 54.1155 7.72092C54.3074 7.69848 54.4424 7.64612 54.5277 7.52894C54.5881 7.44418 54.6698 7.39931 54.7907 7.38436C58.0172 7.01288 61.2437 6.64142 64.4738 6.26745C66.645 6.01815 68.8162 5.76385 70.9873 5.51953C71.1863 5.49709 71.2929 5.41979 71.3924 5.31757C71.4244 5.28267 71.4564 5.22532 71.499 5.22034C71.9645 5.15801 72.43 5.10068 72.8955 5.04334C73.0412 5.11065 73.1869 5.17548 73.3326 5.2428C73.4427 5.14806 73.5494 5.05082 73.6595 4.95608C74.3631 4.88379 75.056 4.77159 75.7667 4.73669C75.8129 4.7342 75.8626 4.78157 75.9124 4.80651C76.2428 4.96357 76.4312 4.9511 76.6408 4.74168C76.7155 4.66689 76.7794 4.59958 76.8931 4.58711C77.2449 4.54224 77.6003 4.51232 77.9486 4.45996C78.1369 4.43254 78.2932 4.45746 78.4282 4.54721C78.5242 4.61203 78.6237 4.63947 78.741 4.62451C79.3877 4.54972 80.0309 4.47741 80.6776 4.39763C80.7238 4.39265 80.7664 4.35025 80.8019 4.32033C80.8765 4.25551 80.9405 4.18572 81.0116 4.11841C81.1076 4.16079 81.2142 4.19321 81.2923 4.24805C81.3918 4.31288 81.4842 4.31286 81.6192 4.29541C84.199 3.99374 86.7824 3.69956 89.3622 3.39541C89.5825 3.37047 89.6785 3.47519 89.8277 3.53004C89.8775 3.54999 89.9272 3.57491 89.9805 3.57989C90.0374 3.58488 90.0978 3.56993 90.1546 3.56245C92.0913 3.33808 94.0279 3.11617 95.9646 2.8918C96.2204 2.86188 96.2204 2.86188 96.6006 3.01645C96.6468 3.0364 96.7072 3.05884 96.757 3.05136C97.6382 2.95413 98.5195 2.84943 99.3972 2.7497C99.5109 2.73724 99.6069 2.77712 99.7099 2.83446C99.9125 2.94665 99.9266 2.94666 100.076 2.78211C100.147 2.70483 100.222 2.65744 100.339 2.635C100.467 2.61007 100.57 2.61758 100.669 2.66245C100.811 2.72478 100.915 2.82947 101.131 2.80205C102.069 2.68487 103.011 2.58765 103.946 2.46798C104.159 2.44056 104.273 2.52532 104.415 2.58765C104.464 2.61008 104.511 2.64499 104.564 2.65247C104.617 2.65995 104.681 2.64248 104.738 2.635C105.911 2.50037 107.087 2.36826 108.256 2.22366C108.476 2.19624 108.572 2.30342 108.721 2.35827C108.771 2.37822 108.828 2.41314 108.874 2.40815C109.578 2.33086 110.285 2.24857 110.989 2.1663C111.241 2.13638 111.241 2.13887 111.625 2.29095C111.671 2.3109 111.731 2.33084 111.781 2.32586C112.602 2.23361 113.426 2.13888 114.247 2.04414C114.499 2.01422 114.499 2.01423 115.228 2.14387C115.281 2.15384 115.338 2.16882 115.391 2.16383C116.329 2.05663 117.271 1.9519 118.209 1.83722C118.397 1.81478 118.554 1.83472 118.689 1.92447C118.785 1.98929 118.884 2.01673 119.002 2.00177C120.057 1.87961 121.116 1.76244 122.168 1.6328C122.37 1.60787 122.502 1.6627 122.644 1.735C122.69 1.75993 122.736 1.79484 122.79 1.80481C122.843 1.81478 122.903 1.8048 122.96 1.79732C124.016 1.67516 125.074 1.56049 126.126 1.42835C126.339 1.40093 126.453 1.48569 126.595 1.54801C126.645 1.57045 126.698 1.61533 126.741 1.61284C127.153 1.57046 127.565 1.53307 127.974 1.47074C128.194 1.43584 128.29 1.5505 128.44 1.60535C128.489 1.6228 128.546 1.66022 128.592 1.65523C129.474 1.558 130.355 1.45579 131.233 1.35108C131.357 1.33612 131.449 1.35854 131.549 1.42336C131.68 1.51062 131.833 1.54552 132.025 1.5181C132.434 1.46076 132.846 1.42088 133.258 1.37351C133.5 1.34609 133.5 1.34609 134.239 1.47574C134.292 1.48571 134.349 1.50066 134.402 1.49567C135.106 1.41589 135.813 1.33861 136.513 1.25135C136.701 1.22642 136.858 1.24885 136.993 1.3386C137.089 1.40342 137.185 1.43086 137.305 1.4159C137.952 1.34111 138.595 1.26631 139.242 1.19152C139.477 1.1641 139.711 1.11671 139.946 1.11671C140.116 1.11921 140.241 1.23887 140.393 1.29871C140.436 1.31616 140.507 1.29624 140.564 1.29125C141.385 1.19651 142.209 1.10924 143.026 1.00204C143.24 0.974618 143.353 1.05938 143.496 1.12171C143.545 1.14414 143.599 1.18902 143.641 1.18653C143.936 1.1591 144.228 1.1217 144.522 1.08929C144.874 1.0494 145.23 1.01949 145.578 0.964639C145.862 0.919764 145.969 1.13666 146.196 1.14413C146.37 1.15161 146.548 1.10924 146.722 1.08929C147.074 1.0494 147.426 1.00453 147.777 0.96963C147.902 0.957165 147.998 0.917258 148.037 0.827507C148.044 0.810055 147.984 0.772675 147.944 0.750237C147.472 0.495941 147.472 0.495929 146.996 0.550777C146.701 0.58568 146.409 0.62059 146.114 0.650507C146.065 0.655493 146.008 0.63555 145.958 0.620591C145.816 0.578209 145.83 0.528352 145.951 0.4386C146.072 0.348849 146.164 0.239162 146.267 0.136946C146.413 0.201766 146.555 0.266563 146.701 0.331384C146.818 0.318918 146.935 0.303982 147.053 0.291516C147.639 0.226696 148.225 0.159377 148.812 0.0995431C148.854 0.0945569 148.907 0.144426 148.957 0.169357C149.099 0.241657 149.227 0.303967 149.433 0.276543C149.959 0.204243 150.489 0.151888 151.015 0.089561C151.246 0.0621369 151.246 0.0621394 151.651 0.216711C151.697 0.234163 151.757 0.254109 151.807 0.249123C152.337 0.191781 152.862 0.129461 153.392 0.0696272C153.506 0.0571617 153.616 0.0895707 153.698 0.16187C153.729 0.191788 153.722 0.24164 153.857 0.650507C154.277 0.982089 154.565 0.947202 154.856 0.917285C154.98 0.90482 155.09 0.892342 155.172 0.84248C155.215 0.815056 155.268 0.77516 155.268 0.74275C155.268 0.717819 155.19 0.677923 155.14 0.672936C154.788 0.623074 154.454 0.727799 154.11 0.750237C153.95 0.760209 153.811 0.67295 153.783 0.530843C153.776 0.490954 153.765 0.448574 153.754 0.408684C153.744 0.368795 153.737 0.326415 153.726 0.286525C153.587 0.27406 153.506 0.318928 153.445 0.403693C153.395 0.4735 153.324 0.553279 153.228 0.590675C153.132 0.630565 153.001 0.623099 152.884 0.635564C152.77 0.64803 152.646 0.680436 152.539 0.662985C152.432 0.64304 152.347 0.570728 152.248 0.525852C152.201 0.503415 152.145 0.471016 152.098 0.476003C151.69 0.518385 151.285 0.560752 150.88 0.6156C150.666 0.645517 150.56 0.540823 150.425 0.476003C150.318 0.426141 150.212 0.43859 150.194 0.553273C150.148 0.827513 150.311 0.942189 150.674 0.889834C150.972 0.844959 151.242 0.837502 151.477 1.00703C151.509 1.02947 151.583 1.03944 151.629 1.03445C151.921 1.00454 152.209 0.967136 152.5 0.937219C152.553 0.932233 152.61 0.942189 152.66 0.952162C153.385 1.08679 153.385 1.0893 153.63 1.05938C153.747 1.04442 153.861 1.03195 153.85 0.653003C154.074 0.246628 154.43 0.219209 154.774 0.159375C154.998 0.121978 155.094 0.231679 155.24 0.289021C155.289 0.308965 155.343 0.348848 155.389 0.343861C156.153 0.261589 156.913 0.174319 157.674 0.0820744C157.802 0.0671158 157.894 0.0820768 157.994 0.146897C158.121 0.229169 158.264 0.281535 158.466 0.251618C158.871 0.191784 159.283 0.154396 159.696 0.104534C159.905 0.0796032 159.905 0.0795776 160.328 0.234149C160.374 0.251601 160.435 0.271547 160.485 0.266561C160.897 0.224178 161.305 0.171839 161.714 0.126963C161.828 0.114498 161.931 0.149398 162.02 0.216711C162.109 0.284025 162.215 0.318924 162.325 0.306459C162.738 0.261583 163.146 0.211737 163.555 0.166861C163.605 0.161875 163.665 0.179326 163.711 0.196777C164.145 0.351349 164.145 0.351324 164.344 0.326393C164.635 0.288996 164.934 0.271564 165.221 0.221702C165.502 0.17184 165.648 0.316428 165.84 0.396207C166.366 0.338865 166.895 0.291509 167.417 0.221702C167.631 0.191785 167.744 0.27405 167.886 0.33887C167.936 0.361308 167.986 0.408682 168.032 0.406189C168.21 0.396216 168.384 0.368797 168.558 0.348852C168.732 0.328908 168.91 0.308965 169.084 0.289021C169.283 0.36132 169.414 0.530848 169.699 0.473507C169.869 0.438604 170.05 0.431125 170.225 0.41118C170.399 0.391235 170.576 0.371293 170.751 0.351348C170.868 0.338882 170.989 0.331392 171.102 0.308954C171.312 0.271558 171.415 0.393734 171.564 0.448582C171.614 0.466034 171.671 0.495932 171.717 0.490945C172.069 0.456042 172.424 0.426127 172.769 0.368786C173.035 0.323911 173.217 0.398713 173.405 0.503423C173.444 0.525861 173.512 0.538325 173.561 0.533339C173.973 0.490956 174.382 0.438587 174.791 0.393711C174.901 0.381246 175.008 0.421134 175.096 0.485954C175.189 0.553268 175.292 0.585702 175.405 0.573237C175.814 0.528361 176.226 0.478485 176.635 0.433609C176.685 0.428623 176.745 0.448571 176.791 0.468516C177.189 0.623088 177.189 0.625583 177.424 0.595666C177.481 0.588187 177.541 0.583181 177.598 0.575702C177.889 0.540799 178.191 0.52835 178.476 0.468516C178.803 0.401203 179.041 0.485971 179.272 0.628078C179.563 0.598161 179.862 0.580705 180.146 0.530843C180.359 0.493447 180.473 0.58818 180.615 0.650507C180.665 0.672945 180.718 0.717821 180.761 0.712834C181.173 0.670452 181.585 0.633069 181.99 0.570741C182.21 0.535838 182.306 0.648007 182.456 0.705348C182.505 0.725293 182.559 0.760214 182.605 0.755228C182.839 0.735283 183.074 0.705351 183.308 0.677927C183.582 0.645517 183.582 0.648008 183.944 0.800087C184.115 0.872386 184.286 0.815043 184.453 0.797591C184.63 0.777646 184.797 0.762693 184.939 0.864909C185.028 0.92973 185.135 0.969621 185.245 0.959648C185.48 0.93721 185.718 0.914783 185.949 0.877387C186.133 0.84747 186.293 0.867404 186.428 0.959648C186.524 1.02447 186.624 1.0569 186.741 1.04194C187.267 0.982106 187.796 0.919755 188.322 0.862414C188.369 0.857428 188.432 0.879874 188.475 0.902312C188.575 0.947188 188.671 0.997039 188.767 1.0469C188.997 1.02446 189.236 1.01452 189.463 0.979612C189.705 0.944709 189.925 0.93224 190.113 1.06936C190.152 1.09928 190.209 1.14164 190.255 1.13914C190.433 1.12917 190.607 1.10425 190.781 1.0843C190.955 1.06436 191.133 1.04442 191.307 1.02447C191.51 1.0868 191.638 1.2663 191.922 1.20896C192.093 1.17405 192.274 1.16658 192.448 1.14663C192.622 1.12669 192.8 1.10425 192.974 1.0868C193.031 1.08181 193.095 1.06934 193.144 1.07931C193.198 1.08928 193.244 1.12419 193.29 1.14913C193.432 1.22143 193.564 1.29373 193.766 1.25135C193.937 1.21645 194.118 1.20897 194.292 1.18653C194.53 1.1591 194.53 1.15911 194.925 1.31617C195.085 1.38099 195.266 1.29623 195.419 1.35108C195.522 1.38848 195.61 1.45079 195.71 1.49317C195.753 1.51063 195.82 1.51809 195.87 1.51311C196.104 1.49067 196.342 1.46824 196.573 1.43085C196.762 1.40093 196.918 1.43084 197.05 1.52059C197.146 1.58541 197.241 1.61285 197.362 1.59789C197.949 1.52809 198.535 1.46823 199.118 1.39095C199.317 1.36352 199.477 1.40592 199.587 1.49567C199.775 1.65024 200.042 1.46825 200.237 1.5929C200.358 1.67019 200.479 1.75995 200.699 1.72255C201.104 1.65773 201.516 1.62281 201.925 1.57793C202.071 1.64524 202.216 1.71257 202.366 1.77989C202.6 1.75246 202.835 1.72502 203.069 1.70009C203.243 1.68015 203.421 1.65771 203.595 1.64026C203.652 1.63527 203.712 1.6253 203.766 1.63776C203.819 1.65023 203.862 1.68265 203.911 1.70758C204.157 1.82974 204.156 1.83224 204.562 1.78238C204.736 1.75994 204.903 1.74498 205.048 1.84471C205.183 1.93695 205.343 1.95439 205.528 1.92697C205.876 1.87711 206.228 1.83971 206.584 1.80481C206.694 1.79235 206.797 1.83473 206.889 1.89955C207.028 2.00177 207.198 1.9918 207.372 1.96437C207.603 1.92947 207.831 1.89457 208.026 2.03419C208.065 2.0641 208.126 2.10646 208.168 2.10397C208.46 2.08403 208.755 2.06908 209.039 2.02171C209.323 1.97434 209.462 2.12891 209.657 2.2037C209.949 2.17129 210.244 2.13888 210.535 2.10647C210.592 2.09899 210.659 2.07656 210.709 2.08903C210.919 2.14138 211.04 2.32836 211.327 2.27102C211.494 2.23861 211.676 2.22865 211.85 2.22117C211.896 2.21868 211.956 2.26104 211.988 2.29345C212.006 2.3109 211.988 2.35826 211.967 2.3832C211.903 2.453 211.825 2.51784 211.768 2.59014C211.761 2.60011 211.828 2.64497 211.868 2.66492C211.963 2.70979 212.074 2.70233 212.202 2.68238C212.312 2.66493 212.425 2.69984 212.504 2.77463C212.536 2.80454 212.525 2.8544 212.457 3.01895C212.457 3.14111 212.532 3.08625 212.557 3.00647C212.596 2.89179 212.521 2.85439 212.379 2.91672C212.28 2.9616 212.23 3.02642 212.255 3.07878C212.269 3.1062 212.337 3.14111 212.457 3.01895C212.77 2.86936 213.005 2.84195 213.239 2.81453C213.3 2.80705 213.371 2.7821 213.413 2.79706C213.566 2.85689 213.708 2.9292 213.857 2.99652C214.028 2.98156 214.188 2.94414 214.355 3.04138C214.589 3.1785 214.6 3.16603 214.828 3.13861C214.945 3.12365 215.062 3.11121 215.179 3.09874C215.297 3.08628 215.389 3.12366 215.492 3.181C215.702 3.29818 215.719 3.29817 215.858 3.13861C215.94 3.04138 215.997 3.00898 216.1 3.05385C216.441 3.20593 216.444 3.2159 216.736 3.17102C216.977 3.13362 217.205 3.12365 217.382 3.26576C217.503 3.36548 217.542 3.34305 217.638 3.23834C217.894 2.96161 218.011 2.96658 218.491 3.16603C218.715 3.26077 218.946 3.15856 219.173 3.1461C219.365 3.13612 219.5 3.19595 219.515 3.35301C219.525 3.45024 219.557 3.52006 219.685 3.55247C219.735 3.56494 219.795 3.58238 219.845 3.5774C220.14 3.54748 220.431 3.51257 220.726 3.47767C220.875 3.46022 220.957 3.34306 220.929 3.18849C220.897 3.02395 220.954 2.96409 221.167 2.91672C221.295 2.8893 221.398 2.8943 221.501 2.93918C221.615 2.98904 221.583 3.03392 221.483 3.12367C221.245 3.34306 221.274 3.47766 221.579 3.62974C221.686 3.6821 221.771 3.72949 221.796 3.80677C221.81 3.84666 221.796 3.89901 221.828 3.92893C222.002 4.09597 222.244 4.20318 222.514 4.28296C222.773 4.21565 222.951 4.32782 223.15 4.41757C223.306 4.48737 223.491 4.42756 223.658 4.40263C223.846 4.3752 224.003 4.39514 224.138 4.48738C224.234 4.5522 224.333 4.58211 224.45 4.56964C224.685 4.54222 224.923 4.52478 225.154 4.48489C225.353 4.44998 225.502 4.49985 225.626 4.58462C225.783 4.69182 225.957 4.61951 226.12 4.63447C226.341 4.65192 226.451 4.8738 226.739 4.81396C226.909 4.77906 227.087 4.7666 227.265 4.75663C227.311 4.75413 227.368 4.79652 227.407 4.82644C227.595 4.96356 227.815 4.95608 228.057 4.91619C228.224 4.88876 228.387 4.86384 228.551 4.95858C228.821 5.11814 229.12 5.25776 229.404 5.40485C229.443 5.51954 229.414 5.65414 229.617 5.72145C229.724 5.75635 229.823 5.80873 229.905 5.86607C230.004 5.93338 230.097 5.95084 230.225 5.93339C230.456 5.89849 230.697 5.89098 230.925 5.84611C231.134 5.80622 231.266 5.88851 231.394 5.9658C231.497 6.02813 231.593 6.05803 231.717 6.01315C231.845 5.97077 231.937 5.99819 232.04 6.0655C232.186 6.15774 232.197 6.14779 232.68 6.17521C232.73 6.1777 232.79 6.21508 232.819 6.24749C232.833 6.26494 232.801 6.31483 232.776 6.33976C232.744 6.36968 232.694 6.40456 232.648 6.41204C232.122 6.47686 231.593 6.5342 231.067 6.59903C231.014 6.6065 230.957 6.62397 230.918 6.64891C230.875 6.67633 230.822 6.7137 230.822 6.7486C230.822 6.77354 230.893 6.80346 230.942 6.82091C231.099 6.87826 231.284 6.791 231.436 6.85582C231.539 6.8982 231.625 6.95802 231.728 6.99791C231.77 7.01537 231.838 7.01288 231.891 7.0079C232.069 6.99044 232.243 6.96552 232.421 6.95056C232.47 6.94807 232.527 6.97301 232.573 6.99295C232.915 7.14254 232.915 7.14253 233.21 7.11012C233.327 7.09766 233.451 7.06026 233.561 7.07521C233.668 7.09017 233.76 7.15749 233.856 7.19987C234.055 7.28962 234.244 7.37688 234.258 7.57134C234.265 7.64613 234.382 7.71094 234.499 7.71593C234.613 7.72091 234.734 7.69351 234.851 7.67855C235.128 7.64864 235.128 7.64863 235.487 7.80071C235.587 7.8431 235.693 7.84807 235.821 7.82314C235.871 7.81317 235.932 7.82315 235.985 7.83562C236.159 7.87302 236.159 7.92037 236.045 8.01012C235.885 8.14226 235.899 8.15473 236.347 8.26692C236.518 8.3093 236.649 8.38909 236.791 8.45889C237.022 8.57108 237.019 8.57106 236.866 8.71815C236.831 8.75057 236.799 8.78548 236.763 8.82038C236.66 8.91761 236.578 9.02232 236.365 9.03229C236.13 9.04226 235.896 9.08216 235.661 9.10959C235.434 9.13701 235.374 9.19682 235.395 9.36635C235.42 9.57079 235.466 9.59323 235.875 9.59074C235.992 9.59074 236.095 9.61068 236.184 9.67799C236.141 9.75777 236.063 9.8201 235.949 9.83506C235.658 9.87245 235.363 9.90487 235.072 9.93728C234.837 9.96471 234.603 9.99212 234.368 10.0195C234.222 10.037 234.13 10.1666 234.169 10.3112C234.19 10.3935 234.208 10.4758 234.226 10.5581C234.265 10.7226 234.34 10.765 234.578 10.7575C234.638 10.755 234.695 10.7351 234.752 10.7401C234.983 10.7575 235.093 10.9644 235.37 10.922C235.601 10.8871 235.843 10.8797 236.07 10.8348C236.28 10.7949 236.397 10.8847 236.543 10.952C236.592 10.9744 236.646 11.0218 236.688 11.0193C236.983 10.9919 237.278 10.9644 237.566 10.9171C237.701 10.8971 237.783 10.9121 237.889 10.9719C238.145 11.1165 238.152 11.109 238.533 11.0642C238.81 11.0293 238.813 11.0342 239.169 11.1863C239.268 11.2287 239.375 11.2287 239.503 11.2088C239.67 11.1838 239.844 11.1439 240.018 11.1813C240.071 11.1913 240.139 11.2212 240.157 11.2536C240.167 11.2761 240.118 11.3309 240.075 11.3484C239.762 11.478 239.396 11.4556 239.055 11.5079C238.948 11.5229 238.842 11.4755 238.753 11.4082C238.661 11.3409 238.561 11.3135 238.44 11.326C238.206 11.3534 237.968 11.3708 237.737 11.4107C237.538 11.4456 237.399 11.3883 237.26 11.311C237.214 11.286 237.161 11.2387 237.115 11.2412C236.589 11.291 236.059 11.3409 235.537 11.4107C235.327 11.4406 235.207 11.3609 235.064 11.2935C235.015 11.2711 234.965 11.2237 234.919 11.2262C234.741 11.2362 234.567 11.2636 234.389 11.2836C233.743 11.3584 233.099 11.4331 232.453 11.503C232.41 11.5079 232.357 11.4556 232.307 11.4331C232.211 11.3883 232.112 11.3459 232.012 11.3035C231.834 11.3234 231.66 11.3484 231.483 11.3633C231.355 11.3733 231.241 11.4082 231.223 11.503C231.212 11.5653 231.33 11.6226 231.454 11.6176C231.575 11.6126 231.696 11.5827 231.795 11.6151C232.289 11.7747 232.289 11.7772 232.598 11.7448C232.868 11.7149 232.84 11.6899 233.078 11.827C233.181 11.8869 233.274 11.9218 233.391 11.9068C233.682 11.8719 233.977 11.837 234.272 11.8071C234.318 11.8021 234.379 11.8271 234.425 11.847C234.773 11.9966 234.773 12.0016 235.061 11.9642C235.438 11.9193 235.452 11.9068 235.704 12.0589C235.878 12.1636 236.038 12.0913 236.205 12.0863C236.397 12.1836 236.607 12.2708 236.781 12.3805C236.987 12.5102 237.204 12.4877 237.438 12.4503C237.612 12.4229 237.783 12.4129 237.925 12.5151C238.06 12.6099 238.223 12.6199 238.408 12.5949C238.575 12.5725 238.746 12.5251 238.92 12.58C238.966 12.5949 239.037 12.6323 239.034 12.6548C239.03 12.6897 238.984 12.7395 238.938 12.7545C238.611 12.8567 238.252 12.8542 237.907 12.9016C237.861 12.9091 237.801 12.8816 237.754 12.8617C237.655 12.8168 237.559 12.7645 237.463 12.7171C237.289 12.732 237.111 12.737 236.941 12.7669C236.809 12.7894 236.71 12.7869 236.614 12.7271C236.525 12.6722 236.429 12.6049 236.322 12.5874C236.216 12.57 236.091 12.6074 235.974 12.6223C235.857 12.6373 235.722 12.6298 235.629 12.6697C235.537 12.7096 235.48 12.7969 235.42 12.8667C235.352 12.944 235.26 12.9689 235.125 12.9764C235 12.9839 234.901 12.9739 234.809 12.9041C234.77 12.8742 234.716 12.8517 234.663 12.8318C234.613 12.8143 234.556 12.7869 234.51 12.7919C233.981 12.8492 233.455 12.9116 232.925 12.9714C232.662 13.0013 232.666 13.0013 232.119 12.8542C232.069 12.8417 232.008 12.8243 231.959 12.8293C231.664 12.8592 231.372 12.8941 231.077 12.929C230.779 12.9639 230.783 12.9589 230.274 12.8018C230.182 12.7719 230.047 12.8118 229.937 12.8068C229.706 12.7944 229.592 12.585 229.322 12.6248C229.091 12.6597 228.849 12.6672 228.618 12.7121C228.409 12.752 228.288 12.6647 228.146 12.5974C228.096 12.575 228.043 12.5251 228 12.5301C227.471 12.585 226.945 12.6473 226.241 12.6548C226.067 12.6548 226.145 12.7071 226.259 12.7246C226.422 12.752 226.476 12.6996 226.387 12.5999C226.323 12.5301 226.231 12.4952 226.156 12.5126C226.117 12.5226 226.067 12.57 226.241 12.6548C226.426 12.7495 226.415 12.8018 226.447 12.8318C226.526 12.9041 226.636 12.934 226.749 12.924C226.927 12.9066 227.101 12.8816 227.279 12.8667C227.329 12.8617 227.389 12.8791 227.435 12.8991C227.826 13.0536 227.83 13.0636 228.245 13.0038C228.377 12.9863 228.473 12.9863 228.576 13.0337C228.718 13.0985 228.821 13.2082 229.038 13.1733C229.326 13.1259 229.621 13.0985 229.916 13.0711C229.962 13.0661 230.011 13.111 230.065 13.1309C230.21 13.1908 230.317 13.303 230.534 13.2556C230.701 13.2182 230.882 13.2082 231.06 13.2007C231.106 13.1982 231.177 13.2381 231.198 13.2705C231.241 13.3279 231.188 13.3952 231.067 13.4426C231.017 13.4625 230.95 13.4575 230.893 13.465C230.658 13.4924 230.424 13.5223 230.189 13.5448C230.065 13.5572 229.948 13.5947 229.933 13.6869C229.923 13.7492 230.051 13.8041 230.171 13.7991C230.349 13.7916 230.527 13.7717 230.697 13.7392C230.999 13.6844 231.262 13.6994 231.507 13.8564C231.682 13.9661 231.671 13.9262 231.856 14.2503C231.902 14.3326 232.04 14.3401 232.161 14.3351C232.453 14.3226 232.588 14.36 232.563 14.4373C232.531 14.5321 232.428 14.562 232.296 14.5744C232.062 14.5944 231.827 14.6268 231.593 14.6542C231.536 14.6617 231.472 14.6767 231.419 14.6717C231.365 14.6667 231.316 14.6368 231.269 14.6143C231.17 14.567 231.085 14.4946 230.978 14.4772C230.871 14.4597 230.747 14.4971 230.63 14.5121C230.512 14.5246 230.388 14.562 230.282 14.5445C230.175 14.5271 230.086 14.4523 229.99 14.4074C229.944 14.385 229.887 14.35 229.841 14.3525C229.606 14.3725 229.372 14.4049 229.137 14.4298C228.849 14.4623 228.849 14.4623 228.501 14.3077C228.402 14.2628 228.299 14.2653 228.167 14.2853C227.883 14.3251 227.879 14.3176 227.361 14.173C227.311 14.1581 227.25 14.1406 227.201 14.1481C226.671 14.2055 226.145 14.2678 225.619 14.3276C225.168 14.38 225.168 14.38 224.919 14.6293C224.735 14.8138 224.731 14.8138 224.912 14.8985C225.058 14.9684 225.189 15.0706 225.349 15.108C225.499 15.1429 225.683 15.0307 225.847 15.1454C225.929 15.2027 226.035 15.265 226.138 15.275C226.302 15.2875 226.476 15.2152 226.632 15.3249C226.71 15.3797 226.828 15.4371 226.927 15.4396C227.101 15.4445 227.279 15.4046 227.453 15.3872C227.506 15.3822 227.567 15.3822 227.616 15.3947C227.67 15.4096 227.716 15.4396 227.762 15.4645C227.904 15.5492 228.057 15.5891 228.242 15.5467C228.544 15.4769 228.814 15.5118 229.048 15.6714C229.08 15.6938 229.159 15.6963 229.208 15.6864C229.336 15.6614 229.446 15.6589 229.542 15.7063C229.581 15.7262 229.638 15.7611 229.631 15.7836C229.621 15.821 229.578 15.8708 229.532 15.8833C229.198 15.9681 228.839 15.9781 228.494 16.0229C228.448 16.0279 228.391 15.9955 228.345 15.9731C228.245 15.9282 228.16 15.8534 228.053 15.8359C227.947 15.8185 227.823 15.8509 227.705 15.8634C227.588 15.8758 227.464 15.9132 227.357 15.8983C227.25 15.8808 227.151 15.8185 227.066 15.7636C226.966 15.7013 226.87 15.6939 226.739 15.7188C226.568 15.7512 226.391 15.7562 226.216 15.7736C226.12 15.7263 226.024 15.6739 225.925 15.629C225.879 15.6066 225.822 15.5792 225.772 15.5816C225.538 15.6016 225.303 15.6315 225.069 15.6589C224.834 15.6863 224.834 15.6864 224.436 15.5318C224.39 15.5143 224.329 15.4944 224.28 15.4994C223.985 15.5293 223.693 15.5667 223.398 15.5966C223.285 15.6091 223.182 15.5742 223.089 15.5068C223.001 15.4395 222.894 15.4021 222.784 15.4146C222.315 15.467 221.846 15.5168 221.377 15.5792C221.188 15.6041 221.028 15.5817 220.9 15.4919C220.751 15.3897 220.584 15.4146 220.41 15.4346C220.016 15.4844 220.012 15.4819 219.76 15.3548C219.71 15.3298 219.66 15.2825 219.614 15.285C219.205 15.3224 218.793 15.3573 218.388 15.4171C218.175 15.4495 218.061 15.3623 217.919 15.2974C217.869 15.275 217.816 15.2276 217.773 15.2326C217.478 15.26 217.183 15.285 216.896 15.3348C216.608 15.3847 216.498 15.1528 216.281 15.1553C215.986 15.1578 215.695 15.2152 215.403 15.2501C215.169 15.2775 214.934 15.3049 214.7 15.3323C214.465 15.3598 214.231 15.3822 213.996 15.4146C213.872 15.4321 213.779 15.4096 213.676 15.3473C213.545 15.265 213.388 15.2002 213.246 15.1254C213.03 15.0182 213.029 15.0182 212.767 15.0481C212.71 15.0556 212.649 15.0606 212.592 15.0681C212.162 15.1229 212.162 15.1179 211.615 14.9609C211.59 14.9534 211.526 14.9808 211.501 15.0008C211.427 15.0656 211.359 15.1354 211.292 15.2027C211.196 15.1628 211.079 15.1404 211.015 15.083C210.833 14.921 210.549 15.1429 210.364 14.9833C210.297 14.9235 210.18 14.8711 210.073 14.8562C209.963 14.8412 209.838 14.8761 209.725 14.8911C209.43 14.9285 209.43 14.926 209.178 15.1479C209.05 15.2575 208.865 15.2376 208.698 15.2625C208.524 15.29 208.357 15.3049 208.211 15.2027C208.08 15.1104 207.92 15.088 207.731 15.1179C207.5 15.1553 207.262 15.1778 207.028 15.2002C206.978 15.2052 206.918 15.1927 206.868 15.1778C206.324 15.0307 206.324 15.0282 206.061 15.0606C205.944 15.0756 205.823 15.0805 205.709 15.103C205.517 15.1429 205.372 15.0905 205.233 15.0107C205.187 14.9858 205.134 14.9384 205.087 14.9409C204.853 14.9534 204.622 14.9758 204.391 14.9983C204.213 15.0157 204.036 15.0257 203.865 15.0606C203.581 15.1179 203.442 14.9559 203.247 14.8811C202.955 14.9135 202.661 14.9359 202.369 14.9808C202.234 15.0007 202.145 14.9933 202.042 14.9335C201.911 14.8587 201.79 14.7739 201.577 14.8113C201.292 14.8612 200.994 14.8786 200.703 14.9085C200.507 14.8312 200.365 14.6742 200.084 14.7315C199.914 14.7664 199.732 14.7739 199.558 14.7938C199.324 14.8212 199.089 14.8462 198.855 14.8761C198.603 14.906 198.606 14.8986 198.219 14.7515C197.995 14.6642 197.764 14.7614 197.536 14.7764C197.359 14.7889 197.27 14.9035 197.313 15.0506C197.355 15.1977 197.259 15.3124 197.096 15.3323C196.687 15.3797 196.275 15.4296 195.866 15.4719C195.817 15.4769 195.756 15.4595 195.71 15.442C195.273 15.285 195.273 15.2875 195.077 15.3099C194.786 15.3473 194.488 15.3672 194.2 15.4146C194.001 15.447 193.855 15.3947 193.727 15.3099C193.628 15.2451 193.535 15.2301 193.407 15.2451C192 15.4121 190.593 15.5667 189.189 15.7387C188.98 15.7636 188.859 15.6914 188.717 15.624C188.667 15.6016 188.621 15.5542 188.571 15.5542C188.454 15.5542 188.337 15.5767 188.219 15.5916C187.693 15.6515 187.167 15.7238 186.638 15.7686C186.414 15.7886 186.354 15.9033 186.258 15.998C186.183 16.0703 186.098 16.1002 185.966 16.1102C185.839 16.1202 185.746 16.1077 185.647 16.0429C185.519 15.9581 185.373 15.9057 185.174 15.9406C184.943 15.9805 184.708 15.998 184.47 16.0254C184.35 16.0379 184.257 16.0828 184.218 16.1725C184.211 16.1875 184.286 16.2249 184.328 16.2473C184.47 16.3221 184.605 16.4094 184.765 16.4617C184.929 16.5141 185.106 16.4542 185.277 16.4393C185.337 16.4343 185.394 16.4193 185.451 16.4218C185.504 16.4243 185.568 16.4368 185.608 16.4592C185.792 16.5714 185.988 16.6487 186.244 16.5814C186.464 16.6138 186.578 16.8207 186.858 16.7659C187.029 16.7335 187.207 16.7185 187.384 16.706C187.43 16.7035 187.48 16.7484 187.53 16.7709C187.672 16.8332 187.786 16.9329 187.999 16.8905C188.226 16.8456 188.468 16.8382 188.699 16.8033C188.827 16.7833 188.919 16.8008 189.019 16.8656C189.147 16.9479 189.292 17.0102 189.491 16.9703C189.662 16.9354 189.843 16.9279 190.017 16.9055C190.245 16.878 190.245 16.8805 190.65 17.0351C190.696 17.0526 190.756 17.0725 190.806 17.0675C191.101 17.0376 191.393 17.0002 191.687 16.9703C191.801 16.9578 191.911 16.9902 191.99 17.0625C192.021 17.0924 192.011 17.1423 192.021 17.1847C191.435 17.252 190.849 17.3094 190.266 17.3916C190.046 17.424 189.946 17.3218 189.801 17.2645C189.751 17.2445 189.698 17.2022 189.651 17.2071C189.239 17.2495 188.83 17.2944 188.422 17.3492C188.294 17.3667 188.198 17.3567 188.102 17.2844C187.857 17.0925 187.558 17.1972 187.281 17.2246C187.068 17.2445 187 17.3218 187.025 17.4864C187.057 17.6808 187.185 17.7407 187.512 17.7058C187.629 17.6933 187.747 17.6758 187.864 17.6659C187.978 17.6559 188.081 17.6883 188.173 17.7556C188.262 17.8229 188.368 17.8578 188.479 17.8479C188.713 17.8254 188.951 17.803 189.179 17.7656C189.367 17.7357 189.523 17.7606 189.655 17.8529C189.801 17.9551 189.971 17.9326 190.142 17.9102C190.54 17.8603 190.543 17.8628 190.792 17.9875C190.842 18.0124 190.892 18.0598 190.938 18.0573C191.346 18.0199 191.759 17.9875 192.16 17.9277C192.37 17.8977 192.491 17.9775 192.629 18.0423C192.679 18.0648 192.729 18.1146 192.775 18.1096C193.07 18.0822 193.365 18.0548 193.653 18.0074C193.788 17.985 193.869 17.9999 193.979 18.0598C194.242 18.2069 194.249 18.2019 194.623 18.1545C194.736 18.1395 194.861 18.1121 194.967 18.1321C195.074 18.152 195.159 18.2243 195.259 18.2692C195.305 18.2892 195.362 18.3166 195.411 18.3116C195.646 18.2916 195.88 18.2617 196.115 18.2343C196.335 18.2069 196.335 18.2094 196.748 18.3639C196.915 18.4288 197.089 18.3739 197.256 18.354C197.437 18.3315 197.6 18.3315 197.739 18.4288C197.878 18.526 198.045 18.521 198.222 18.5011C198.389 18.4811 198.56 18.4263 198.73 18.4936C199.121 18.6482 199.121 18.6506 199.363 18.6207C199.715 18.5783 200.063 18.5384 200.418 18.5011C200.464 18.4961 200.525 18.526 200.571 18.5459C200.671 18.5908 200.756 18.6656 200.862 18.683C200.969 18.703 201.093 18.6731 201.207 18.6581C201.573 18.6107 201.598 18.5933 201.843 18.7578C202.049 18.8925 202.305 18.698 202.497 18.8526C202.607 18.9398 202.756 19.0096 202.963 18.9673C203.133 18.9324 203.311 18.9224 203.488 18.9024C203.769 18.87 203.769 18.8725 204.125 19.0221C204.171 19.0421 204.231 19.067 204.277 19.062C204.512 19.0421 204.75 19.0246 204.977 18.9797C205.244 18.9274 205.414 19.0221 205.613 19.1144C205.77 19.1867 205.955 19.1268 206.122 19.1019C206.303 19.077 206.466 19.0844 206.601 19.1817C206.743 19.2814 206.91 19.2689 207.088 19.249C207.255 19.2315 207.426 19.1742 207.596 19.244C207.962 19.3986 207.962 19.3986 208.229 19.3686C208.463 19.3412 208.698 19.3113 208.932 19.2914C208.979 19.2864 209.035 19.3188 209.082 19.3412C209.181 19.3861 209.266 19.4609 209.373 19.4784C209.48 19.4958 209.604 19.4634 209.721 19.4509C209.838 19.4385 209.963 19.4011 210.069 19.416C210.176 19.431 210.276 19.4933 210.361 19.5482C210.46 19.613 210.553 19.6205 210.688 19.5955C210.858 19.5631 211.036 19.5556 211.21 19.5382C211.306 19.5856 211.406 19.6329 211.498 19.6853C211.594 19.7401 211.697 19.7351 211.828 19.7177C212.265 19.6578 212.269 19.6653 212.635 19.8199C212.802 19.8897 212.976 19.8324 213.143 19.8149C213.321 19.795 213.488 19.785 213.626 19.8847C213.761 19.9795 213.929 19.9919 214.106 19.962C214.22 19.9421 214.341 19.9296 214.458 19.9221C214.511 19.9196 214.575 19.9296 214.614 19.9496C214.803 20.0543 214.987 20.149 215.247 20.0817C215.474 20.1016 215.588 20.3061 215.862 20.2662C216.093 20.2313 216.334 20.2238 216.562 20.1789C216.771 20.139 216.921 20.2088 217.027 20.2961C217.219 20.4507 217.489 20.2413 217.681 20.3933C217.791 20.4806 217.933 20.5504 218.146 20.513C218.381 20.4731 218.456 20.5254 218.523 20.6825C218.562 20.7723 218.555 20.8446 218.484 20.9144C218.413 20.9867 218.335 20.9742 218.221 20.892C218.09 20.7997 217.933 20.7822 217.745 20.8022C217.56 20.8221 217.446 20.6925 217.294 20.6426C217.141 20.5903 216.96 20.6775 216.8 20.6102C216.423 20.4532 216.423 20.4532 216.167 20.4831C215.993 20.503 215.812 20.513 215.641 20.5479C215.439 20.5903 215.307 20.513 215.169 20.4432C215.119 20.4183 215.069 20.3709 215.026 20.3734C214.618 20.4108 214.206 20.4457 213.801 20.508C213.587 20.5404 213.474 20.4507 213.332 20.3883C213.282 20.3659 213.228 20.321 213.186 20.326C212.834 20.3609 212.486 20.4058 212.134 20.4482C212.066 20.5155 211.992 20.5803 211.928 20.6526C211.86 20.7274 211.768 20.7598 211.633 20.7573C211.409 20.7573 211.189 20.862 210.965 20.7299C210.734 20.5953 210.716 20.6027 210.492 20.6352C210.208 20.6775 209.906 20.6676 209.639 20.7648C209.593 20.7823 209.544 20.8296 209.544 20.8645C209.54 20.8869 209.615 20.9194 209.661 20.9393C209.817 20.9991 209.998 20.9119 210.155 20.9742C210.258 21.0141 210.343 21.0739 210.446 21.1163C210.489 21.1338 210.553 21.1313 210.61 21.1288C210.67 21.1263 210.727 21.1089 210.784 21.1113C210.837 21.1138 210.894 21.1288 210.937 21.1512C211.132 21.2459 211.338 21.3332 211.512 21.4454C211.683 21.5551 211.843 21.4803 212.013 21.4753C212.695 21.6498 212.696 21.6523 213.154 21.5975C213.268 21.585 213.385 21.5701 213.502 21.5726C213.552 21.5726 213.598 21.6174 213.648 21.6423C213.79 21.7171 213.925 21.7845 214.124 21.7446C214.295 21.7097 214.476 21.7022 214.65 21.6797C214.884 21.6523 214.884 21.6523 215.282 21.8094C215.382 21.8493 215.488 21.8443 215.616 21.8244C215.727 21.8069 215.84 21.8443 215.918 21.9166C215.95 21.9465 215.94 21.9964 215.95 22.0388C215.599 22.0787 215.243 22.1061 214.902 22.1659C214.682 22.2033 214.582 22.0961 214.437 22.0388C214.387 22.0188 214.334 21.9764 214.287 21.9814C213.939 22.0188 213.591 22.0612 213.243 22.111C213.2 22.116 213.147 22.1734 213.143 22.2083C213.136 22.2731 213.225 22.3354 213.353 22.3329C213.523 22.3304 213.69 22.2881 213.843 22.3903C213.971 22.48 214.131 22.5199 214.319 22.48C214.433 22.4576 214.554 22.4576 214.668 22.4377C214.97 22.3778 215.243 22.3903 215.471 22.5598C215.645 22.6047 215.815 22.5623 215.982 22.5399C216.107 22.5224 216.228 22.505 216.316 22.5523C216.505 22.6521 216.69 22.7518 216.949 22.6845C217.23 22.7543 217.443 22.9014 217.677 23.021C217.788 23.0784 217.873 23.1108 218.001 23.0734C218.054 23.0584 218.118 23.0584 218.175 23.0509C218.292 23.0385 218.417 23.0011 218.523 23.016C218.63 23.0335 218.719 23.1058 218.815 23.1507C218.861 23.1731 218.914 23.2105 218.96 23.208C219.138 23.1955 219.312 23.1706 219.486 23.1507C219.66 23.1332 219.834 23.1158 220.008 23.0983C220.154 23.1632 220.303 23.228 220.449 23.2928C220.684 23.2654 220.918 23.2379 221.149 23.213C221.409 23.1831 221.408 23.1856 221.782 23.3402C221.949 23.41 222.126 23.3651 222.286 23.3327C222.553 23.2803 222.73 23.3751 222.919 23.4748C222.958 23.4947 223.029 23.5072 223.075 23.4972C223.26 23.4623 223.42 23.4897 223.555 23.582C223.651 23.6468 223.747 23.6767 223.864 23.6643C224.273 23.6169 224.681 23.567 225.09 23.5246C225.14 23.5197 225.196 23.5421 225.243 23.562C225.605 23.7141 225.609 23.7216 225.875 23.6817C226.113 23.6468 226.334 23.6318 226.522 23.769C226.561 23.7989 226.621 23.8413 226.664 23.8388C226.955 23.8138 227.25 23.7864 227.538 23.744C227.67 23.7241 227.762 23.7316 227.865 23.7889C227.997 23.8612 228.114 23.9485 228.331 23.9161C228.931 23.8238 228.935 23.8388 229.645 24.0108C229.695 24.0232 229.763 24.0033 229.82 23.9933C229.94 23.9684 230.029 24.0033 230.136 24.0607C230.374 24.1903 230.381 24.1828 230.608 24.1554C230.783 24.133 230.964 24.128 231.134 24.0906C231.397 24.0357 231.571 24.133 231.767 24.2252C231.923 24.2975 232.104 24.2377 232.271 24.2152C232.453 24.1903 232.616 24.1978 232.751 24.2925C232.844 24.3573 232.943 24.3923 233.06 24.3798C233.469 24.3349 233.878 24.285 234.286 24.2402C234.336 24.2352 234.396 24.2551 234.443 24.2726C234.848 24.4271 234.848 24.4346 235.249 24.3773C235.377 24.3598 235.484 24.3549 235.58 24.4072C235.672 24.4571 235.772 24.5044 235.868 24.5518C236.042 24.5343 236.219 24.5294 236.39 24.4994C236.521 24.477 236.614 24.487 236.717 24.5393C236.852 24.6067 236.966 24.7238 237.179 24.6665C237.289 24.639 237.417 24.6465 237.527 24.6216C237.658 24.5892 237.747 24.6091 237.85 24.674C237.978 24.7512 238.11 24.831 238.316 24.7911C238.543 24.7462 238.785 24.7388 239.016 24.7039C239.144 24.6839 239.233 24.7039 239.336 24.7687C239.464 24.851 239.609 24.9033 239.808 24.8709C240.213 24.8086 240.217 24.821 240.611 24.9781C240.711 25.018 240.818 25.013 240.945 24.9931C241.056 24.9756 241.169 25.013 241.247 25.0853C241.322 25.1651 241.315 25.2149 241.322 25.2573ZM209.657 2.77213C209.54 2.7846 209.423 2.79955 209.252 2.58265C209.241 2.54526 209.249 2.50039 209.224 2.46798C209.167 2.40067 209.078 2.3533 208.971 2.34582C208.78 2.33585 208.549 2.4206 208.552 2.48542C208.556 2.54027 208.616 2.58763 208.733 2.6325C208.783 2.64996 208.822 2.67988 208.868 2.69982C209.003 2.75716 209.11 2.86937 209.305 2.81203C209.27 2.65746 209.288 2.73474 209.305 2.81203C209.288 2.90677 209.341 2.97408 209.469 3.00151C209.504 3.00899 209.558 3.00399 209.586 2.98903C209.696 2.93418 209.714 2.85941 209.632 2.66245C209.618 2.69486 209.629 2.75218 209.661 2.76714C209.693 2.7821 209.771 2.76965 209.81 2.7522C209.91 2.70483 209.959 2.6425 209.934 2.59014C209.92 2.56272 209.853 2.52781 209.81 2.52781C209.735 2.52781 209.668 2.58266 209.657 2.77213ZM238.39 31.6845C238.131 31.7319 237.833 31.7145 237.573 31.8117C237.527 31.8291 237.481 31.874 237.477 31.9089C237.474 31.9314 237.545 31.9638 237.587 31.9812C237.683 32.0211 237.79 32.0086 237.914 31.9962C238.103 31.9787 238.213 32.0934 238.359 32.1507C238.405 32.1682 238.465 32.1807 238.515 32.1757C238.803 32.1457 239.087 32.1134 239.375 32.0785C239.424 32.071 239.478 32.0535 239.521 32.0311C239.663 31.9588 239.648 31.9114 239.51 31.8566C239.357 31.7967 239.236 31.697 239.08 31.6496C238.856 31.5823 238.629 31.6721 238.39 31.6845ZM218.21 33.5045C218.036 33.5244 217.866 33.5444 217.692 33.5643C217.635 33.5718 217.574 33.5743 217.521 33.5843C217.411 33.6017 217.329 33.6541 217.276 33.7363C217.358 33.8012 217.457 33.8386 217.567 33.8311C217.741 33.8161 217.912 33.7837 218.086 33.7762C218.274 33.7663 218.385 33.8785 218.53 33.9358C218.576 33.9533 218.633 33.9557 218.687 33.9582C218.95 33.9682 219.109 33.8386 219.06 33.6566C219.024 33.5145 218.889 33.4297 218.726 33.4472C218.555 33.4646 218.381 33.4846 218.21 33.5045ZM239.606 27.9997C239.648 27.9573 239.695 27.9274 239.716 27.8901C239.78 27.7629 239.755 27.6682 239.638 27.5684C239.496 27.4463 239.322 27.5285 239.162 27.541C239.123 27.5435 239.08 27.5959 239.059 27.6283C239.044 27.6507 239.044 27.6981 239.066 27.7106C239.24 27.8103 239.425 27.9025 239.606 27.9997ZM208.78 20.6352C208.609 20.6551 208.435 20.6701 208.264 20.6975C208.222 20.705 208.183 20.7523 208.158 20.7847C208.112 20.8446 208.161 20.9268 208.307 20.9343C208.474 20.9443 208.648 20.9019 208.822 20.882C209.042 20.857 209.174 20.7648 209.092 20.685C209.014 20.6077 208.908 20.5928 208.78 20.6352ZM21.7293 15.3074C21.843 15.2949 21.9603 15.285 22.074 15.2675C22.1806 15.2501 22.2624 15.1952 22.3157 15.1129C22.2269 15.0481 22.1273 15.0132 22.0172 15.0207C21.8431 15.0357 21.6725 15.0556 21.5019 15.0805C21.3953 15.0955 21.2923 15.1503 21.2675 15.2351C21.2426 15.2999 21.4806 15.3373 21.7293 15.3074ZM193.752 14.9235C193.798 14.9459 193.844 14.9908 193.891 14.9908C194.004 14.9908 194.122 14.9758 194.228 14.9509C194.274 14.9409 194.31 14.896 194.331 14.8611C194.345 14.8387 194.342 14.7988 194.321 14.7789C194.218 14.6592 193.805 14.7016 193.738 14.8387C193.731 14.8636 193.748 14.896 193.752 14.9235ZM182.541 1.27129C182.552 1.31117 182.555 1.35106 182.569 1.39095C182.598 1.46574 182.676 1.5206 182.79 1.558C182.878 1.49567 182.925 1.42587 182.921 1.35108C182.918 1.31119 182.907 1.27128 182.893 1.23139C182.864 1.15659 182.786 1.10177 182.672 1.06437C182.584 1.1242 182.541 1.194 182.541 1.27129ZM247.818 33.9383C247.786 33.9707 247.754 34.0031 247.718 34.033C247.814 34.1053 247.903 34.1278 247.971 34.0879C248.013 34.0629 248.038 34.0256 248.07 33.9931C247.974 33.9208 247.889 33.9009 247.818 33.9383ZM245.608 34.2774C245.654 34.2998 245.696 34.3297 245.746 34.3447C245.828 34.3696 245.902 34.3272 245.959 34.2375C245.913 34.215 245.871 34.1851 245.821 34.1701C245.739 34.1452 245.664 34.1876 245.608 34.2774ZM247.008 33.8211C246.983 33.881 247.033 33.9308 247.164 33.9732C247.196 33.9408 247.239 33.9109 247.26 33.876C247.295 33.8186 247.235 33.7663 247.107 33.7264C247.072 33.7563 247.04 33.7887 247.008 33.8211ZM239.506 31.1336C239.481 31.1934 239.531 31.2433 239.663 31.2856C239.695 31.2532 239.737 31.2233 239.759 31.1884C239.794 31.1311 239.734 31.0787 239.606 31.0388C239.57 31.0687 239.538 31.1012 239.506 31.1336ZM229.287 13.4924C229.255 13.5248 229.223 13.5573 229.187 13.5872C229.283 13.6595 229.372 13.6819 229.439 13.642C229.482 13.6171 229.507 13.5797 229.539 13.5473C229.443 13.475 229.358 13.455 229.287 13.4924ZM219.497 4.13335C219.582 4.1508 219.653 4.11591 219.714 4.02367C219.667 4.00123 219.625 3.97131 219.575 3.95635C219.493 3.93142 219.419 3.97382 219.362 4.06357C219.408 4.0885 219.454 4.11091 219.497 4.13335ZM214.298 3.54748C214.266 3.57989 214.234 3.6123 214.199 3.64222C214.295 3.71452 214.383 3.73695 214.451 3.69706C214.494 3.67213 214.518 3.63473 214.55 3.60232C214.454 3.53002 214.369 3.51258 214.298 3.54748ZM179.044 1.26879C179.012 1.3012 178.98 1.33361 178.945 1.36353C179.041 1.43583 179.13 1.45826 179.197 1.41837C179.24 1.39344 179.265 1.35604 179.297 1.32363C179.201 1.25133 179.115 1.23389 179.044 1.26879ZM3.50721 21.5526C3.46102 21.5302 3.41486 21.5077 3.37222 21.4828C3.26917 21.5501 3.2372 21.6124 3.29406 21.6598C3.32959 21.6897 3.38285 21.7072 3.42905 21.7296C3.53565 21.6623 3.56051 21.6025 3.50721 21.5526Z" fill="#FFE492"/>
<path d="M24.1169 12.7494C23.7082 12.7968 23.3031 12.8566 22.8945 12.8865C22.6777 12.9015 22.5996 13.0087 22.5108 13.1084C22.4397 13.1882 22.358 13.2131 22.2265 13.2281C21.1178 13.3502 20.0127 13.4799 18.9075 13.607C18.7689 13.5746 18.7014 13.5223 18.7334 13.4599C18.7512 13.4225 18.7938 13.3702 18.8365 13.3652C19.5934 13.2729 20.3467 13.1782 21.1071 13.1059C21.3239 13.086 21.3843 12.9763 21.4945 12.8865C21.53 12.8566 21.5584 12.8117 21.6046 12.7943C21.6508 12.7743 21.7183 12.7768 21.7788 12.7718C23.0011 12.6297 24.2236 12.4901 25.4459 12.348C25.5845 12.3804 25.652 12.4328 25.6201 12.4951C25.6023 12.5325 25.5596 12.5849 25.517 12.5898C25.0479 12.6422 24.5824 12.6946 24.1169 12.7494Z" fill="#FFE492"/>
<path d="M247.864 26.0252C247.679 26.0551 247.445 26.0975 247.253 25.9529C247.161 25.883 247.061 25.8606 246.94 25.8756C246.766 25.9005 246.589 25.9205 246.411 25.9354C246.365 25.9379 246.304 25.9105 246.258 25.888C246.159 25.8432 246.073 25.7684 245.967 25.7484C245.86 25.7285 245.732 25.7833 245.622 25.7709C245.476 25.7534 245.416 25.6861 245.455 25.6238C245.476 25.5889 245.519 25.539 245.565 25.5315C246.223 25.4393 246.226 25.4393 246.411 25.529C246.553 25.5988 246.684 25.6761 246.887 25.6337C247.058 25.5988 247.239 25.5913 247.413 25.5689C247.655 25.539 247.655 25.5415 248.045 25.6986C248.145 25.7384 248.252 25.736 248.379 25.7135C248.49 25.6961 248.596 25.736 248.685 25.8033C248.628 25.888 248.546 25.9429 248.436 25.9578C248.259 25.9828 248.085 26.0002 247.864 26.0252Z" fill="#FFE492"/>
<path d="M241.322 25.2571C241.77 25.2047 242.221 25.1599 242.669 25.1C242.854 25.0751 243 25.1025 243.127 25.1873C243.266 25.2795 243.422 25.272 243.593 25.2546C243.7 25.2446 243.803 25.2845 243.874 25.3543C243.902 25.3817 243.895 25.4316 243.906 25.4715C243.515 25.5164 243.12 25.5637 242.726 25.6036C242.68 25.6086 242.623 25.5837 242.58 25.5637C242.484 25.5214 242.403 25.4466 242.299 25.4316C242.079 25.3967 241.859 25.464 241.635 25.4765C241.528 25.4814 241.425 25.4441 241.354 25.3768C241.326 25.3443 241.333 25.297 241.322 25.2571Z" fill="#FFE492"/>
<path d="M79.5163 3.82145C79.9818 3.7666 80.4473 3.71427 80.9128 3.65942C81.0514 3.69433 81.1153 3.74418 81.0869 3.80651C81.0691 3.8439 81.0265 3.89626 80.9838 3.90125C80.0528 4.01344 79.1219 4.12062 78.1944 4.22783C78.0558 4.19292 77.9919 4.14307 78.0203 4.08074C78.0381 4.04335 78.0807 3.99099 78.1234 3.986C78.5853 3.92866 79.0508 3.8763 79.5163 3.82145Z" fill="#FFE492"/>
<path d="M7.78586 17.6758C7.57621 17.6808 7.35594 17.773 7.12141 17.7032C7.07522 17.6907 7.01124 17.6508 7.01479 17.6284C7.0219 17.591 7.06455 17.5436 7.11074 17.5287C7.31329 17.4663 7.56561 17.4589 7.66866 17.2844C7.71841 17.1946 7.8108 17.1647 7.93517 17.1472C8.06664 17.1273 8.15901 17.1348 8.26206 17.1871C8.39709 17.2544 8.51081 17.3791 8.72402 17.3143C8.73468 17.3542 8.75949 17.399 8.74883 17.4364C8.73817 17.4738 8.69205 17.5087 8.64941 17.5362C8.61033 17.5611 8.55697 17.5835 8.50722 17.591C8.2727 17.6209 8.03816 17.6459 7.78586 17.6758Z" fill="#FFE492"/>
<path d="M192.594 17.1744C192.768 17.1544 192.949 17.1445 193.12 17.1096C193.255 17.0821 193.34 17.0996 193.447 17.1594C193.628 17.2641 193.638 17.2542 194.083 17.2691C194.132 17.2716 194.193 17.309 194.221 17.3414C194.239 17.3589 194.214 17.4063 194.193 17.4312C194.161 17.4636 194.115 17.506 194.072 17.506C193.791 17.5134 193.507 17.6605 193.233 17.491C193.095 17.4063 192.942 17.3663 192.754 17.4037C192.64 17.4262 192.519 17.4362 192.402 17.4461C192.288 17.4561 192.171 17.4287 192.1 17.3539C191.997 17.2442 192.057 17.2018 192.242 17.2093C192.359 17.2143 192.476 17.1869 192.594 17.1744Z" fill="#FFE492"/>
<path d="M256.996 34.3603C257.22 34.3354 257.444 34.3055 257.671 34.2855C257.717 34.2805 257.774 34.308 257.817 34.3254C257.988 34.4002 257.963 34.5273 257.97 34.6395C257.973 34.7567 257.579 34.8514 257.412 34.7716C257.227 34.6819 257.06 34.5797 256.804 34.6345C256.705 34.6545 256.588 34.6096 256.524 34.5373C256.428 34.4326 256.481 34.3902 256.662 34.3977C256.769 34.4027 256.882 34.3752 256.996 34.3603Z" fill="#FFE492"/>
<path d="M144.182 0.42646C144.413 0.399036 144.644 0.356674 144.875 0.354181C145.01 0.351688 145.077 0.433945 145.045 0.493779C145.027 0.531175 144.985 0.583531 144.942 0.588518C144.48 0.648352 144.018 0.698222 143.556 0.75307C143.421 0.718167 143.354 0.66582 143.386 0.605986C143.404 0.56859 143.446 0.518727 143.489 0.511247C143.72 0.476344 143.951 0.453884 144.182 0.42646Z" fill="#FFE492"/>
<path d="M252.565 26.2443C252.789 26.2194 253.016 26.182 253.24 26.1695C253.357 26.1645 253.45 26.2218 253.464 26.2867C253.471 26.3166 253.414 26.3689 253.368 26.3814C253.048 26.4662 252.703 26.4761 252.369 26.5185C252.263 26.531 252.149 26.4911 252.085 26.4213C251.989 26.3141 252.042 26.2742 252.224 26.2817C252.337 26.2842 252.451 26.2568 252.565 26.2443Z" fill="#FFE492"/>
<path d="M198.464 17.5116C198.578 17.4992 198.695 17.4668 198.805 17.4767C198.922 17.4892 198.997 17.5615 199.033 17.6338C199.072 17.7161 199.068 17.7934 199.033 17.8632C198.976 17.9828 198.919 17.9779 198.787 17.8981C198.585 17.7734 198.571 17.7884 198.169 17.7934C198.123 17.7934 198.066 17.756 198.03 17.7235C197.977 17.6737 198.006 17.5964 198.13 17.5515C198.222 17.5191 198.35 17.5241 198.464 17.5116Z" fill="#FFE492"/>
<path d="M244.24 25.4266C244.407 25.4066 244.574 25.3742 244.741 25.3742C244.858 25.3717 244.951 25.4291 244.961 25.4914C244.965 25.5213 244.912 25.5712 244.869 25.5861C244.666 25.6534 244.439 25.6584 244.219 25.6809C244.116 25.6908 244.002 25.6509 243.938 25.5811C243.842 25.4764 243.899 25.429 244.073 25.444C244.126 25.449 244.183 25.434 244.24 25.4266Z" fill="#FFE492"/>
<path d="M217.955 22.368C217.706 22.3979 217.471 22.3606 217.489 22.2957C217.514 22.211 217.617 22.1561 217.724 22.1411C217.894 22.1162 218.065 22.0963 218.239 22.0813C218.349 22.0713 218.449 22.1087 218.537 22.1736C218.484 22.2533 218.402 22.3107 218.296 22.3281C218.186 22.3456 218.068 22.3556 217.955 22.368Z" fill="#FFE492"/>
<path d="M216.324 22.049C216.491 22.0291 216.658 21.9967 216.825 21.9967C216.942 21.9942 217.035 22.0515 217.045 22.1138C217.049 22.1437 216.996 22.1936 216.953 22.2086C216.75 22.2759 216.523 22.2809 216.303 22.3033C216.2 22.3133 216.086 22.2734 216.022 22.2036C215.926 22.0989 215.983 22.0515 216.157 22.0665C216.21 22.0715 216.267 22.0565 216.324 22.049Z" fill="#FFE492"/>
<path d="M196.449 17.4914C196.616 17.4714 196.783 17.439 196.95 17.4365C197.067 17.434 197.16 17.4914 197.17 17.5537C197.174 17.5836 197.121 17.631 197.078 17.6484C196.875 17.7157 196.648 17.7207 196.428 17.7432C196.325 17.7531 196.211 17.7132 196.147 17.6434C196.051 17.5387 196.108 17.4913 196.282 17.5063C196.335 17.5113 196.392 17.4963 196.449 17.4914Z" fill="#FFE492"/>
<path d="M195.514 17.3443C195.692 17.3244 195.749 17.3119 195.806 17.3119C195.912 17.3119 196.022 17.3418 196.086 17.4141C196.182 17.5188 196.126 17.5488 195.951 17.5537C195.728 17.5587 195.507 17.6111 195.283 17.6211C195.166 17.626 195.074 17.5662 195.067 17.5039C195.063 17.4739 195.116 17.4216 195.159 17.4116C195.308 17.3742 195.472 17.3518 195.514 17.3443Z" fill="#FFE492"/>
<path d="M214.877 2.67746C214.763 2.68992 214.643 2.72483 214.536 2.71237C214.394 2.69491 214.337 2.62761 214.373 2.56528C214.394 2.53038 214.433 2.48052 214.476 2.47304C214.703 2.43814 214.934 2.41568 215.161 2.39075C215.296 2.42814 215.357 2.48049 215.321 2.54282C215.3 2.57773 215.261 2.62509 215.218 2.63507C215.108 2.66 214.991 2.66499 214.877 2.67746Z" fill="#FFE492"/>
<path d="M76.9673 4.11586C77.0774 4.11336 77.1769 4.14577 77.2622 4.2081C77.2089 4.28788 77.1307 4.34023 77.0241 4.36267C76.9708 4.37264 76.9104 4.38011 76.8536 4.3826C76.7434 4.38759 76.6439 4.35269 76.5586 4.29036C76.6119 4.21058 76.6936 4.15823 76.7966 4.13579C76.8499 4.12582 76.9104 4.12334 76.9673 4.11586Z" fill="#FFE492"/>
<path d="M251.351 26.2345C251.347 26.1622 251.564 26.08 251.759 26.0825C251.862 26.0849 251.969 26.1199 252.029 26.1872C252.122 26.2894 252.068 26.3293 251.894 26.3218C251.788 26.3168 251.674 26.3592 251.567 26.3517C251.447 26.3492 251.376 26.2944 251.351 26.2345Z" fill="#FFE492"/>
<path d="M199.494 17.813C199.49 17.7856 199.472 17.7532 199.483 17.7282C199.55 17.5911 199.959 17.5487 200.066 17.6684C200.083 17.6908 200.091 17.7282 200.076 17.7507C200.055 17.7856 200.016 17.8304 199.973 17.8404C199.863 17.8653 199.749 17.8778 199.636 17.8803C199.586 17.8803 199.54 17.8379 199.494 17.813Z" fill="#FFE492"/>
<path d="M9.05014 17.2767C8.63083 17.3291 8.62373 17.3241 8.69835 17.1994C8.76587 17.0872 8.89026 17.0199 9.07148 17.0199C9.12478 17.0199 9.18162 17.0149 9.22781 17.0249C9.27756 17.0374 9.34867 17.0623 9.35933 17.0922C9.38065 17.1495 9.32019 17.2119 9.21359 17.2543C9.16739 17.2742 9.107 17.2692 9.05014 17.2767Z" fill="#FFE492"/>
<path d="M82.2164 3.76457C82.092 3.80695 81.9855 3.792 81.9073 3.71222C81.8291 3.63244 81.9535 3.53769 82.1702 3.51526C82.2271 3.51027 82.2875 3.49034 82.3408 3.50031C82.3941 3.50779 82.4474 3.53768 82.4794 3.5676C82.5363 3.61746 82.5007 3.6848 82.387 3.74214C82.3408 3.76457 82.2732 3.75958 82.2164 3.76457Z" fill="#FFE492"/>
<path d="M250.61 26.0471C250.642 26.0147 250.674 25.9823 250.709 25.9524C250.841 25.9948 250.898 26.0446 250.862 26.102C250.841 26.1369 250.798 26.1668 250.766 26.1992C250.635 26.1568 250.582 26.1045 250.61 26.0471Z" fill="#FFE492"/>
<path d="M14.6797 45.6582C14.6797 45.6283 14.7294 45.5809 14.7685 45.571C14.8431 45.5535 14.9355 45.5884 14.9995 45.6582C15.0883 45.758 15.035 45.8103 14.8716 45.7829C14.7579 45.7629 14.6797 45.7131 14.6797 45.6582Z" fill="#FFE492"/>
<path d="M200.94 15.492C200.987 15.5144 201.033 15.5369 201.076 15.5618C201.015 15.6541 200.94 15.6939 200.862 15.669C200.813 15.6541 200.77 15.6241 200.724 15.6017C200.784 15.5094 200.855 15.4746 200.94 15.492Z" fill="#FFE492"/>
<path d="M199.711 15.38C199.782 15.3426 199.868 15.3626 199.967 15.4349C199.935 15.4673 199.907 15.5047 199.868 15.5296C199.8 15.5695 199.711 15.5496 199.615 15.4748C199.644 15.4449 199.676 15.4124 199.711 15.38Z" fill="#FFE492"/>
<path d="M198.769 15.4897C198.816 15.5122 198.862 15.5346 198.905 15.5595C198.844 15.6518 198.773 15.6916 198.691 15.6667C198.642 15.6518 198.599 15.6218 198.553 15.5994C198.613 15.5072 198.684 15.4698 198.769 15.4897Z" fill="#FFE492"/>
<path d="M198.076 15.3574C198.129 15.4073 198.101 15.4671 197.998 15.5344C197.951 15.512 197.898 15.4945 197.863 15.4646C197.806 15.4173 197.834 15.3549 197.941 15.2876C197.983 15.3125 198.03 15.335 198.076 15.3574Z" fill="#FFE492"/>
</svg>
