<svg width="315" height="25" viewBox="0 0 315 25" fill="none" xmlns="http://www.w3.org/2000/svg">
<path d="M293.764 12.8377C293.336 12.8577 292.903 12.8715 292.484 12.9016C292.211 12.9204 292.095 12.8653 291.913 12.8364C291.852 12.8264 291.787 12.8064 291.731 12.8089C291.307 12.8289 290.883 12.8515 290.459 12.874C290.33 12.9229 290.247 12.988 290.048 13.0118C289.854 13.0344 289.625 13.0344 289.408 13.0457C289.123 13.0595 288.837 13.0732 288.552 13.0858C288.409 13.092 288.292 13.1158 288.245 13.1609C288.236 13.1685 288.331 13.1873 288.383 13.1985C288.556 13.2361 288.725 13.2787 288.915 13.3075C289.097 13.3351 289.322 13.29 289.516 13.3251C289.953 13.404 289.958 13.4028 290.291 13.3877C290.576 13.3739 290.862 13.3589 291.147 13.3489C291.203 13.3464 291.268 13.3652 291.329 13.3752C291.51 13.4028 291.627 13.4654 291.896 13.4416C292.099 13.4228 292.324 13.4191 292.536 13.409C292.713 13.4454 292.877 13.4867 293.068 13.5155C293.245 13.5431 293.297 13.5644 293.202 13.6007C293.115 13.6346 292.994 13.6484 292.834 13.6509C292.691 13.6521 292.549 13.6634 292.406 13.6696C292.332 13.6734 292.263 13.6759 292.194 13.6797C291.921 13.6935 291.921 13.6935 291.424 13.6133C291.229 13.5819 291.009 13.6258 290.823 13.5957C290.697 13.5757 290.589 13.5456 290.468 13.5243C290.416 13.5155 290.334 13.5143 290.269 13.5168C290.053 13.5256 289.836 13.5318 289.629 13.5481C289.482 13.5594 289.395 13.5945 289.413 13.6296C289.417 13.6433 289.521 13.6634 289.581 13.6646C289.72 13.6671 289.867 13.6496 290.001 13.6584C290.131 13.6671 290.265 13.6922 290.36 13.7198C290.555 13.7774 290.775 13.726 290.961 13.7411C291.156 13.7574 291.316 13.8075 291.502 13.8375C291.549 13.8451 291.64 13.8325 291.714 13.8288C291.926 13.82 292.138 13.8125 292.35 13.8037C292.527 13.8401 292.717 13.8726 292.877 13.914C293.167 13.9892 293.479 14.018 293.855 13.9816C294.067 13.9616 294.275 13.9691 294.443 14.018C294.616 14.0681 294.815 14.0631 295.036 14.0531C295.239 14.043 295.447 14.0155 295.654 14.0505C296.104 14.1282 296.109 14.132 296.641 14.1019C296.801 14.0931 296.922 14.0906 297.043 14.1195C297.155 14.1458 297.277 14.1683 297.393 14.1934C297.605 14.1846 297.822 14.1758 298.034 14.1658C298.306 14.152 298.457 14.1696 298.522 14.2397C298.561 14.2823 298.579 14.3212 298.674 14.35C298.786 14.3851 298.907 14.3838 299.072 14.3738C299.227 14.365 299.34 14.3513 299.405 14.3061C299.431 14.2874 299.483 14.2698 299.53 14.2548C299.569 14.2435 299.63 14.226 299.664 14.2285C299.729 14.2335 299.816 14.2473 299.837 14.2635C300.049 14.4151 300.049 14.4164 300.266 14.4603C300.504 14.5091 300.75 14.553 300.966 14.6081C301.161 14.657 301.356 14.6357 301.568 14.6357C301.728 14.6357 301.832 14.6683 301.819 14.7008C301.81 14.7196 301.749 14.7472 301.697 14.7497C301.273 14.7747 300.845 14.796 300.417 14.8136C300.365 14.8161 300.3 14.7935 300.24 14.7823C300.119 14.7597 300.01 14.7246 299.881 14.7171C299.751 14.7096 299.599 14.7284 299.457 14.7346C299.314 14.7409 299.163 14.7572 299.033 14.7472C298.903 14.7372 298.799 14.7008 298.678 14.677C298.622 14.6657 298.544 14.6495 298.496 14.6532C298.181 14.6833 297.947 14.6419 297.722 14.5868C297.675 14.5755 297.592 14.568 297.532 14.5705C297.03 14.5918 296.533 14.6169 296.031 14.6407C295.828 14.6507 295.663 14.6069 295.62 14.5329C295.598 14.4916 295.555 14.4502 295.555 14.4089C295.555 14.3337 295.317 14.2924 295.144 14.3011C294.859 14.3137 294.569 14.3237 294.288 14.3425C294.058 14.3575 293.864 14.3425 293.708 14.2974C293.526 14.246 293.319 14.256 293.111 14.2698C292.955 14.2798 292.912 14.3212 292.921 14.4252C292.929 14.5091 292.856 14.5354 292.575 14.5492C292.22 14.5668 291.861 14.5843 291.502 14.5981C291.446 14.6006 291.381 14.5793 291.324 14.568C291.203 14.5455 291.095 14.5091 290.965 14.5016C290.836 14.4928 290.684 14.5116 290.542 14.5191C290.399 14.5254 290.247 14.543 290.118 14.5342C289.988 14.5254 289.88 14.4878 289.763 14.464C289.707 14.4527 289.637 14.4364 289.581 14.439C289.296 14.449 289.01 14.464 288.725 14.4778C288.405 14.4928 288.405 14.4928 287.95 14.4152C287.743 14.3801 287.535 14.4076 287.332 14.4177C287.116 14.4277 286.912 14.4327 286.744 14.3826C286.631 14.35 286.506 14.33 286.372 14.3362C286.013 14.3513 285.658 14.3701 285.299 14.3851C285.238 14.3876 285.156 14.3813 285.109 14.3701C284.879 14.3174 284.654 14.2761 284.334 14.3024C284.057 14.3249 283.759 14.3262 283.482 14.3475C283.331 14.3588 283.261 14.3989 283.292 14.4302C283.309 14.4465 283.4 14.4653 283.46 14.4653C283.599 14.4665 283.75 14.4477 283.88 14.4552C284.148 14.4703 284.282 14.5755 284.633 14.5467C284.84 14.5292 285.057 14.5229 285.273 14.5179C285.329 14.5166 285.39 14.5404 285.45 14.553C285.623 14.5868 285.775 14.6307 286.026 14.6081C286.233 14.5906 286.454 14.5856 286.666 14.5755C287.003 14.5592 287.003 14.5605 287.44 14.6369C287.648 14.6733 287.855 14.6444 288.059 14.6357C288.21 14.6294 288.353 14.6169 288.474 14.6344C288.66 14.6607 288.794 14.7209 289.023 14.7171C289.24 14.7133 289.451 14.6958 289.668 14.6895C289.802 14.6858 289.927 14.7058 290.035 14.7397C290.148 14.7735 290.269 14.7885 290.416 14.781C290.628 14.771 290.844 14.7585 291.061 14.7522C291.121 14.7509 291.19 14.7622 291.247 14.7722C291.368 14.7948 291.484 14.8211 291.601 14.8449C291.813 14.8374 292.03 14.8349 292.237 14.8199C292.397 14.8086 292.51 14.8136 292.639 14.8387C292.804 14.8725 292.938 14.9326 293.206 14.9038C293.34 14.89 293.496 14.8938 293.63 14.8813C293.794 14.865 293.907 14.8712 294.024 14.9088C294.244 14.9802 294.521 14.9815 294.807 14.9539C295.118 14.9238 295.352 14.9589 295.585 15.0141C295.832 15.0717 295.832 15.0704 296.022 15.2095C296.078 15.2496 296.238 15.2684 296.372 15.2609C296.597 15.2484 296.792 15.2546 296.957 15.3022C297.13 15.3536 297.337 15.3473 297.549 15.3336C297.83 15.3148 298.111 15.2985 298.341 15.3712C298.453 15.4062 298.574 15.415 298.726 15.4062C299.154 15.3837 299.587 15.3699 300.006 15.3423C300.261 15.3248 300.408 15.3649 300.581 15.3987C300.815 15.4451 301.07 15.4864 301.07 15.5854C301.07 15.6017 301.131 15.6205 301.183 15.633C301.295 15.6593 301.416 15.6819 301.533 15.7069C301.706 15.7445 301.875 15.7759 302.113 15.7558C302.32 15.7395 302.541 15.7345 302.753 15.7232C302.965 15.712 303.16 15.7057 303.35 15.7533C303.57 15.8072 303.804 15.8586 304.055 15.8986C304.232 15.9275 304.466 15.8786 304.656 15.9174C304.773 15.9413 304.885 15.9688 305.011 15.9889C305.063 15.9976 305.145 15.9914 305.214 15.9889C305.357 15.9838 305.504 15.9801 305.642 15.9676C305.803 15.9538 305.924 15.9563 306.045 15.9851C306.157 16.0114 306.27 16.0477 306.399 16.0553C306.594 16.0665 306.81 16.0164 307.005 16.0741C307.104 16.1029 307.23 16.1305 307.36 16.1392C307.49 16.148 307.641 16.1292 307.779 16.1304C307.84 16.1304 307.913 16.1505 307.948 16.1668C307.97 16.1756 307.939 16.1994 307.909 16.2119C307.87 16.2269 307.814 16.247 307.758 16.2495C307.329 16.272 306.901 16.2908 306.473 16.3121C306.218 16.3247 306.218 16.3247 305.703 16.2457C305.582 16.2269 305.448 16.2307 305.296 16.2394C305.093 16.2507 304.885 16.272 304.674 16.2495C304.397 16.1643 304.055 16.1567 303.692 16.1893C303.54 16.2031 303.402 16.2031 303.289 16.1793C303.051 16.1317 302.8 16.0879 302.589 16.0315C302.424 15.9876 302.346 15.9839 302.277 16.044C302.255 16.0628 302.234 16.0828 302.238 16.1004C302.264 16.163 302.312 16.2244 302.338 16.2871C302.346 16.3046 302.312 16.3247 302.29 16.3435C302.221 16.3961 302.13 16.3923 301.979 16.3485C301.827 16.3046 301.646 16.2758 301.403 16.2958C301.196 16.3134 300.971 16.3109 300.763 16.3297C300.443 16.3572 300.218 16.3171 299.989 16.2633C299.941 16.252 299.859 16.2457 299.798 16.2482C299.154 16.277 298.514 16.3096 297.869 16.3384C297.731 16.3447 297.605 16.3259 297.497 16.2921C297.385 16.2582 297.259 16.2407 297.121 16.247C296.55 16.2733 295.979 16.2971 295.408 16.3297C295.174 16.3435 294.988 16.3272 294.828 16.2833C294.707 16.2507 294.595 16.2407 294.443 16.2445C294.279 16.2482 294.162 16.2608 294.08 16.2971C294.002 16.3322 294.058 16.3535 294.231 16.381C294.417 16.4111 294.59 16.45 294.768 16.485C294.91 16.48 295.053 16.47 295.192 16.4712C295.252 16.4712 295.308 16.4938 295.369 16.5063C295.542 16.5427 295.702 16.579 295.949 16.559C296.156 16.5414 296.377 16.5377 296.589 16.5264C296.883 16.5126 296.883 16.5126 297.359 16.5915C297.48 16.6116 297.61 16.6103 297.765 16.599C297.899 16.5903 298.038 16.6078 298.133 16.6454C298.172 16.6604 298.159 16.6855 298.077 16.7682C298.077 16.8296 298.168 16.802 298.198 16.7619C298.246 16.7043 298.155 16.6855 297.982 16.7168C297.861 16.7394 297.8 16.772 297.83 16.7983C297.848 16.8121 297.93 16.8296 298.077 16.7682C298.458 16.693 298.747 16.6842 299.024 16.6642C299.189 16.6529 299.292 16.6579 299.422 16.6905C299.578 16.7293 299.734 16.7707 299.989 16.7507C300.266 16.7281 300.56 16.7256 300.841 16.7068C301.1 16.6893 301.235 16.7444 301.399 16.777C301.598 16.8158 301.819 16.772 302 16.7945C302.191 16.8171 302.325 16.8722 302.545 16.8822C302.865 16.8484 303.069 16.911 303.311 16.9524C303.501 16.9837 303.726 16.9561 303.929 16.9424C304.159 16.9273 304.349 16.9411 304.509 16.9862C304.691 17.0376 304.894 17.0263 305.102 17.015C305.586 16.99 305.603 16.9862 305.885 17.0551C306.088 17.1052 306.283 17.0827 306.486 17.0764C306.663 17.1103 306.836 17.1466 307.022 17.1767C307.07 17.1842 307.161 17.1716 307.234 17.1679C307.446 17.1579 307.663 17.1478 307.874 17.1378C308.017 17.1316 308.169 17.1128 308.298 17.1203C308.428 17.129 308.536 17.1654 308.653 17.1892C308.77 17.213 308.891 17.2368 309.004 17.2619C309.177 17.2994 309.341 17.3308 309.583 17.312C309.791 17.2957 310.007 17.2907 310.223 17.2794C310.496 17.2656 310.487 17.2694 310.993 17.3446C311.266 17.3859 311.547 17.3358 311.824 17.3308C311.962 17.3283 312.096 17.3421 312.191 17.3784C312.23 17.3934 312.217 17.4185 312.23 17.4398C311.517 17.4736 310.799 17.5024 310.093 17.5438C309.821 17.5601 309.678 17.515 309.531 17.4774C309.289 17.4172 308.969 17.5049 308.74 17.4272C308.601 17.3809 308.402 17.3546 308.164 17.3771C308.026 17.3897 307.879 17.3884 307.736 17.3997C307.373 17.4272 307.04 17.4285 306.75 17.3421C306.65 17.312 306.508 17.2957 306.404 17.2669C306.283 17.2356 306.166 17.218 306.023 17.2243C305.379 17.2543 304.738 17.2844 304.098 17.317C304.042 17.3195 303.986 17.3383 303.938 17.3521C303.817 17.3872 303.856 17.4147 304.051 17.4373C304.115 17.4448 304.167 17.4611 304.228 17.4736C304.345 17.4974 304.453 17.535 304.583 17.5438C304.712 17.5525 304.864 17.535 305.007 17.5287C305.149 17.5225 305.301 17.5037 305.431 17.5112C305.56 17.52 305.668 17.5563 305.789 17.5789C305.846 17.5901 305.915 17.6089 305.971 17.6077C306.257 17.6002 306.538 17.5864 306.823 17.5751C307.001 17.6089 307.152 17.6578 307.364 17.6691C307.498 17.6766 307.641 17.6628 307.779 17.6653C307.84 17.6666 307.918 17.6854 307.948 17.7016C307.965 17.7117 307.909 17.7367 307.866 17.7493C307.701 17.7969 307.477 17.7881 307.273 17.8031C307.053 17.8194 306.854 17.8144 306.685 17.7656C306.572 17.733 306.447 17.7154 306.309 17.7217C305.949 17.738 305.595 17.7568 305.236 17.7706C305.175 17.7731 305.102 17.7618 305.045 17.753C304.591 17.6766 304.591 17.6741 304.271 17.6904C303.8 17.7142 303.8 17.7142 303.484 17.6478C303.423 17.6352 303.358 17.6114 303.307 17.6127C302.805 17.6327 302.307 17.6528 301.81 17.6816C301.646 17.6904 301.533 17.6904 301.412 17.6578C301.308 17.6302 301.187 17.5989 301.057 17.5914C300.923 17.5839 300.776 17.6027 300.633 17.6089C300.491 17.6152 300.339 17.6315 300.214 17.6215C300.084 17.6114 299.971 17.5764 299.859 17.5513C299.742 17.525 299.617 17.5262 299.457 17.5363C298.964 17.5651 298.959 17.5613 298.47 17.4836C298.414 17.4749 298.341 17.4648 298.28 17.4673C297.921 17.4824 297.566 17.5012 297.207 17.5162C297.069 17.5225 296.935 17.5062 296.84 17.4699C296.801 17.4548 296.814 17.4298 296.788 17.3809C296.758 17.3696 296.792 17.3897 296.801 17.4085C296.866 17.406 296.944 17.4085 296.991 17.3984C297.112 17.3746 297.173 17.3433 297.142 17.317C297.125 17.3032 297.043 17.2857 296.991 17.2857C296.896 17.2857 296.814 17.3132 296.788 17.3809C296.515 17.4222 296.225 17.431 295.944 17.4511C295.78 17.4636 295.676 17.4573 295.546 17.4248C295.391 17.3847 295.231 17.3458 294.975 17.3659C294.698 17.3884 294.404 17.3922 294.119 17.4097C293.79 17.4298 293.647 17.317 293.371 17.3195C293.085 17.322 292.8 17.3433 292.514 17.3583C292.263 17.3709 292.263 17.3709 291.744 17.2894C291.554 17.2594 291.329 17.3032 291.143 17.2719C291.017 17.2518 290.909 17.2218 290.788 17.2005C290.736 17.1917 290.654 17.1917 290.589 17.1942C290.23 17.2092 289.867 17.2193 289.521 17.2468C289.127 17.2794 288.829 17.2443 288.547 17.1704C288.193 17.1842 287.834 17.1917 287.483 17.2155C287.228 17.233 287.081 17.1917 286.908 17.1579C286.847 17.1466 286.796 17.1278 286.731 17.1228C286.666 17.1178 286.588 17.1278 286.519 17.1315C286.233 17.1453 285.939 17.1516 285.662 17.1742C285.32 17.203 285.191 17.1002 284.927 17.0877C284.749 17.1491 284.654 17.233 284.304 17.2393C284.018 17.2443 283.733 17.2644 283.447 17.2782C283.305 17.2844 283.162 17.2919 283.019 17.2982C282.79 17.3095 282.682 17.3583 282.729 17.4335C282.755 17.4749 282.777 17.5162 282.799 17.5576C282.842 17.6315 282.734 17.6941 282.552 17.7029C282.05 17.7267 281.553 17.7518 281.051 17.7731C280.917 17.7793 280.787 17.758 280.679 17.7242C280.567 17.6904 280.441 17.6753 280.303 17.6816C279.801 17.7054 279.303 17.7305 278.802 17.7518C278.745 17.7543 278.672 17.7417 278.616 17.7317C278.495 17.7092 278.378 17.6829 278.261 17.6591C277.976 17.6703 277.694 17.6778 277.413 17.6929C276.959 17.7154 276.959 17.7167 276.626 17.6478C276.565 17.6352 276.505 17.6114 276.449 17.6127C276.232 17.6177 276.02 17.6302 275.804 17.6415C275.168 17.6741 275.168 17.6741 274.982 17.6365C274.813 17.6014 274.662 17.5588 274.407 17.5789C274.13 17.6014 273.836 17.6089 273.55 17.6215C273.338 17.6302 273.126 17.6403 272.914 17.6428C272.858 17.644 272.798 17.6202 272.737 17.6077C272.564 17.5688 272.395 17.5375 272.157 17.5588C272.019 17.5713 271.872 17.5739 271.729 17.5801C271.357 17.5977 271.357 17.5976 270.747 17.5225C270.687 17.515 270.613 17.5062 270.553 17.5099C270.051 17.5325 269.553 17.5576 269.052 17.5789C268.991 17.5814 268.918 17.5738 268.857 17.5676C268.174 17.4949 268.174 17.4949 267.447 17.53C267.17 17.5425 267.161 17.5475 266.872 17.4811C266.742 17.4523 266.634 17.4385 266.482 17.4473C265.911 17.4774 265.336 17.4974 264.769 17.5325C264.514 17.5475 264.367 17.5099 264.194 17.4761C264.133 17.4648 264.069 17.4398 264.017 17.441C263.446 17.4648 262.875 17.4937 262.304 17.5175C262.252 17.52 262.187 17.4949 262.126 17.4836C262.009 17.4611 261.897 17.4273 261.767 17.4197C261.633 17.4122 261.486 17.431 261.339 17.4373C260.98 17.4536 260.98 17.4523 260.565 17.3784C260.508 17.3684 260.435 17.3546 260.379 17.3571C259.808 17.3821 259.232 17.4035 258.666 17.4398C258.341 17.4598 258.121 17.4235 257.891 17.3709C257.844 17.3596 257.762 17.3546 257.701 17.3571C257.057 17.3859 256.416 17.4185 255.772 17.4473C255.638 17.4536 255.508 17.4323 255.4 17.3997C255.227 17.3483 255.024 17.3546 254.807 17.3659C254.31 17.3922 254.305 17.3909 254.011 17.3308C253.951 17.3183 253.899 17.302 253.834 17.2957C253.773 17.2894 253.696 17.2932 253.631 17.2957C253.345 17.3082 253.06 17.322 252.774 17.3358C252.489 17.3496 252.199 17.3571 251.918 17.3784C251.572 17.4047 251.407 17.3232 251.165 17.2857C250.81 17.3019 250.447 17.312 250.097 17.3383C249.828 17.3583 249.703 17.3032 249.526 17.2744C249.465 17.2644 249.4 17.2431 249.344 17.2456C248.699 17.2731 248.055 17.3032 247.415 17.337C247.259 17.3446 247.155 17.3345 247.025 17.3045C246.736 17.2368 246.723 17.2393 246.238 17.2644C246.026 17.2756 245.823 17.2857 245.641 17.2343C245.481 17.1879 245.287 17.1767 245.057 17.1917C244.776 17.2105 244.486 17.2205 244.201 17.233C243.915 17.2468 243.63 17.2656 243.344 17.2719C243.115 17.2781 242.977 17.2193 242.795 17.1892C242.739 17.1804 242.661 17.1792 242.596 17.1817C242.31 17.1929 242.016 17.2017 241.74 17.223C241.402 17.2493 241.216 17.1804 240.978 17.1403C240.926 17.1316 240.84 17.1366 240.775 17.1403C240.273 17.1629 239.776 17.1879 239.274 17.2117C239.096 17.1779 238.915 17.1453 238.737 17.1115C238.452 17.124 238.166 17.1378 237.881 17.1503C237.665 17.1604 237.444 17.1641 237.241 17.1829C236.977 17.208 236.847 17.1491 236.67 17.1203C236.609 17.1103 236.544 17.089 236.488 17.0915C236.129 17.1052 235.77 17.1203 235.415 17.1416C235.078 17.1629 234.944 17.0501 234.667 17.0514C234.382 17.0526 234.087 17.0689 233.811 17.0915C233.49 17.1178 233.265 17.0777 233.036 17.0238C232.989 17.0125 232.906 17.0063 232.846 17.0088C232.487 17.0238 232.132 17.0426 231.773 17.0576C231.713 17.0601 231.639 17.0539 231.579 17.0464C230.895 16.9724 230.895 16.9712 230.597 16.9862C230.385 16.9962 230.168 17.0088 229.952 17.015C229.892 17.0175 229.818 17.0063 229.762 16.9962C229.312 16.9198 229.312 16.9186 228.987 16.9336C228.702 16.9474 228.416 16.9611 228.131 16.9749C227.954 16.9411 227.772 16.9085 227.595 16.8747C227.24 16.891 226.876 16.9035 226.526 16.9261C226.362 16.9361 226.254 16.9323 226.128 16.901C225.972 16.8634 225.817 16.8196 225.557 16.8409C225.28 16.8634 224.986 16.8659 224.705 16.8847C224.368 16.9073 224.229 16.7933 223.957 16.7945C223.671 16.7958 223.377 16.812 223.1 16.8346C222.78 16.8609 222.555 16.8208 222.326 16.767C222.278 16.7557 222.196 16.7494 222.136 16.7519C221.348 16.7883 220.565 16.8246 219.778 16.8634C219.294 16.8872 219.294 16.8885 218.372 16.8196C218.307 16.8146 218.238 16.8095 218.173 16.8121C217.888 16.8233 217.594 16.8321 217.317 16.8534C216.979 16.8797 216.793 16.812 216.555 16.7707C216.504 16.7619 216.421 16.7669 216.352 16.7694C216.136 16.7782 215.924 16.7895 215.708 16.7995C215.422 16.8133 215.137 16.8271 214.851 16.8409C214.674 16.8083 214.492 16.7745 214.315 16.7419C213.96 16.7582 213.597 16.7669 213.246 16.7933C212.978 16.8133 212.853 16.7607 212.675 16.7306C212.615 16.7206 212.55 16.6993 212.494 16.7005C211.849 16.7281 211.205 16.7569 210.564 16.792C210.301 16.807 210.179 16.7506 210.002 16.7218C209.942 16.7131 209.872 16.6968 209.816 16.6993C209.388 16.7168 208.96 16.7381 208.531 16.7594C208.289 16.772 208.289 16.772 207.761 16.6943C207.701 16.6855 207.632 16.6767 207.571 16.6792C206.213 16.7419 204.859 16.8083 203.501 16.8709C203.362 16.8772 203.237 16.8584 203.129 16.8246C203.016 16.7908 202.891 16.7732 202.752 16.7795C202.181 16.8058 201.606 16.8296 201.039 16.8622C200.806 16.876 200.62 16.8597 200.46 16.8158C200.339 16.7832 200.226 16.7707 200.075 16.7782C199.789 16.7933 199.504 16.8058 199.218 16.8196C198.933 16.8333 198.647 16.8471 198.362 16.8609C198.076 16.8747 197.786 16.8822 197.505 16.9035C197.159 16.9298 196.991 16.8522 196.753 16.8133C196.324 16.8321 195.896 16.8509 195.472 16.8709C194.901 16.8973 194.33 16.9261 193.759 16.9511C193.707 16.9536 193.642 16.9311 193.582 16.9198C193.405 16.8885 193.275 16.8446 193.011 16.8584C191.73 16.9248 190.441 16.9812 189.157 17.0464C188.889 17.0601 188.772 17.0063 188.59 16.9774C188.53 16.9687 188.46 16.9511 188.404 16.9536C187.69 16.985 186.977 17.02 186.263 17.0539C185.973 17.0676 185.973 17.0676 185.489 16.99C185.432 16.9812 185.359 16.9699 185.298 16.9724C184.368 17.015 183.443 17.0601 182.513 17.104C182.374 17.1103 182.249 17.0927 182.136 17.0589C182.028 17.0251 181.898 17.0063 181.764 17.0125C180.908 17.0526 180.047 17.0915 179.195 17.1353C178.965 17.1478 178.775 17.1366 178.611 17.0915C178.494 17.0589 178.377 17.0451 178.23 17.0526C176.945 17.114 175.661 17.1729 174.376 17.2381C174.129 17.2506 173.956 17.2268 173.801 17.1854C173.675 17.1529 173.567 17.1466 173.411 17.1516C173.247 17.1579 173.148 17.1716 173.057 17.2092C172.94 17.2581 172.866 17.3195 172.589 17.3233C172.304 17.327 172.014 17.3421 171.733 17.3634C171.465 17.3847 171.339 17.3283 171.171 17.2944C171.045 17.2706 170.928 17.2669 170.768 17.2782C170.621 17.2882 170.53 17.3095 170.444 17.3496C170.254 17.4348 170.236 17.4348 170.003 17.3809C169.877 17.3521 169.765 17.3295 169.626 17.3345C169.055 17.3596 168.484 17.3872 167.913 17.416C167.585 17.4323 167.58 17.4348 167.334 17.3721C167.213 17.3408 167.096 17.3258 166.953 17.3333C165.383 17.4084 163.813 17.4811 162.243 17.5601C162 17.5726 161.836 17.5463 161.663 17.5087C161.607 17.4962 161.55 17.4786 161.486 17.4736C161.421 17.4686 161.347 17.4736 161.278 17.4761C160.136 17.53 158.99 17.5814 157.852 17.6415C157.592 17.6553 157.454 17.6152 157.277 17.5826C157.216 17.5713 157.164 17.5538 157.099 17.5488C157.034 17.545 156.957 17.5538 156.887 17.5576C155.745 17.6114 154.599 17.6628 153.461 17.723C153.189 17.7367 153.072 17.6841 152.895 17.6565C152.834 17.6465 152.769 17.6277 152.713 17.6302C152.354 17.644 151.999 17.6628 151.64 17.6791C150.784 17.7204 149.927 17.7593 149.071 17.8019C148.742 17.8182 148.599 17.7067 148.322 17.7117C147.963 17.7179 147.609 17.743 147.25 17.7605C146.964 17.7743 146.679 17.7869 146.393 17.8019C146.112 17.8157 146.112 17.8157 145.411 17.743C145.351 17.7367 145.277 17.728 145.217 17.7305C144.217 17.7768 143.214 17.8232 142.219 17.8733C141.99 17.8846 141.799 17.8783 141.635 17.832C141.518 17.7994 141.397 17.7831 141.254 17.7906C139.753 17.862 138.257 17.9334 136.756 18.0036C136.699 18.0061 136.626 17.9936 136.57 17.9836C136.449 17.961 136.332 17.9347 136.215 17.9109C136.128 17.9397 136.016 17.966 135.96 17.9986C135.882 18.0425 135.778 18.055 135.614 18.0625C135.449 18.07 135.346 18.0675 135.216 18.0349C135.06 17.9948 134.9 17.9635 134.645 17.976C133.075 18.055 131.504 18.1264 129.934 18.2041C129.675 18.2166 129.554 18.1615 129.372 18.1327C129.311 18.1239 129.242 18.1101 129.186 18.1126C128.541 18.1414 127.901 18.1728 127.257 18.2028C125.47 18.288 123.684 18.3695 121.901 18.4597C121.577 18.476 121.356 18.4447 121.127 18.3908C121.08 18.3795 120.997 18.3732 120.937 18.3757C118.437 18.4935 115.936 18.6125 113.44 18.7316C113.306 18.7378 113.177 18.7178 113.068 18.6852C112.956 18.6514 112.831 18.6351 112.692 18.6414C111.55 18.6952 110.408 18.7491 109.266 18.8043C108.981 18.818 108.976 18.8193 108.682 18.7591C108.622 18.7466 108.557 18.7228 108.509 18.7253C108.41 18.7316 108.315 18.7629 108.245 18.8055C108.176 18.8506 108.068 18.8631 107.908 18.8719C107.744 18.8807 107.635 18.8769 107.51 18.8468C107.35 18.8093 107.203 18.7729 106.943 18.7855C103.66 18.9458 100.377 19.0999 97.0937 19.2591C96.8299 19.2716 96.7087 19.219 96.527 19.1902C96.4665 19.1814 96.406 19.1688 96.3411 19.1663C96.2719 19.1638 96.1983 19.1714 96.1291 19.1751C90.7739 19.4295 85.4188 19.6851 80.0637 19.9394C79.7436 19.9545 79.7479 19.9545 79.3975 20.0697C79.3542 20.0835 79.298 20.1023 79.2374 20.1048C77.598 20.185 75.9543 20.2627 74.3105 20.3404C73.5968 20.3742 72.8831 20.4093 72.1693 20.4419C71.9141 20.4531 71.9141 20.4531 71.3042 20.5885C71.2523 20.5997 71.1917 20.6148 71.1311 20.6173C68.2762 20.7538 65.4212 20.8904 62.562 21.0245C62.337 21.0345 62.1554 21.0571 62.0516 21.1172C61.978 21.1598 61.8829 21.1849 61.7401 21.1924C59.7417 21.2876 57.7433 21.3841 55.7405 21.4768C55.5026 21.4881 55.3598 21.5232 55.243 21.5758C55.204 21.5933 55.1694 21.6134 55.1132 21.6259C55.0613 21.6372 54.9834 21.6409 54.9186 21.6447C53.2056 21.7261 51.4927 21.8101 49.7754 21.8878C49.5202 21.899 49.4163 21.9454 49.2909 21.9943C49.2476 22.0106 49.2173 22.0331 49.1611 22.0444C49.1048 22.0544 49.0227 22.0544 48.9535 22.0569C47.526 22.1246 46.0986 22.1935 44.6711 22.2611C44.3942 22.2549 44.3337 22.3276 44.1996 22.3714C44.152 22.3864 44.1174 22.4065 44.0612 22.4165C44.0007 22.4265 43.9227 22.4253 43.8492 22.4278C42.7072 22.4817 41.5652 22.5393 40.4189 22.5894C40.1551 22.6007 40.1031 22.6646 39.9604 22.7084C39.9128 22.7222 39.8653 22.7435 39.8091 22.7473C39.0953 22.7836 38.3816 22.8175 37.6679 22.85C37.43 22.8613 37.43 22.8601 37.0104 22.9841C36.9628 22.9979 36.9065 23.0129 36.8459 23.0167C35.7775 23.0693 34.7048 23.1194 33.632 23.1708C33.4936 23.1771 33.3984 23.2071 33.3292 23.2497C33.26 23.2923 33.1605 23.3199 33.0221 23.3262C32.1656 23.3675 31.3091 23.4101 30.4526 23.4477C30.2147 23.4577 30.059 23.489 29.9552 23.5454C29.8773 23.588 29.7822 23.6093 29.6308 23.6168C28.7743 23.6569 27.9178 23.7008 27.057 23.7359C26.8061 23.7459 26.6763 23.7885 26.5725 23.8411C26.4903 23.8837 26.3951 23.8988 26.2351 23.9063C24.6649 23.9789 23.0904 24.0516 21.5245 24.1318C21.2606 24.1456 21.1265 24.1017 20.9535 24.0704C20.7069 24.0265 20.4777 23.9789 20.4777 23.8812C20.4777 23.8662 20.4042 23.8486 20.3522 23.8361C19.9673 23.7421 19.9673 23.7421 19.9067 23.6419C19.8721 23.5805 19.8332 23.5179 19.8029 23.4552C19.7466 23.3525 19.6082 23.3262 19.2102 23.345C19.0675 23.3512 18.9247 23.36 18.782 23.365C18.57 23.3738 18.41 23.3324 18.3711 23.2572C18.3494 23.2159 18.3235 23.1745 18.3019 23.1332C18.5182 23.1232 18.5138 23.1219 18.8944 22.9703C19.0545 22.9064 19.0546 22.9064 18.7474 22.8425C18.6307 22.8187 18.5182 22.7924 18.3927 22.7698C18.3365 22.7598 18.263 22.7535 18.2024 22.7561C17.8434 22.7711 17.4887 22.7886 17.134 22.8062C16.563 22.8337 16.5629 22.8337 15.9833 22.7059C15.9357 22.6959 15.8622 22.6771 15.8708 22.6671C15.9184 22.6207 16.0352 22.6007 16.1823 22.5957C16.3985 22.5882 16.6105 22.5756 16.8224 22.5656C16.9652 22.5593 17.1079 22.5518 17.2507 22.5456C17.3848 22.498 17.5233 22.4516 17.6487 22.4027C17.8477 22.3276 17.8476 22.325 17.5751 22.2724C17.4021 22.2373 17.2161 22.206 17.0387 22.1734C16.8268 22.1835 16.6105 22.1947 16.3985 22.2035C16.1303 22.2148 16.0222 22.191 15.953 22.1095C15.8924 22.0381 15.966 21.9767 16.1736 21.9617C16.3856 21.9467 16.5846 21.9366 16.6928 21.8727C16.7966 21.8113 16.9782 21.7875 17.2032 21.7825C17.3459 21.7788 17.4886 21.77 17.6314 21.7625C17.8174 21.7524 17.9169 21.6885 17.878 21.6171C17.8564 21.5708 17.8131 21.5319 17.6444 21.5219C16.896 21.478 16.8873 21.4793 16.5153 21.3941C16.4807 21.3866 16.4548 21.364 16.4678 21.3528C16.4894 21.334 16.537 21.3064 16.5889 21.3026C17.0864 21.2751 17.5838 21.25 18.0813 21.2312C18.2457 21.225 18.3668 21.2162 18.423 21.1698C18.5009 21.1059 18.4663 21.047 18.3149 21.0032C18.2673 20.9894 18.1894 20.9719 18.1375 20.9731C17.5665 20.9957 16.9998 21.0245 16.4288 21.047C16.3769 21.0495 16.2818 21.0282 16.2602 21.012C16.2169 20.9819 16.2818 20.9418 16.4332 20.928C16.6322 20.9092 16.8355 20.908 16.9696 20.8453C17.1556 20.7563 17.3848 20.6749 17.5924 20.5897C17.627 20.5747 17.6833 20.5458 17.6704 20.5433C17.5622 20.5158 17.4368 20.4945 17.3243 20.4682C17.134 20.4243 17.1339 20.3629 17.1772 20.304C17.2118 20.2564 17.3416 20.2376 17.5016 20.2376C17.5708 20.2376 17.6573 20.2376 17.7136 20.2264C17.8606 20.1988 17.9082 20.1637 17.8347 20.1374C17.7914 20.1223 17.7136 20.1011 17.6617 20.1036C16.736 20.1449 15.8059 20.185 14.8846 20.2364C14.612 20.2514 14.4867 20.2038 14.3223 20.17C14.1969 20.1436 14.08 20.1336 13.9243 20.1524C13.7772 20.17 13.6345 20.1599 13.5437 20.1186C13.4701 20.0848 13.5999 20.056 13.9503 20.0234C14.0151 20.0171 14.0886 20.0133 14.1362 20.0008C14.638 19.8655 14.638 19.8642 14.984 19.8467C15.3214 19.8304 15.3215 19.8292 15.4989 19.7565C15.5811 19.7227 15.6718 19.6888 15.7497 19.6537C15.78 19.64 15.8319 19.6149 15.8146 19.6074C15.7195 19.5685 15.5897 19.5598 15.4383 19.5686C15.1009 19.5899 14.7029 19.5723 14.5256 19.6913C14.4564 19.7364 14.3482 19.749 14.1925 19.7565C12.6266 19.8292 11.0607 19.9069 9.49047 19.977C9.23526 19.9883 9.11853 20.0347 9.01904 20.086C8.93253 20.1286 8.83734 20.1412 8.67297 20.1487C8.50859 20.1562 8.37876 20.1599 8.2836 20.1186C8.22736 20.0935 8.27496 20.0585 8.40473 20.0234C8.59073 19.9733 8.55611 19.9106 8.49555 19.8517C8.45229 19.8129 8.3182 19.7853 8.17545 19.7878C7.9635 19.7928 7.76025 19.8066 7.58289 19.7565C7.47908 19.7277 7.34928 19.7076 7.23249 19.6826C7.00756 19.6312 6.78261 19.5786 6.46684 19.6124C6.25056 19.5999 6.09916 19.5548 5.92613 19.5197C5.63631 19.462 5.61036 19.4533 5.81799 19.3919C6.05158 19.323 5.86986 19.2327 5.99963 19.1651C6.13806 19.0924 6.32845 19.0285 6.49715 18.9609C6.54041 18.9433 6.57935 18.927 6.62261 18.9095C6.52312 18.8844 6.4323 18.8531 6.3155 18.8356C6.16411 18.813 6.08624 18.7855 6.09489 18.7078C6.06461 18.6965 6.0775 18.7253 6.11211 18.7328C6.15104 18.7403 6.24627 18.7341 6.29386 18.7253C6.41497 18.7015 6.47547 18.6702 6.44519 18.6439C6.42789 18.6301 6.34576 18.6125 6.29386 18.6125C6.19869 18.6125 6.11652 18.6401 6.09056 18.7078C5.60609 18.7591 5.10423 18.7842 4.60246 18.8043C4.55055 18.8068 4.4857 18.7817 4.42514 18.7692C4.22616 18.7266 4.22614 18.7278 3.64217 18.7153C3.58161 18.714 3.49947 18.6965 3.46919 18.679C3.34374 18.6025 3.3481 18.5186 3.28754 18.4371C3.40001 18.3845 3.51239 18.3331 3.62918 18.2818C3.86277 18.1778 4.16563 18.0863 4.34731 17.9723C4.30838 17.9109 4.25646 17.8495 4.44679 17.7994C4.9875 17.7367 4.98321 17.7367 5.13028 17.6766C5.54987 17.5062 5.96511 17.3345 6.402 17.1666C6.51879 17.1228 6.51881 17.099 6.31117 17.0802C6.24629 17.0752 6.17699 17.0739 6.10778 17.0764C5.89149 17.0852 5.67521 17.1077 5.46326 17.1027C5.2513 17.099 5.09558 17.0438 4.92255 17.01C4.7452 16.9749 4.56785 16.9386 4.3905 16.9023C4.1872 16.906 3.98393 16.9411 3.78062 16.8847C3.6249 16.8409 3.43026 16.8095 3.2529 16.7732C3.387 16.678 3.63793 16.6053 3.83258 16.5214C4.00993 16.4449 4.01416 16.4462 4.48998 16.3873C4.71492 16.3597 4.79278 16.2181 4.60246 16.1768C4.3732 16.1267 4.13101 16.0803 3.89742 16.0327C3.69412 16.0365 3.48653 16.0703 3.29187 16.0139C3.14048 15.9713 2.96741 15.9425 2.71653 15.9588C2.29261 15.9864 1.86006 16.0001 1.43182 16.0227C1.28475 16.0302 1.12465 16.0252 1.05977 15.9826C1.01651 15.9525 1.14196 15.9112 1.28471 15.9024C1.50099 15.8899 1.69562 15.8748 1.80377 15.8122C1.90758 15.7496 2.09789 15.7307 2.32282 15.722C2.38338 15.7195 2.45264 15.7044 2.48292 15.6894C2.63865 15.6167 2.81169 15.5541 3.14476 15.5566C3.28318 15.5315 3.35667 15.5002 3.31342 15.4701C3.28746 15.4538 3.19667 15.4326 3.14476 15.4351C2.78573 15.4476 2.42672 15.4601 2.07634 15.4827C1.91196 15.4927 1.78645 15.4952 1.68263 15.4576C1.6091 15.4325 1.64803 15.3987 1.78645 15.3624C1.90756 15.3311 1.94221 15.2947 1.93356 15.2521C1.91193 15.1531 1.78213 15.1243 1.36687 15.1306C1.0684 15.1356 0.994859 15.1193 0.929974 15.0341C0.912672 15.0141 0.869491 14.9865 0.899771 14.9727C1.08577 14.8875 1.2069 14.7823 1.55728 14.7422C1.6957 14.7271 1.84271 14.7271 1.92923 14.6946C2.01574 14.662 2.09364 14.6244 2.18448 14.5931C2.29695 14.5555 2.37473 14.5204 2.32282 14.4966C2.23631 14.454 2.09794 14.4502 1.93789 14.4653C1.79947 14.4778 1.6524 14.479 1.50965 14.4866C1.25444 14.5003 1.04685 14.4678 1.01657 14.4126C0.934385 14.2673 0.847846 14.1232 0.77431 13.9779C0.765659 13.9603 0.787228 13.9378 0.821833 13.9227C0.942952 13.8701 1.07277 13.82 1.19822 13.7686C1.34529 13.7097 1.57891 13.721 1.77789 13.7097C2.05906 13.6935 2.05896 13.6947 2.4353 13.5744C2.58237 13.5268 2.83759 13.5456 2.98899 13.503C3.03657 13.4892 3.11011 13.4667 3.09713 13.4541C3.07983 13.4378 2.99336 13.4253 2.92848 13.4178C2.86792 13.4103 2.7944 13.4065 2.72952 13.4103C1.94225 13.4466 1.15932 13.4855 0.372053 13.5205C0.237958 13.5268 0.0908811 13.4992 0.0432988 13.4604C-0.00428342 13.4241 0.00865132 13.3802 0 13.3389C0.125444 13.2875 0.268136 13.2399 0.376277 13.1847C0.458465 13.1421 0.553646 13.1234 0.718021 13.1208C0.934304 13.1171 1.14628 13.1021 1.38852 13.0908C1.83839 12.9078 2.27958 12.7161 2.76405 12.5332C2.9587 12.4593 2.9112 12.3841 2.95013 12.3052C2.98906 12.2325 3.27886 12.2438 3.47352 12.2225C3.62924 12.2049 3.68108 12.1648 3.62052 12.1373C3.58592 12.121 3.5081 12.1022 3.44754 12.1022C3.30479 12.1022 3.16205 12.1135 3.0193 12.1197C2.87655 12.126 2.71219 12.1223 2.5954 12.1436C2.48293 12.1636 2.40935 12.2062 2.33581 12.2425C2.25363 12.2826 2.14556 12.2964 1.98119 12.2989C1.76923 12.3014 1.55728 12.3127 1.34533 12.3215C1.11174 12.2726 0.869453 12.225 0.644519 12.1736C0.601262 12.1636 0.592565 12.1348 0.59689 12.116C0.605542 12.0671 0.540674 12.037 0.397927 12.0132C0.276808 11.9932 0.17731 11.9644 0.0648426 11.9393C0.151356 11.9055 0.246554 11.8729 0.315765 11.8366C0.467163 11.7601 0.657513 11.705 0.986263 11.7075C1.11603 11.6587 1.21982 11.5985 1.38852 11.5647C1.54857 11.5321 1.8211 11.5647 1.94222 11.4908C2.00278 11.4544 2.09367 11.4131 2.21046 11.398C2.39646 11.3742 2.63869 11.3868 2.74684 11.3166C2.81172 11.2765 2.90685 11.2402 3.03229 11.2301C3.17504 11.2189 3.32207 11.2164 3.42589 11.1926C3.48212 11.18 3.54269 11.16 3.54269 11.1424C3.54269 11.1312 3.45624 11.1136 3.39568 11.1061C3.33945 11.0973 3.26583 11.0911 3.20095 11.0936C2.98466 11.1011 2.77271 11.1149 2.55643 11.1224C2.49587 11.1249 2.42668 11.1161 2.36179 11.1086C2.17146 11.0886 2.18442 11.0635 2.33581 11.0184C2.48721 10.9745 2.59541 10.9182 2.72086 10.8668C2.85928 10.858 3.03228 10.8618 3.12744 10.838C3.28749 10.7991 3.39993 10.7427 3.5297 10.6939C3.67245 10.6864 3.81951 10.6839 3.95361 10.6701C4.00984 10.6651 4.03581 10.6375 4.0834 10.6212C4.16991 10.5899 4.24351 10.5448 4.3603 10.5297C4.55063 10.5072 4.78421 10.516 4.89668 10.447C4.96156 10.407 5.06101 10.3644 5.18213 10.3619C5.51953 10.3568 5.66228 10.2879 5.83531 10.2228C5.96508 10.1739 6.24193 10.199 6.38468 10.1501C6.47984 10.1188 6.54909 10.0799 6.64426 10.0499C6.68319 10.0373 6.76535 10.0311 6.83023 10.0273C7.18494 10.0085 7.54395 9.99473 7.89866 9.97468C7.95489 9.97092 8.00684 9.95214 8.0501 9.9371C8.14094 9.90453 8.19711 9.85942 8.30957 9.83812C8.42204 9.81682 8.58207 9.81682 8.72049 9.81055C9.16603 9.79176 9.20067 9.79676 9.40398 9.69026C9.56835 9.60381 9.97069 9.66521 10.1048 9.56998C10.1826 9.51485 10.3253 9.46975 10.5805 9.46348C10.9396 9.45471 11.2943 9.43091 11.6533 9.41462C11.9734 9.39958 11.9691 9.39958 12.3151 9.28305C12.4709 9.23043 12.7002 9.23795 12.9035 9.22793C13.1198 9.21791 13.3187 9.20288 13.4225 9.14023C13.5263 9.07883 13.7167 9.05877 13.9373 9.05C14.1406 9.04123 14.3699 9.04751 14.5299 8.99739C14.9192 8.87711 14.9149 8.87584 15.1874 8.86331C15.6157 8.84327 16.0439 8.82322 16.4721 8.80192C16.7576 8.78814 17.0561 8.78564 17.3243 8.75807C17.5189 8.73802 17.6054 8.66786 17.7309 8.619C18.0856 8.6002 18.4403 8.5814 18.795 8.56386C19.2924 8.5388 19.7942 8.51625 20.296 8.49245C20.5122 8.44483 20.5426 8.33958 20.9059 8.33457C21.1222 8.33207 21.3342 8.31578 21.5505 8.30576C21.9095 8.28822 22.2642 8.26566 22.6232 8.25689C22.8957 8.25063 22.9432 8.18296 23.086 8.14036C23.1336 8.12532 23.1769 8.10403 23.2331 8.10027C23.7954 8.06519 24.375 8.05767 24.9244 8.0063C24.9806 8.00129 25.0325 7.97497 25.0455 7.95618C25.0542 7.94616 24.9806 7.92737 24.9331 7.9186C24.8768 7.90858 24.8033 7.89855 24.7428 7.90106C22.9563 7.985 21.1698 8.07021 19.3833 8.15416C19.1324 8.16668 19.1324 8.16542 18.5225 8.30325C18.4706 8.31453 18.41 8.32705 18.3451 8.33081C18.0596 8.34585 17.7698 8.35463 17.4886 8.37342C17.2594 8.38846 17.0691 8.37341 16.9047 8.3283C16.7879 8.29572 16.6667 8.28571 16.5197 8.28821C16.3553 8.29197 16.2472 8.30576 16.1521 8.33959C16.0266 8.38595 15.9617 8.44608 15.6978 8.45861C14.4823 8.51249 13.2667 8.57263 12.0556 8.63027C11.8869 8.61273 11.8047 8.58642 11.8479 8.55509C11.8739 8.5363 11.9258 8.51124 11.9777 8.50873C12.4752 8.48242 12.9769 8.45987 13.4744 8.43481C13.5436 8.43106 13.6387 8.43355 13.6777 8.42102C13.868 8.36464 13.9373 8.27317 14.2963 8.26691C14.504 8.26315 14.7159 8.24436 14.9149 8.22682C14.9711 8.22181 15.023 8.19549 15.036 8.1767C15.0403 8.16668 14.9711 8.14788 14.9192 8.1391C14.7289 8.10277 14.5083 8.14664 14.318 8.12158C14.2531 8.11281 14.1622 8.10027 14.1492 8.08524C14.1406 8.07145 14.2141 8.0489 14.266 8.03512C14.3136 8.02259 14.3784 8.01131 14.4433 8.00755C15.0143 7.97874 15.5854 7.94866 16.1564 7.92611C16.39 7.91734 16.5543 7.88601 16.6581 7.82838C16.736 7.78577 16.8311 7.76323 16.9782 7.75696C17.9774 7.7106 18.9766 7.65923 19.9802 7.61663C20.2311 7.60661 20.3609 7.56527 20.4647 7.51139C20.5469 7.46879 20.6421 7.45375 20.8021 7.44623C22.2339 7.38108 23.657 7.30841 25.0888 7.24576C25.3527 7.23449 25.4306 7.18061 25.5647 7.13425C25.6123 7.11796 25.6425 7.09791 25.703 7.08789C25.7636 7.07787 25.8414 7.07911 25.915 7.0766C27.057 7.02273 28.199 6.9651 29.3453 6.91498C29.6135 6.90371 29.6653 6.84105 29.8038 6.7972C29.8513 6.78341 29.8946 6.76087 29.9509 6.75711C30.8073 6.71451 31.6638 6.67442 32.5203 6.63307C33.0913 6.6055 33.6622 6.57794 34.2332 6.55162C34.5144 6.53909 34.5144 6.53783 34.8951 6.4188C34.9383 6.40502 34.9989 6.38873 35.0552 6.38497C36.6989 6.30478 38.3383 6.22837 39.982 6.14943C40.1205 6.14317 40.2199 6.11433 40.2891 6.07173C40.3584 6.02913 40.4579 6.00032 40.592 5.99405C41.8767 5.9314 43.1614 5.87001 44.4505 5.81112C44.6841 5.8011 44.8484 5.77103 44.9522 5.71464C45.0301 5.67204 45.1252 5.6495 45.2723 5.64323C46.557 5.58309 47.8418 5.51918 49.1309 5.46155C49.3774 5.45027 49.4985 5.40767 49.6196 5.35756C49.6629 5.34001 49.6975 5.31119 49.7494 5.30869C50.3896 5.27361 51.0255 5.23727 51.67 5.21346C51.9382 5.20344 52.029 5.15081 52.1372 5.10069C52.2237 5.0606 52.3232 5.04682 52.4876 5.04181C52.8466 5.03053 53.2013 5.00924 53.5517 4.98794C53.6036 4.98418 53.6685 4.95662 53.6728 4.93907C53.6815 4.9065 53.5819 4.88394 53.4176 4.87266C51.7046 4.95411 49.9874 5.03554 48.2744 5.11698C47.9932 5.13077 47.9932 5.13077 47.6126 5.2498C47.5693 5.26359 47.5087 5.27988 47.4481 5.28364C45.8044 5.36257 44.165 5.44026 42.5213 5.51919C42.3828 5.52546 42.2834 5.55427 42.2141 5.59687C42.1449 5.63947 42.0454 5.66829 41.9113 5.67456C40.3411 5.74973 38.7709 5.82617 37.1963 5.89759C36.9628 5.90761 36.7984 5.93641 36.6946 5.99405C36.6167 6.03665 36.5216 6.05921 36.3745 6.06548C34.8735 6.13564 33.3768 6.20956 31.8714 6.27722C31.72 6.28348 31.6076 6.24715 31.6163 6.21332C31.6206 6.19578 31.6854 6.16697 31.7373 6.16447C32.5203 6.12312 33.2989 6.08051 34.0862 6.04919C34.3501 6.03916 34.4279 5.98403 34.562 5.93767C34.6052 5.92139 34.6399 5.90009 34.6961 5.89131C34.7567 5.88129 34.8345 5.88255 34.9081 5.88004C36.7638 5.79108 38.6195 5.70087 40.4796 5.61693C40.7477 5.6044 40.7996 5.54299 40.938 5.49914C40.9856 5.4841 41.0289 5.46156 41.0851 5.45905C41.6561 5.42898 42.2271 5.40267 42.798 5.37635C43.7973 5.32874 44.7965 5.28113 45.8 5.23351C46.0898 5.21973 46.0899 5.21973 46.4619 5.10195C46.5051 5.08817 46.5657 5.07064 46.622 5.06813C49.2649 4.94158 51.908 4.81503 54.5509 4.68974C54.6894 4.68347 54.7888 4.65466 54.858 4.61206C54.9272 4.57071 55.0267 4.54064 55.1608 4.53312C58.7338 4.36272 62.3025 4.19231 65.8755 4.02441C66.1091 4.01314 66.2734 3.98682 66.3772 3.92793C66.4508 3.88533 66.5502 3.86278 66.6973 3.85527C70.625 3.66858 74.5527 3.48189 78.4847 3.29395C81.1277 3.16865 83.7707 3.04085 86.4137 2.91806C86.6559 2.90678 86.7857 2.86793 86.9068 2.81656C86.9457 2.79902 86.9847 2.7702 87.0366 2.7677C87.6032 2.73637 88.1699 2.70756 88.7365 2.67874C88.9139 2.71257 89.0912 2.74515 89.2686 2.77898C89.4027 2.73137 89.5325 2.6825 89.6666 2.63489C90.5231 2.59856 91.3666 2.54217 92.2317 2.52463C92.2879 2.52338 92.3484 2.54719 92.409 2.55972C92.8113 2.63865 93.0406 2.63239 93.2958 2.52714C93.3866 2.48955 93.4645 2.45572 93.6029 2.44946C94.0311 2.4269 94.4638 2.41187 94.8877 2.38556C95.117 2.37177 95.3072 2.3843 95.4716 2.42941C95.5884 2.46198 95.7096 2.47577 95.8523 2.46825C96.6396 2.43067 97.4225 2.39433 98.2098 2.35423C98.266 2.35173 98.3179 2.33042 98.3611 2.31538C98.452 2.28281 98.5299 2.24773 98.6164 2.2139C98.7332 2.2352 98.863 2.25149 98.9581 2.27906C99.0792 2.31163 99.1917 2.31163 99.356 2.30286C102.496 2.15125 105.641 2.0034 108.782 1.85054C109.05 1.83801 109.167 1.89064 109.348 1.91821C109.409 1.92823 109.469 1.94075 109.534 1.94326C109.604 1.94577 109.677 1.93825 109.746 1.9345C112.104 1.82173 114.461 1.71021 116.819 1.59744C117.13 1.58241 117.13 1.58241 117.593 1.66009C117.649 1.67011 117.723 1.68139 117.783 1.67763C118.856 1.62877 119.929 1.57615 120.997 1.52603C121.136 1.51977 121.253 1.53981 121.378 1.56863C121.625 1.62501 121.642 1.62502 121.823 1.54232C121.91 1.50348 122.001 1.47966 122.144 1.46839C122.299 1.45586 122.425 1.45963 122.546 1.48218C122.719 1.51351 122.844 1.56612 123.108 1.55234C124.25 1.49345 125.397 1.44459 126.534 1.38445C126.794 1.37066 126.932 1.41326 127.105 1.44459C127.166 1.45586 127.222 1.47341 127.287 1.47716C127.352 1.48092 127.43 1.47214 127.499 1.46839C128.926 1.40073 130.358 1.33433 131.781 1.26166C132.049 1.24788 132.166 1.30174 132.348 1.32931C132.408 1.33933 132.478 1.35688 132.534 1.35438C133.39 1.31554 134.251 1.27418 135.108 1.23283C135.415 1.21779 135.415 1.21905 135.882 1.29548C135.938 1.3055 136.012 1.31553 136.072 1.31302C137.072 1.26666 138.075 1.21905 139.074 1.17144C139.381 1.1564 139.381 1.1564 140.268 1.22156C140.333 1.22657 140.402 1.2341 140.467 1.23159C141.609 1.17771 142.755 1.12508 143.897 1.06745C144.127 1.05617 144.317 1.06619 144.481 1.1113C144.598 1.14387 144.719 1.15766 144.862 1.15015C146.147 1.08875 147.436 1.02986 148.716 0.964711C148.963 0.952182 149.123 0.979736 149.296 1.01607C149.352 1.0286 149.408 1.04615 149.473 1.05116C149.538 1.05617 149.612 1.05115 149.681 1.0474C150.966 0.986 152.255 0.928367 153.535 0.861961C153.794 0.848178 153.933 0.890776 154.106 0.9221C154.167 0.933376 154.231 0.955931 154.283 0.954678C154.785 0.933378 155.287 0.91459 155.784 0.883266C156.052 0.865725 156.169 0.92335 156.351 0.950915C156.411 0.959686 156.481 0.978489 156.537 0.975984C157.61 0.927118 158.683 0.875751 159.751 0.823127C159.902 0.815609 160.015 0.826875 160.136 0.859452C160.296 0.903306 160.482 0.920848 160.716 0.907065C161.213 0.878247 161.715 0.858205 162.217 0.834399C162.511 0.820617 162.511 0.820621 163.41 0.885775C163.475 0.890786 163.545 0.898299 163.609 0.895793C164.466 0.855698 165.327 0.816859 166.179 0.773006C166.408 0.760476 166.598 0.77175 166.763 0.816856C166.88 0.849433 166.996 0.863223 167.143 0.855705C167.931 0.818116 168.714 0.780525 169.501 0.742936C169.786 0.729154 170.072 0.705341 170.357 0.705341C170.565 0.706594 170.717 0.766734 170.903 0.796805C170.954 0.805575 171.041 0.795563 171.11 0.793057C172.109 0.745445 173.113 0.701587 174.108 0.647711C174.367 0.633928 174.506 0.676526 174.679 0.70785C174.739 0.719126 174.804 0.741681 174.856 0.740428C175.215 0.726645 175.57 0.707849 175.929 0.691561C176.357 0.671514 176.79 0.656478 177.214 0.628913C177.56 0.60636 177.689 0.715363 177.966 0.719122C178.178 0.722881 178.394 0.701584 178.606 0.691561C179.035 0.671514 179.463 0.648963 179.891 0.631422C180.043 0.625157 180.159 0.605101 180.207 0.559995C180.216 0.551224 180.142 0.532438 180.095 0.521161C179.519 0.39336 179.519 0.393354 178.94 0.420919C178.58 0.43846 178.226 0.456004 177.867 0.47104C177.806 0.473546 177.737 0.463523 177.676 0.456005C177.503 0.434705 177.521 0.409648 177.668 0.364542C177.815 0.319436 177.927 0.264311 178.053 0.21294C178.23 0.245516 178.403 0.278081 178.581 0.310658C178.723 0.304394 178.866 0.296887 179.009 0.290622C179.723 0.258045 180.436 0.224213 181.15 0.194142C181.202 0.191636 181.267 0.216699 181.327 0.229229C181.5 0.265564 181.656 0.296879 181.907 0.283097C182.547 0.246761 183.192 0.220449 183.832 0.189126C184.113 0.175343 184.113 0.175344 184.606 0.253027C184.662 0.261798 184.736 0.271822 184.796 0.269316C185.441 0.240498 186.081 0.209178 186.726 0.179107C186.864 0.172843 186.998 0.18913 187.098 0.225466C187.137 0.240501 187.128 0.265556 187.292 0.47104C187.803 0.637683 188.153 0.62015 188.508 0.605114C188.659 0.59885 188.793 0.592579 188.893 0.56752C188.945 0.553737 189.01 0.533687 189.01 0.517399C189.01 0.504869 188.915 0.484818 188.854 0.482312C188.426 0.457253 188.019 0.509884 187.599 0.521161C187.405 0.526173 187.236 0.482319 187.202 0.410901C187.193 0.390853 187.18 0.369554 187.167 0.349507C187.154 0.32946 187.145 0.308161 187.132 0.288114C186.964 0.281849 186.864 0.304398 186.791 0.346999C186.73 0.382081 186.644 0.422176 186.527 0.44097C186.41 0.461017 186.25 0.457265 186.107 0.46353C185.969 0.469795 185.817 0.486081 185.688 0.477311C185.558 0.467287 185.454 0.430945 185.333 0.408392C185.277 0.397116 185.207 0.380833 185.151 0.383339C184.654 0.40464 184.161 0.425932 183.668 0.453497C183.408 0.468532 183.278 0.415916 183.114 0.383339C182.984 0.35828 182.854 0.364537 182.833 0.422173C182.776 0.559998 182.975 0.61763 183.417 0.591318C183.78 0.568765 184.109 0.565018 184.394 0.650219C184.433 0.661495 184.524 0.666505 184.58 0.664C184.935 0.648964 185.285 0.630168 185.64 0.615133C185.705 0.612627 185.774 0.61763 185.835 0.622642C186.717 0.690302 186.717 0.691561 187.016 0.676526C187.158 0.669008 187.297 0.662743 187.284 0.472294C187.556 0.268063 187.989 0.254283 188.408 0.224212C188.681 0.205418 188.798 0.26055 188.975 0.289368C189.036 0.299391 189.101 0.319435 189.157 0.316929C190.087 0.275582 191.012 0.231722 191.938 0.185363C192.094 0.177845 192.206 0.185364 192.327 0.217941C192.483 0.259288 192.656 0.285606 192.903 0.270571C193.396 0.2405 193.898 0.22171 194.399 0.196651C194.655 0.184121 194.655 0.184108 195.169 0.261791C195.226 0.270562 195.299 0.280586 195.36 0.27808C195.861 0.25678 196.359 0.230476 196.856 0.207923C196.995 0.201658 197.12 0.219198 197.228 0.253027C197.337 0.286857 197.466 0.304397 197.6 0.298132C198.102 0.275579 198.6 0.250528 199.097 0.227974C199.158 0.225468 199.231 0.234239 199.287 0.243009C199.815 0.320692 199.815 0.320679 200.057 0.30815C200.412 0.289356 200.775 0.280595 201.126 0.255536C201.468 0.230477 201.645 0.303142 201.878 0.343236C202.519 0.314418 203.163 0.290618 203.799 0.255536C204.059 0.2405 204.197 0.281844 204.37 0.314421C204.431 0.325697 204.491 0.349506 204.547 0.348253C204.764 0.343241 204.976 0.329461 205.188 0.319437C205.4 0.309414 205.616 0.299391 205.828 0.289368C206.07 0.325703 206.23 0.410903 206.576 0.382085C206.784 0.364544 207.004 0.360785 207.216 0.350761C207.428 0.340738 207.645 0.330715 207.857 0.320692C207.999 0.314427 208.146 0.310663 208.285 0.299386C208.54 0.280592 208.665 0.341994 208.847 0.369559C208.908 0.378329 208.977 0.393355 209.033 0.390849C209.461 0.373308 209.894 0.358274 210.314 0.329456C210.638 0.306902 210.859 0.344496 211.088 0.39712C211.135 0.408397 211.218 0.414661 211.278 0.412155C211.78 0.390855 212.277 0.364535 212.775 0.341982C212.909 0.335717 213.039 0.355764 213.147 0.388341C213.259 0.42217 213.385 0.438471 213.523 0.432206C214.021 0.409653 214.522 0.384587 215.02 0.362034C215.08 0.359528 215.154 0.369553 215.21 0.379577C215.695 0.45726 215.695 0.458514 215.98 0.443479C216.049 0.43972 216.123 0.437204 216.192 0.433445C216.547 0.415904 216.915 0.409648 217.261 0.379577C217.659 0.345747 217.948 0.388349 218.23 0.459768C218.584 0.444732 218.948 0.43596 219.294 0.410901C219.553 0.392106 219.692 0.439716 219.865 0.47104C219.925 0.482316 219.99 0.50487 220.042 0.502364C220.544 0.481064 221.045 0.462276 221.539 0.430952C221.807 0.413411 221.924 0.469783 222.105 0.498601C222.166 0.508625 222.231 0.526175 222.287 0.523669C222.572 0.513646 222.858 0.498603 223.144 0.484821C223.477 0.468532 223.476 0.469784 223.918 0.546214C224.125 0.58255 224.333 0.55373 224.536 0.54496C224.753 0.534936 224.956 0.527421 225.129 0.578792C225.237 0.611369 225.367 0.631417 225.501 0.626405C225.786 0.615128 226.076 0.603857 226.357 0.585063C226.582 0.570027 226.777 0.580046 226.941 0.626405C227.058 0.658982 227.179 0.67528 227.322 0.667762C227.962 0.637691 228.607 0.606356 229.247 0.577538C229.303 0.575032 229.381 0.586313 229.433 0.597589C229.554 0.620142 229.671 0.645196 229.788 0.670255C230.069 0.658979 230.359 0.65398 230.635 0.636438C230.93 0.618897 231.198 0.61263 231.427 0.681543C231.475 0.696578 231.544 0.717867 231.6 0.716614C231.816 0.711602 232.028 0.699076 232.24 0.689052C232.452 0.679029 232.669 0.669006 232.88 0.658983C233.127 0.690307 233.283 0.780518 233.629 0.7517C233.837 0.734159 234.057 0.7304 234.269 0.720376C234.481 0.710353 234.697 0.699077 234.909 0.690307C234.978 0.687801 235.056 0.681532 235.117 0.686544C235.182 0.691556 235.238 0.709101 235.294 0.72163C235.467 0.757966 235.627 0.794306 235.874 0.773006C236.082 0.755464 236.302 0.751704 236.514 0.740428C236.804 0.726645 236.804 0.726648 237.284 0.805584C237.479 0.838161 237.699 0.795562 237.885 0.823127C238.011 0.841921 238.119 0.873238 238.24 0.894539C238.292 0.903309 238.374 0.907063 238.435 0.904557C238.72 0.89328 239.01 0.882009 239.291 0.863215C239.52 0.848179 239.711 0.863213 239.871 0.908319C239.988 0.940896 240.104 0.954686 240.251 0.947168C240.965 0.912085 241.679 0.882005 242.388 0.843163C242.631 0.829381 242.825 0.850686 242.959 0.895793C243.189 0.973476 243.513 0.882012 243.751 0.94466C243.898 0.983501 244.045 1.02861 244.313 1.00982C244.806 0.977239 245.308 0.959688 245.806 0.937135C245.983 0.970964 246.16 1.0048 246.342 1.03863C246.627 1.02485 246.913 1.01106 247.198 0.998528C247.41 0.988505 247.627 0.977229 247.839 0.968459C247.908 0.965953 247.981 0.96094 248.046 0.967204C248.111 0.973469 248.163 0.989761 248.224 1.00229C248.522 1.06369 248.522 1.06494 249.015 1.03989C249.227 1.02861 249.431 1.02109 249.608 1.07121C249.772 1.11757 249.967 1.12633 250.192 1.11255C250.616 1.08749 251.044 1.0687 251.477 1.05116C251.611 1.04489 251.736 1.06619 251.849 1.09877C252.017 1.15014 252.225 1.14513 252.437 1.13135C252.718 1.11381 252.995 1.09627 253.233 1.16643C253.28 1.18147 253.354 1.20276 253.406 1.20151C253.76 1.19148 254.12 1.18397 254.466 1.16016C254.812 1.13636 254.98 1.21404 255.218 1.25163C255.573 1.23534 255.932 1.21905 256.287 1.20276C256.356 1.199 256.438 1.18773 256.499 1.194C256.754 1.22031 256.901 1.31428 257.251 1.28546C257.455 1.26917 257.675 1.26417 257.887 1.26041C257.943 1.25915 258.017 1.28044 258.056 1.29673C258.078 1.3055 258.056 1.32931 258.03 1.34184C257.952 1.37692 257.857 1.40951 257.788 1.44584C257.779 1.45085 257.861 1.4734 257.909 1.48342C258.026 1.50597 258.16 1.50222 258.315 1.4922C258.449 1.48343 258.588 1.50097 258.683 1.53856C258.722 1.55359 258.709 1.57865 258.627 1.66135C258.627 1.72274 258.718 1.69517 258.748 1.65507C258.796 1.59744 258.705 1.57865 258.532 1.60997C258.411 1.63252 258.35 1.6651 258.38 1.69141C258.398 1.7052 258.48 1.72274 258.627 1.66135C259.007 1.58617 259.293 1.57239 259.579 1.55861C259.652 1.55485 259.739 1.54231 259.79 1.54983C259.976 1.5799 260.15 1.61624 260.331 1.65007C260.539 1.64256 260.733 1.62375 260.937 1.67262C261.222 1.74153 261.235 1.73527 261.512 1.72148C261.655 1.71397 261.798 1.70771 261.94 1.70145C262.083 1.69518 262.195 1.71397 262.321 1.74279C262.576 1.80168 262.598 1.80167 262.766 1.72148C262.866 1.67262 262.935 1.65634 263.061 1.67889C263.476 1.75532 263.48 1.76033 263.835 1.73777C264.129 1.71898 264.406 1.71397 264.622 1.78539C264.769 1.8355 264.817 1.82423 264.934 1.77161C265.245 1.63253 265.388 1.63503 265.972 1.73527C266.244 1.78288 266.526 1.73151 266.802 1.72525C267.036 1.72024 267.2 1.7503 267.218 1.82924C267.231 1.8781 267.27 1.91319 267.425 1.92948C267.486 1.93574 267.559 1.94451 267.62 1.94201C267.979 1.92697 268.334 1.90943 268.693 1.89188C268.874 1.88311 268.974 1.82424 268.939 1.74655C268.9 1.66386 268.969 1.63378 269.229 1.60997C269.385 1.59619 269.51 1.5987 269.636 1.62126C269.774 1.64632 269.735 1.66887 269.614 1.71397C269.324 1.82423 269.359 1.89188 269.731 1.96831C269.861 1.99462 269.964 2.01844 269.995 2.05728C270.012 2.07733 269.995 2.10364 270.034 2.11868C270.246 2.20262 270.54 2.25651 270.868 2.2966C271.184 2.26277 271.401 2.31914 271.643 2.36425C271.833 2.39933 272.058 2.36927 272.261 2.35674C272.491 2.34296 272.681 2.35298 272.845 2.39934C272.962 2.43191 273.083 2.44694 273.226 2.44068C273.511 2.4269 273.801 2.41813 274.082 2.39808C274.325 2.38054 274.506 2.4056 274.658 2.4482C274.848 2.50208 275.06 2.46574 275.259 2.47326C275.527 2.48203 275.661 2.59354 276.012 2.56347C276.219 2.54592 276.436 2.53966 276.652 2.53465C276.708 2.5334 276.777 2.5547 276.825 2.56974C277.054 2.63865 277.322 2.63489 277.617 2.61484C277.82 2.60106 278.019 2.58853 278.218 2.63615C278.546 2.71634 278.91 2.78651 279.256 2.86043C279.304 2.91807 279.269 2.98571 279.515 3.01954C279.645 3.03708 279.766 3.0634 279.866 3.09222C279.987 3.12605 280.099 3.13483 280.255 3.12606C280.536 3.10851 280.831 3.10474 281.107 3.08219C281.363 3.06214 281.523 3.1035 281.678 3.14234C281.804 3.17367 281.921 3.1887 282.072 3.16614C282.228 3.14484 282.34 3.15862 282.466 3.19245C282.643 3.23881 282.656 3.23381 283.244 3.24759C283.305 3.24884 283.378 3.26762 283.413 3.28391C283.43 3.29268 283.391 3.31776 283.361 3.33029C283.322 3.34532 283.261 3.36285 283.205 3.36661C282.565 3.39919 281.921 3.42801 281.28 3.46058C281.215 3.46434 281.146 3.47312 281.099 3.48565C281.047 3.49943 280.982 3.51822 280.982 3.53576C280.982 3.54829 281.068 3.56333 281.129 3.5721C281.319 3.60092 281.544 3.55706 281.73 3.58964C281.856 3.61094 281.959 3.64101 282.085 3.66105C282.137 3.66982 282.219 3.66858 282.284 3.66607C282.5 3.6573 282.712 3.64477 282.928 3.63725C282.989 3.636 283.058 3.64854 283.114 3.65856C283.53 3.73374 283.53 3.73373 283.889 3.71744C284.031 3.71118 284.183 3.69238 284.317 3.6999C284.447 3.70742 284.559 3.74125 284.676 3.76255C284.918 3.80766 285.147 3.85151 285.165 3.94924C285.173 3.98683 285.316 4.0194 285.459 4.0219C285.597 4.02441 285.744 4.01064 285.887 4.00312C286.225 3.98809 286.225 3.98809 286.661 4.06452C286.783 4.08582 286.912 4.08832 287.068 4.07579C287.129 4.07078 287.202 4.07579 287.267 4.08206C287.479 4.10085 287.479 4.12465 287.341 4.16976C287.146 4.23617 287.163 4.24243 287.708 4.29882C287.916 4.32012 288.076 4.36021 288.249 4.3953C288.53 4.45168 288.526 4.45167 288.34 4.52559C288.297 4.54188 288.258 4.55943 288.214 4.57697C288.089 4.62583 287.989 4.67845 287.73 4.68347C287.444 4.68848 287.159 4.70853 286.873 4.72232C286.597 4.7361 286.523 4.76616 286.549 4.85136C286.579 4.9541 286.635 4.96538 287.133 4.96413C287.276 4.96413 287.401 4.97415 287.509 5.00798C287.457 5.04807 287.362 5.0794 287.224 5.08691C286.869 5.10571 286.51 5.122 286.155 5.13829C285.87 5.15207 285.584 5.16585 285.299 5.17963C285.122 5.1884 285.009 5.25356 285.057 5.32623C285.083 5.36758 285.104 5.40893 285.126 5.45027C285.173 5.53297 285.264 5.55427 285.554 5.55052C285.628 5.54926 285.697 5.53923 285.766 5.54174C286.047 5.55051 286.181 5.6545 286.519 5.6332C286.8 5.61566 287.094 5.6119 287.371 5.58935C287.626 5.5693 287.769 5.61442 287.946 5.64825C288.007 5.65953 288.072 5.68332 288.124 5.68207C288.483 5.66828 288.842 5.65451 289.192 5.63071C289.356 5.62068 289.456 5.6282 289.586 5.65827C289.897 5.73094 289.906 5.72718 290.369 5.70463C290.706 5.68709 290.71 5.68959 291.143 5.76602C291.264 5.78732 291.394 5.78732 291.549 5.77729C291.753 5.76476 291.965 5.74472 292.177 5.76351C292.242 5.76852 292.324 5.78356 292.345 5.79985C292.358 5.81113 292.298 5.83869 292.246 5.84746C291.865 5.91262 291.42 5.90134 291.004 5.92766C290.875 5.93517 290.745 5.91136 290.637 5.87753C290.524 5.8437 290.403 5.82993 290.256 5.83619C289.971 5.84998 289.681 5.85874 289.4 5.87879C289.157 5.89633 288.989 5.86751 288.82 5.82867C288.764 5.81614 288.699 5.79233 288.643 5.79358C288.002 5.81864 287.358 5.84371 286.722 5.87879C286.467 5.89382 286.32 5.85373 286.147 5.8199C286.086 5.80863 286.026 5.78482 285.969 5.78607C285.753 5.79108 285.541 5.80486 285.325 5.81489C284.538 5.85248 283.755 5.89006 282.967 5.92515C282.915 5.92765 282.851 5.90134 282.79 5.89006C282.673 5.86751 282.552 5.84621 282.431 5.8249C282.215 5.83493 282.003 5.84746 281.786 5.85497C281.631 5.85999 281.492 5.87753 281.471 5.92515C281.458 5.95647 281.6 5.98528 281.752 5.98278C281.899 5.98027 282.046 5.96524 282.167 5.98152C282.768 6.06171 282.768 6.06297 283.145 6.04668C283.473 6.03164 283.439 6.01911 283.729 6.08802C283.854 6.11809 283.967 6.13564 284.109 6.12812C284.464 6.11058 284.823 6.09304 285.182 6.078C285.238 6.0755 285.312 6.08803 285.368 6.09806C285.792 6.17323 285.792 6.17573 286.142 6.15694C286.601 6.13439 286.618 6.12812 286.925 6.20455C287.137 6.25718 287.332 6.22084 287.535 6.21833C287.769 6.2672 288.024 6.31106 288.236 6.36619C288.487 6.43134 288.751 6.42005 289.036 6.40126C289.248 6.38748 289.456 6.38247 289.629 6.43384C289.793 6.48145 289.992 6.48647 290.217 6.47394C290.42 6.46266 290.628 6.43885 290.84 6.46642C290.896 6.47393 290.983 6.49273 290.978 6.50401C290.974 6.52155 290.918 6.54661 290.862 6.55413C290.464 6.6055 290.027 6.60425 289.607 6.62805C289.551 6.63181 289.477 6.61802 289.421 6.608C289.3 6.58545 289.183 6.55914 289.066 6.53533C288.855 6.54285 288.638 6.54535 288.431 6.56039C288.271 6.57166 288.149 6.57042 288.033 6.54035C287.924 6.51279 287.808 6.47895 287.678 6.47018C287.548 6.46141 287.397 6.4802 287.254 6.48772C287.111 6.49524 286.947 6.49147 286.835 6.51152C286.722 6.53157 286.653 6.57543 286.579 6.61051C286.497 6.64935 286.385 6.66189 286.22 6.66565C286.069 6.66941 285.948 6.66439 285.835 6.62931C285.788 6.61427 285.723 6.60299 285.658 6.59297C285.597 6.58419 285.528 6.57041 285.472 6.57291C284.827 6.60173 284.187 6.63307 283.543 6.66314C283.223 6.67817 283.227 6.67816 282.561 6.60424C282.5 6.59797 282.427 6.58921 282.366 6.59171C282.007 6.60675 281.652 6.62429 281.293 6.64183C280.93 6.65937 280.934 6.65687 280.316 6.57793C280.203 6.5629 280.039 6.58294 279.905 6.58044C279.624 6.57417 279.485 6.46893 279.156 6.48898C278.875 6.50652 278.581 6.51027 278.3 6.53283C278.045 6.55287 277.898 6.50903 277.725 6.4752C277.664 6.46392 277.599 6.43886 277.547 6.44136C276.903 6.46893 276.263 6.50025 275.406 6.50401C275.194 6.50401 275.289 6.53033 275.428 6.5391C275.627 6.55288 275.692 6.52657 275.583 6.47645C275.506 6.44137 275.393 6.42381 275.302 6.43258C275.255 6.4376 275.194 6.46141 275.406 6.50401C275.631 6.55162 275.618 6.57793 275.657 6.59297C275.752 6.6293 275.886 6.64434 276.025 6.63932C276.241 6.63055 276.453 6.61803 276.669 6.61051C276.73 6.608 276.803 6.61677 276.86 6.6268C277.335 6.70448 277.34 6.7095 277.846 6.67943C278.006 6.67066 278.123 6.67066 278.248 6.69446C278.421 6.72704 278.547 6.78216 278.81 6.76462C279.161 6.74081 279.52 6.72704 279.879 6.71326C279.935 6.71075 279.996 6.73331 280.06 6.74333C280.238 6.7734 280.368 6.82978 280.631 6.80598C280.835 6.78718 281.055 6.78216 281.272 6.7784C281.328 6.77715 281.414 6.7972 281.44 6.81349C281.492 6.8423 281.427 6.87614 281.28 6.89995C281.22 6.90997 281.138 6.90746 281.068 6.91122C280.783 6.925 280.497 6.94003 280.212 6.95131C280.06 6.95757 279.918 6.97638 279.9 7.02274C279.887 7.05406 280.043 7.08162 280.19 7.07911C280.407 7.07535 280.623 7.06533 280.83 7.04904C281.198 7.02148 281.518 7.02899 281.817 7.10793C282.029 7.16306 282.016 7.14302 282.241 7.3059C282.297 7.34725 282.466 7.35101 282.613 7.3485C282.967 7.34224 283.132 7.36103 283.101 7.39988C283.062 7.44749 282.937 7.46251 282.777 7.46878C282.491 7.4788 282.206 7.4951 281.921 7.50888C281.851 7.51264 281.773 7.52015 281.709 7.51765C281.644 7.51514 281.583 7.50011 281.527 7.48883C281.406 7.46502 281.302 7.42868 281.172 7.41991C281.042 7.41114 280.891 7.42994 280.748 7.43745C280.606 7.44372 280.454 7.46251 280.324 7.45374C280.195 7.44497 280.086 7.40739 279.97 7.38484C279.913 7.37356 279.844 7.35601 279.788 7.35726C279.503 7.36729 279.217 7.38358 278.932 7.39611C278.581 7.4124 278.581 7.4124 278.157 7.33472C278.036 7.31217 277.911 7.31342 277.751 7.32345C277.405 7.34349 277.4 7.33973 276.769 7.26705C276.708 7.25954 276.635 7.25077 276.574 7.25453C275.929 7.28335 275.289 7.31467 274.649 7.34474C274.1 7.37105 274.1 7.37106 273.797 7.49636C273.572 7.58907 273.568 7.58907 273.788 7.63167C273.966 7.66675 274.126 7.71812 274.32 7.73691C274.502 7.75445 274.727 7.69807 274.926 7.75571C275.025 7.78453 275.155 7.81585 275.281 7.82087C275.48 7.82713 275.692 7.79079 275.882 7.84592C275.977 7.87348 276.12 7.90231 276.241 7.90356C276.453 7.90607 276.669 7.88601 276.881 7.87724C276.946 7.87474 277.02 7.87474 277.08 7.881C277.145 7.88852 277.201 7.90356 277.257 7.91609C277.43 7.95869 277.617 7.97873 277.841 7.95743C278.209 7.92235 278.538 7.93989 278.823 8.02008C278.862 8.03136 278.957 8.03262 279.018 8.02761C279.174 8.01508 279.308 8.01382 279.425 8.03762C279.472 8.04765 279.541 8.06518 279.533 8.07646C279.52 8.09525 279.468 8.12031 279.412 8.12658C279.005 8.16918 278.568 8.1742 278.149 8.19675C278.092 8.19926 278.023 8.18296 277.967 8.17168C277.846 8.14913 277.742 8.11155 277.612 8.10278C277.482 8.09401 277.331 8.1103 277.188 8.11656C277.046 8.12283 276.894 8.14162 276.764 8.1341C276.635 8.12533 276.513 8.094 276.41 8.06644C276.289 8.03512 276.172 8.03136 276.012 8.04389C275.804 8.06018 275.588 8.06269 275.376 8.07146C275.259 8.04765 275.142 8.02133 275.021 7.99878C274.965 7.9875 274.896 7.97372 274.835 7.97498C274.55 7.985 274.264 8.00003 273.979 8.01381C273.693 8.02759 273.693 8.02761 273.209 7.94992C273.152 7.94115 273.079 7.93113 273.018 7.93363C272.659 7.94867 272.305 7.96745 271.946 7.98249C271.807 7.98875 271.682 7.97121 271.569 7.93738C271.461 7.90355 271.331 7.88476 271.197 7.89102C270.626 7.91734 270.055 7.9424 269.484 7.97372C269.255 7.98625 269.06 7.97498 268.905 7.92987C268.723 7.8785 268.52 7.89103 268.308 7.90106C267.828 7.92612 267.823 7.92485 267.516 7.86095C267.455 7.84842 267.395 7.82461 267.339 7.82587C266.841 7.84466 266.34 7.86221 265.846 7.89228C265.587 7.90857 265.448 7.86471 265.275 7.83214C265.215 7.82086 265.15 7.79705 265.098 7.79956C264.739 7.81334 264.38 7.82588 264.03 7.85093C263.679 7.87599 263.545 7.75947 263.281 7.76073C262.922 7.76198 262.567 7.7908 262.213 7.80834C261.927 7.82212 261.642 7.8359 261.356 7.84968C261.071 7.86346 260.785 7.87473 260.5 7.89102C260.348 7.89979 260.236 7.88851 260.111 7.85719C259.951 7.81584 259.76 7.78328 259.587 7.74569C259.323 7.69181 259.323 7.69181 259.003 7.70684C258.934 7.7106 258.86 7.7131 258.791 7.71686C258.268 7.74443 258.268 7.74193 257.602 7.66299C257.571 7.65923 257.493 7.67302 257.463 7.68304C257.372 7.71562 257.29 7.7507 257.208 7.78452C257.091 7.76448 256.949 7.7532 256.871 7.72439C256.65 7.64294 256.304 7.75445 256.079 7.67426C255.997 7.64419 255.854 7.61788 255.724 7.61036C255.59 7.60284 255.439 7.62039 255.3 7.62791C254.941 7.6467 254.941 7.64545 254.634 7.75696C254.479 7.81209 254.254 7.80206 254.05 7.81459C253.838 7.82838 253.635 7.8359 253.458 7.78452C253.298 7.73817 253.103 7.72689 252.874 7.74193C252.593 7.76072 252.303 7.77199 252.017 7.78327C251.957 7.78578 251.883 7.77952 251.823 7.772C251.161 7.69807 251.161 7.69683 250.841 7.71311C250.698 7.72063 250.551 7.72313 250.412 7.7344C250.179 7.75445 250.002 7.72814 249.833 7.68805C249.777 7.67552 249.712 7.65172 249.655 7.65297C249.37 7.65924 249.089 7.67051 248.808 7.68179C248.591 7.69056 248.375 7.69557 248.167 7.71311C247.821 7.74193 247.653 7.66048 247.415 7.62289C247.06 7.63918 246.701 7.65046 246.346 7.67301C246.182 7.68303 246.074 7.67928 245.948 7.64921C245.788 7.61162 245.641 7.56902 245.382 7.58782C245.036 7.61288 244.672 7.62165 244.318 7.63668C244.08 7.59784 243.907 7.5189 243.565 7.54772C243.357 7.56526 243.137 7.56902 242.925 7.57904C242.639 7.59282 242.354 7.60536 242.068 7.6204C241.761 7.63543 241.765 7.63167 241.294 7.55775C241.021 7.5139 240.74 7.56276 240.463 7.57027C240.247 7.57654 240.139 7.63417 240.191 7.7081C240.243 7.78202 240.126 7.83966 239.927 7.84968C239.43 7.87349 238.928 7.89854 238.43 7.91984C238.37 7.92234 238.296 7.91357 238.24 7.9048C237.708 7.82587 237.708 7.82713 237.47 7.83841C237.115 7.8572 236.752 7.86722 236.402 7.89102C236.159 7.90731 235.982 7.88101 235.826 7.83841C235.705 7.80583 235.593 7.79831 235.437 7.80583C233.724 7.88978 232.011 7.96746 230.302 8.05391C230.047 8.06644 229.9 8.03011 229.727 7.99628C229.667 7.98501 229.61 7.9612 229.55 7.9612C229.407 7.9612 229.264 7.97248 229.121 7.97999C228.481 8.01006 227.841 8.04639 227.197 8.06895C226.924 8.07897 226.851 8.13661 226.734 8.18423C226.643 8.22056 226.539 8.23559 226.379 8.2406C226.223 8.24561 226.111 8.23935 225.99 8.20677C225.834 8.16417 225.657 8.13785 225.414 8.15539C225.133 8.17544 224.848 8.18422 224.558 8.198C224.411 8.20427 224.298 8.22682 224.251 8.27192C224.242 8.27944 224.333 8.29824 224.385 8.30952C224.558 8.34711 224.722 8.39096 224.917 8.41727C225.116 8.44358 225.332 8.4135 225.54 8.40598C225.613 8.40348 225.683 8.39597 225.752 8.39722C225.817 8.39847 225.895 8.40474 225.942 8.41602C226.167 8.4724 226.405 8.51124 226.716 8.47741C226.985 8.4937 227.123 8.59769 227.465 8.57013C227.672 8.55384 227.889 8.54632 228.105 8.54006C228.161 8.53881 228.222 8.56136 228.282 8.57264C228.455 8.60396 228.594 8.65408 228.853 8.63278C229.13 8.61022 229.424 8.60647 229.705 8.58893C229.861 8.5789 229.974 8.58767 230.095 8.62025C230.25 8.6616 230.428 8.69291 230.67 8.67286C230.878 8.65532 231.098 8.65156 231.31 8.64029C231.587 8.6265 231.587 8.62776 232.08 8.70544C232.137 8.71421 232.21 8.72424 232.271 8.72173C232.63 8.7067 232.984 8.6879 233.343 8.67286C233.482 8.6666 233.616 8.68289 233.711 8.71922C233.75 8.73426 233.737 8.75933 233.75 8.78063C233.036 8.81446 232.322 8.84327 231.613 8.88462C231.345 8.90091 231.224 8.84954 231.046 8.82072C230.986 8.8107 230.921 8.7894 230.865 8.7919C230.363 8.8132 229.866 8.83575 229.368 8.86331C229.212 8.87209 229.096 8.86707 228.979 8.83074C228.68 8.73426 228.317 8.78689 227.98 8.80067C227.72 8.81069 227.638 8.84954 227.668 8.93223C227.707 9.02996 227.863 9.06004 228.261 9.04249C228.403 9.03623 228.546 9.02745 228.689 9.02244C228.827 9.01743 228.953 9.03372 229.065 9.06755C229.173 9.10138 229.303 9.11892 229.437 9.11391C229.723 9.10263 230.013 9.09136 230.289 9.07256C230.519 9.05753 230.709 9.07006 230.869 9.11641C231.046 9.16778 231.254 9.15651 231.462 9.14523C231.946 9.12017 231.95 9.12143 232.253 9.18408C232.314 9.19661 232.374 9.22042 232.431 9.21916C232.928 9.20037 233.43 9.18408 233.919 9.15401C234.174 9.13897 234.321 9.17906 234.49 9.21164C234.55 9.22292 234.611 9.24798 234.667 9.24547C235.026 9.23169 235.385 9.2179 235.735 9.1941C235.9 9.18282 235.999 9.19033 236.133 9.2204C236.453 9.29433 236.462 9.29182 236.916 9.26802C237.055 9.2605 237.206 9.24672 237.336 9.25674C237.466 9.26677 237.57 9.30311 237.691 9.32566C237.747 9.33569 237.816 9.34946 237.877 9.34695C238.162 9.33693 238.448 9.3219 238.733 9.30812C239.001 9.29434 239.001 9.29559 239.503 9.37328C239.706 9.40585 239.918 9.37828 240.122 9.36826C240.342 9.35698 240.541 9.35699 240.71 9.40585C240.879 9.45472 241.082 9.4522 241.298 9.44218C241.502 9.43215 241.709 9.4046 241.917 9.43843C242.393 9.51611 242.393 9.51735 242.687 9.50232C243.115 9.48102 243.539 9.46097 243.972 9.44218C244.028 9.43967 244.101 9.45471 244.157 9.46474C244.279 9.48729 244.382 9.52487 244.512 9.53364C244.642 9.54366 244.793 9.52863 244.932 9.52112C245.377 9.49731 245.408 9.48854 245.706 9.57124C245.957 9.6389 246.268 9.54117 246.502 9.61885C246.636 9.6627 246.818 9.69778 247.069 9.67648C247.276 9.65894 247.493 9.65393 247.709 9.6439C248.051 9.62761 248.051 9.62888 248.483 9.70406C248.539 9.71408 248.613 9.7266 248.669 9.72409C248.955 9.71407 249.245 9.7053 249.521 9.68275C249.846 9.65644 250.053 9.70406 250.296 9.75041C250.486 9.78675 250.711 9.75667 250.914 9.74414C251.135 9.73162 251.334 9.73537 251.498 9.78423C251.671 9.83435 251.874 9.82809 252.091 9.81806C252.294 9.80929 252.502 9.78047 252.709 9.81556C253.155 9.89324 253.155 9.89324 253.479 9.8782C253.765 9.86442 254.05 9.84939 254.336 9.83937C254.392 9.83686 254.461 9.85315 254.517 9.86442C254.639 9.88698 254.742 9.92457 254.872 9.93334C255.002 9.94211 255.153 9.92583 255.296 9.91956C255.439 9.9133 255.59 9.8945 255.72 9.90202C255.85 9.90954 255.971 9.94086 256.075 9.96843C256.196 10.001 256.308 10.0048 256.473 9.99223C256.68 9.97594 256.897 9.97218 257.108 9.96341C257.225 9.98722 257.346 10.011 257.459 10.0373C257.576 10.0649 257.701 10.0624 257.861 10.0536C258.393 10.0235 258.398 10.0273 258.843 10.105C259.046 10.1401 259.258 10.1113 259.462 10.1025C259.678 10.0925 259.881 10.0875 260.05 10.1376C260.214 10.1852 260.418 10.1914 260.634 10.1764C260.772 10.1664 260.919 10.1601 261.062 10.1564C261.127 10.1551 261.205 10.1601 261.253 10.1702C261.482 10.2228 261.707 10.2704 262.022 10.2366C262.299 10.2466 262.438 10.3493 262.771 10.3293C263.052 10.3117 263.346 10.308 263.623 10.2854C263.878 10.2654 264.06 10.3005 264.19 10.3443C264.423 10.422 264.752 10.3168 264.986 10.3932C265.12 10.437 265.293 10.4721 265.552 10.4533C265.838 10.4333 265.929 10.4596 266.011 10.5385C266.058 10.5836 266.05 10.62 265.963 10.655C265.877 10.6914 265.782 10.6851 265.643 10.6438C265.483 10.5974 265.293 10.5886 265.063 10.5987C264.839 10.6087 264.7 10.5435 264.514 10.5185C264.328 10.4922 264.108 10.536 263.913 10.5022C263.454 10.4233 263.454 10.4233 263.143 10.4383C262.931 10.4483 262.71 10.4533 262.503 10.4709C262.256 10.4922 262.096 10.4533 261.927 10.4182C261.867 10.4057 261.806 10.3819 261.754 10.3831C261.257 10.4019 260.755 10.4195 260.262 10.4508C260.002 10.4671 259.864 10.422 259.691 10.3907C259.63 10.3794 259.565 10.3568 259.514 10.3593C259.085 10.3769 258.661 10.3994 258.233 10.4207C258.151 10.4546 258.06 10.4871 257.982 10.5235C257.9 10.5611 257.788 10.5774 257.623 10.5761C257.351 10.5761 257.083 10.6287 256.81 10.5623C256.529 10.4947 256.507 10.4984 256.235 10.5147C255.889 10.536 255.521 10.531 255.197 10.5799C255.14 10.5886 255.08 10.6124 255.08 10.63C255.075 10.6413 255.166 10.6575 255.223 10.6676C255.413 10.6976 255.633 10.6538 255.824 10.6851C255.949 10.7052 256.053 10.7352 256.178 10.7565C256.23 10.7653 256.308 10.764 256.377 10.7628C256.451 10.7615 256.52 10.7528 256.589 10.754C256.654 10.7553 256.724 10.7628 256.776 10.7741C257.013 10.8217 257.264 10.8655 257.476 10.9219C257.684 10.9771 257.878 10.9395 258.086 10.937C258.917 11.0247 258.917 11.0259 259.475 10.9984C259.613 10.9921 259.756 10.9846 259.899 10.9858C259.959 10.9858 260.015 11.0084 260.076 11.0209C260.249 11.0585 260.413 11.0923 260.656 11.0723C260.863 11.0547 261.084 11.051 261.296 11.0397C261.581 11.0259 261.581 11.0259 262.066 11.1048C262.187 11.1249 262.317 11.1224 262.472 11.1124C262.606 11.1036 262.745 11.1224 262.84 11.1587C262.879 11.1738 262.866 11.1988 262.879 11.2201C262.451 11.2402 262.018 11.254 261.603 11.284C261.335 11.3028 261.214 11.2489 261.036 11.2201C260.976 11.2101 260.911 11.1888 260.855 11.1913C260.431 11.2101 260.007 11.2314 259.583 11.2565C259.531 11.259 259.466 11.2878 259.462 11.3053C259.453 11.3379 259.561 11.3692 259.717 11.368C259.924 11.3667 260.128 11.3454 260.314 11.3968C260.47 11.4419 260.664 11.4619 260.893 11.4419C261.032 11.4306 261.179 11.4306 261.317 11.4206C261.685 11.3905 262.018 11.3968 262.295 11.482C262.507 11.5045 262.715 11.4832 262.918 11.472C263.069 11.4632 263.216 11.4544 263.324 11.4782C263.554 11.5283 263.779 11.5785 264.094 11.5446C264.436 11.5797 264.696 11.6536 264.981 11.7138C265.115 11.7426 265.219 11.7589 265.375 11.7401C265.44 11.7326 265.518 11.7326 265.587 11.7288C265.73 11.7226 265.881 11.7038 266.011 11.7113C266.141 11.72 266.249 11.7564 266.365 11.7789C266.422 11.7902 266.487 11.809 266.543 11.8078C266.759 11.8015 266.971 11.789 267.183 11.7789C267.395 11.7702 267.607 11.7614 267.819 11.7526C267.996 11.7852 268.178 11.8178 268.355 11.8504C268.641 11.8366 268.926 11.8228 269.207 11.8103C269.523 11.7952 269.523 11.7965 269.977 11.8742C270.181 11.9092 270.397 11.8867 270.592 11.8704C270.916 11.8441 271.132 11.8917 271.362 11.9418C271.409 11.9519 271.496 11.9581 271.552 11.9531C271.777 11.9356 271.971 11.9493 272.136 11.9957C272.253 12.0283 272.369 12.0433 272.512 12.0371C273.01 12.0132 273.507 11.9882 274.005 11.9669C274.065 11.9644 274.134 11.9757 274.191 11.9857C274.632 12.0621 274.636 12.0659 274.96 12.0458C275.25 12.0283 275.519 12.0208 275.748 12.0897C275.795 12.1047 275.869 12.126 275.921 12.1248C276.275 12.1122 276.635 12.0984 276.985 12.0771C277.145 12.0671 277.257 12.0709 277.383 12.0997C277.543 12.136 277.686 12.1799 277.95 12.1636C278.681 12.1172 278.685 12.1247 279.55 12.2112C279.611 12.2175 279.693 12.2074 279.762 12.2024C279.909 12.1899 280.017 12.2075 280.147 12.2363C280.437 12.3014 280.445 12.2977 280.722 12.2839C280.934 12.2726 281.155 12.2701 281.362 12.2513C281.683 12.2237 281.895 12.2726 282.132 12.319C282.323 12.3553 282.543 12.3252 282.747 12.314C282.967 12.3014 283.166 12.3052 283.331 12.3528C283.443 12.3854 283.564 12.4029 283.707 12.3967C284.204 12.3741 284.702 12.349 285.199 12.3265C285.26 12.324 285.333 12.334 285.39 12.3428C285.883 12.4205 285.883 12.4242 286.372 12.3954C286.527 12.3866 286.657 12.3841 286.774 12.4104C286.886 12.4355 287.008 12.4593 287.124 12.4831C287.336 12.4743 287.553 12.4718 287.76 12.4568C287.92 12.4455 288.033 12.4505 288.158 12.4768C288.322 12.5107 288.461 12.5695 288.72 12.5407C288.855 12.5269 289.01 12.5307 289.144 12.5182C289.304 12.5019 289.413 12.5119 289.538 12.5445C289.694 12.5833 289.854 12.6234 290.105 12.6034C290.381 12.5808 290.676 12.5771 290.957 12.5595C291.112 12.5495 291.221 12.5595 291.346 12.5921C291.502 12.6335 291.679 12.6598 291.921 12.6435C292.415 12.6122 292.419 12.6184 292.899 12.6973C293.02 12.7174 293.15 12.7149 293.306 12.7049C293.44 12.6961 293.578 12.7149 293.673 12.7512C293.764 12.7913 293.755 12.8164 293.764 12.8377ZM255.218 1.5373C255.075 1.54357 254.933 1.55109 254.725 1.44208C254.712 1.42328 254.721 1.40074 254.691 1.38445C254.621 1.35062 254.513 1.32681 254.383 1.32305C254.15 1.31804 253.869 1.36063 253.873 1.39321C253.877 1.42078 253.951 1.44458 254.094 1.46713C254.154 1.4759 254.202 1.49094 254.258 1.50096C254.422 1.52978 254.552 1.58617 254.79 1.55736C254.747 1.47967 254.768 1.51851 254.79 1.55736C254.768 1.60497 254.833 1.6388 254.989 1.65258C255.032 1.65634 255.097 1.65383 255.132 1.64631C255.266 1.61875 255.287 1.58116 255.188 1.48218C255.171 1.49847 255.184 1.52728 255.223 1.5348C255.261 1.54231 255.357 1.53606 255.404 1.52729C255.525 1.50348 255.586 1.47215 255.556 1.44584C255.538 1.43206 255.456 1.41452 255.404 1.41452C255.313 1.41452 255.231 1.44208 255.218 1.5373ZM290.195 16.0678C289.88 16.0916 289.516 16.0828 289.201 16.1317C289.144 16.1405 289.088 16.163 289.084 16.1806C289.079 16.1918 289.166 16.2081 289.218 16.2169C289.335 16.2369 289.464 16.2307 289.616 16.2244C289.845 16.2156 289.979 16.2733 290.157 16.3021C290.213 16.3109 290.286 16.3171 290.347 16.3146C290.697 16.2996 291.043 16.2833 291.394 16.2658C291.454 16.262 291.519 16.2532 291.571 16.242C291.744 16.2056 291.727 16.1818 291.558 16.1543C291.372 16.1242 291.225 16.0741 291.035 16.0503C290.762 16.0164 290.485 16.0615 290.195 16.0678ZM265.63 16.9825C265.418 16.9925 265.21 17.0025 264.998 17.0125C264.929 17.0163 264.856 17.0175 264.791 17.0225C264.657 17.0313 264.557 17.0576 264.492 17.099C264.592 17.1315 264.713 17.1503 264.847 17.1466C265.059 17.1391 265.267 17.1228 265.479 17.119C265.708 17.114 265.842 17.1704 266.019 17.1992C266.076 17.208 266.145 17.2092 266.21 17.2105C266.53 17.2155 266.724 17.1503 266.664 17.0589C266.621 16.9875 266.456 16.9449 266.257 16.9536C266.05 16.9624 265.838 16.9724 265.63 16.9825ZM291.675 14.2159C291.727 14.1946 291.783 14.1796 291.809 14.1608C291.887 14.0969 291.857 14.0493 291.714 13.9992C291.541 13.9378 291.329 13.9791 291.134 13.9854C291.087 13.9866 291.035 14.0129 291.009 14.0292C290.991 14.0405 290.991 14.0643 291.017 14.0706C291.229 14.1207 291.454 14.1671 291.675 14.2159ZM254.15 10.5147C253.942 10.5247 253.73 10.5323 253.523 10.546C253.471 10.5498 253.423 10.5736 253.393 10.5899C253.337 10.62 253.397 10.6613 253.574 10.6651C253.778 10.6701 253.99 10.6488 254.202 10.6388C254.47 10.6262 254.63 10.5799 254.53 10.5398C254.435 10.5009 254.306 10.4934 254.15 10.5147ZM26.4514 7.83715C26.5898 7.83089 26.7325 7.82587 26.8709 7.8171C27.0007 7.80833 27.1003 7.78077 27.1652 7.73942C27.057 7.70684 26.9359 7.6893 26.8018 7.69306C26.5898 7.70058 26.3822 7.7106 26.1746 7.72313C26.0448 7.73065 25.9194 7.75821 25.8891 7.80081C25.8588 7.83339 26.1486 7.85219 26.4514 7.83715ZM235.857 7.64419C235.913 7.65547 235.969 7.67803 236.025 7.67803C236.164 7.67803 236.306 7.67051 236.436 7.65798C236.492 7.65296 236.536 7.63041 236.562 7.61287C236.579 7.60159 236.575 7.58155 236.549 7.57153C236.423 7.51139 235.921 7.53269 235.839 7.6016C235.831 7.61413 235.852 7.63041 235.857 7.64419ZM222.209 0.783024C222.222 0.803071 222.226 0.823116 222.244 0.843163C222.278 0.880752 222.373 0.908322 222.512 0.927117C222.62 0.895793 222.676 0.860716 222.672 0.823127C222.668 0.80308 222.655 0.78302 222.637 0.762972C222.603 0.725384 222.508 0.697829 222.369 0.679034C222.261 0.709105 222.209 0.744182 222.209 0.783024ZM301.671 17.2005C301.633 17.2168 301.594 17.233 301.55 17.2481C301.667 17.2844 301.775 17.2957 301.858 17.2756C301.909 17.2631 301.94 17.2443 301.979 17.228C301.862 17.1917 301.758 17.1817 301.671 17.2005ZM298.981 17.3709C299.037 17.3821 299.089 17.3972 299.15 17.4047C299.249 17.4172 299.34 17.3959 299.409 17.3508C299.353 17.3395 299.301 17.3245 299.24 17.317C299.141 17.3045 299.05 17.3258 298.981 17.3709ZM300.685 17.1416C300.655 17.1717 300.716 17.1967 300.876 17.218C300.915 17.2017 300.966 17.1867 300.992 17.1691C301.036 17.1403 300.962 17.114 300.806 17.094C300.763 17.109 300.724 17.1253 300.685 17.1416ZM291.554 15.7909C291.523 15.821 291.584 15.846 291.744 15.8673C291.783 15.851 291.835 15.836 291.861 15.8185C291.904 15.7896 291.831 15.7633 291.675 15.7433C291.632 15.7583 291.593 15.7746 291.554 15.7909ZM279.113 6.925C279.074 6.94129 279.035 6.95758 278.992 6.97261C279.109 7.00895 279.217 7.02022 279.299 7.00017C279.351 6.98765 279.381 6.96885 279.42 6.95256C279.303 6.91623 279.2 6.90621 279.113 6.925ZM267.196 2.22141C267.3 2.23018 267.386 2.21265 267.46 2.16629C267.404 2.15501 267.352 2.13997 267.291 2.13246C267.192 2.11993 267.101 2.14123 267.032 2.18634C267.088 2.19887 267.144 2.21013 267.196 2.22141ZM260.868 1.92697C260.829 1.94326 260.79 1.95955 260.746 1.97458C260.863 2.01092 260.971 2.02219 261.054 2.00214C261.105 1.98962 261.136 1.97082 261.175 1.95453C261.058 1.9182 260.954 1.90943 260.868 1.92697ZM217.953 0.78177C217.914 0.798058 217.875 0.814347 217.832 0.829383C217.948 0.865718 218.057 0.876991 218.139 0.856944C218.191 0.844414 218.221 0.825619 218.26 0.809331C218.143 0.772995 218.039 0.764228 217.953 0.78177ZM4.26937 10.9758C4.21314 10.9645 4.15695 10.9532 4.10505 10.9407C3.9796 10.9746 3.94068 11.0059 4.00989 11.0297C4.05315 11.0447 4.11799 11.0535 4.17422 11.0648C4.30399 11.0309 4.33426 11.0009 4.26937 10.9758Z" fill="#4F9CF9"/>
<path d="M29.3578 6.55139C28.8603 6.5752 28.3672 6.60526 27.8698 6.6203C27.6059 6.62781 27.5108 6.68169 27.4027 6.73181C27.3162 6.77191 27.2167 6.78443 27.0566 6.79195C25.707 6.85335 24.3617 6.9185 23.0164 6.9824C22.8477 6.96611 22.7655 6.93981 22.8045 6.90848C22.8261 6.88969 22.878 6.86338 22.9299 6.86087C23.8513 6.81451 24.7683 6.76689 25.694 6.73056C25.9578 6.72053 26.0314 6.6654 26.1655 6.6203C26.2088 6.60526 26.2434 6.58271 26.2996 6.57394C26.3559 6.56391 26.438 6.56517 26.5116 6.56267C27.9996 6.49125 29.4877 6.42109 30.9757 6.34967C31.1444 6.36596 31.2266 6.39227 31.1876 6.42359C31.166 6.44238 31.1141 6.4687 31.0622 6.4712C30.4912 6.49752 29.9244 6.52383 29.3578 6.55139Z" fill="#4F9CF9"/>
<path d="M301.728 13.2236C301.503 13.2387 301.218 13.26 300.984 13.1873C300.872 13.1522 300.751 13.1409 300.604 13.1484C300.392 13.161 300.175 13.171 299.959 13.1785C299.903 13.1798 299.829 13.166 299.773 13.1547C299.652 13.1322 299.548 13.0946 299.418 13.0845C299.289 13.0745 299.133 13.1021 298.999 13.0958C298.821 13.087 298.748 13.0532 298.795 13.0219C298.821 13.0044 298.873 12.9793 298.93 12.9755C299.73 12.9292 299.734 12.9292 299.959 12.9743C300.132 13.0094 300.292 13.0482 300.539 13.0269C300.746 13.0094 300.967 13.0056 301.179 12.9943C301.473 12.9793 301.473 12.9805 301.949 13.0595C302.07 13.0795 302.2 13.0783 302.355 13.067C302.49 13.0582 302.619 13.0783 302.727 13.1121C302.658 13.1547 302.559 13.1823 302.425 13.1898C302.208 13.2023 301.996 13.2111 301.728 13.2236Z" fill="#4F9CF9"/>
<path d="M293.766 12.8376C294.311 12.8113 294.86 12.7888 295.405 12.7587C295.63 12.7462 295.807 12.76 295.963 12.8026C296.132 12.8489 296.322 12.8452 296.53 12.8364C296.66 12.8314 296.785 12.8514 296.872 12.8865C296.906 12.9003 296.897 12.9254 296.91 12.9454C296.435 12.968 295.954 12.9918 295.474 13.0118C295.418 13.0143 295.349 13.0018 295.297 12.9918C295.18 12.9705 295.081 12.9329 294.955 12.9254C294.687 12.9078 294.419 12.9416 294.146 12.9479C294.017 12.9504 293.891 12.9316 293.805 12.8978C293.77 12.8815 293.779 12.8577 293.766 12.8376Z" fill="#4F9CF9"/>
<path d="M96.7959 2.06471C97.3626 2.03714 97.9292 2.01084 98.4959 1.98328C98.6646 2.00082 98.7425 2.02587 98.7079 2.0572C98.6862 2.07599 98.6343 2.1023 98.5824 2.10481C97.4491 2.16119 96.3158 2.21506 95.1868 2.26894C95.0181 2.2514 94.9403 2.22634 94.9749 2.19502C94.9965 2.17622 95.0484 2.14991 95.1003 2.14741C95.6627 2.11859 96.2293 2.09227 96.7959 2.06471Z" fill="#4F9CF9"/>
<path d="M9.47787 9.02775C9.22266 9.03026 8.95452 9.07662 8.66903 9.04153C8.61279 9.03527 8.53491 9.01522 8.53924 9.00394C8.54789 8.98514 8.5998 8.96134 8.65604 8.95382C8.9026 8.92249 9.20975 8.91874 9.33519 8.83103C9.39575 8.78592 9.50822 8.7709 9.65962 8.76213C9.81967 8.7521 9.9321 8.75585 10.0575 8.78216C10.2219 8.81599 10.3604 8.87864 10.6199 8.84607C10.6329 8.86611 10.6631 8.88866 10.6501 8.90746C10.6371 8.92625 10.581 8.9438 10.5291 8.95758C10.4815 8.97011 10.4166 8.98138 10.356 8.98514C10.0705 9.00018 9.78499 9.01272 9.47787 9.02775Z" fill="#4F9CF9"/>
<path d="M234.447 8.77575C234.659 8.76573 234.88 8.76071 235.087 8.74317C235.252 8.72939 235.356 8.73815 235.485 8.76822C235.706 8.82085 235.719 8.81584 236.26 8.82336C236.32 8.82461 236.394 8.8434 236.428 8.85969C236.45 8.86846 236.42 8.89228 236.394 8.90481C236.355 8.9211 236.299 8.94239 236.247 8.94239C235.905 8.94615 235.559 9.02008 235.226 8.93488C235.057 8.89228 234.871 8.87222 234.642 8.89101C234.503 8.90229 234.356 8.9073 234.214 8.91232C234.075 8.91733 233.933 8.90355 233.846 8.86596C233.721 8.81083 233.794 8.78953 234.019 8.79329C234.162 8.7958 234.305 8.78201 234.447 8.77575Z" fill="#4F9CF9"/>
<path d="M312.843 17.4124C313.116 17.3999 313.388 17.3848 313.665 17.3748C313.722 17.3723 313.791 17.3861 313.843 17.3949C314.05 17.4325 314.02 17.4963 314.029 17.5527C314.033 17.6116 313.553 17.6592 313.35 17.6191C313.125 17.574 312.921 17.5227 312.61 17.5502C312.489 17.5603 312.346 17.5377 312.268 17.5014C312.151 17.4487 312.216 17.4274 312.437 17.4312C312.567 17.4337 312.705 17.4199 312.843 17.4124Z" fill="#4F9CF9"/>
<path d="M175.514 0.358375C175.795 0.344592 176.076 0.323302 176.357 0.322049C176.522 0.320796 176.604 0.362136 176.565 0.392207C176.543 0.411001 176.491 0.437314 176.439 0.43982C175.877 0.46989 175.315 0.494954 174.752 0.522519C174.588 0.504977 174.506 0.47867 174.545 0.448599C174.566 0.429804 174.618 0.404745 174.67 0.400986C174.951 0.383445 175.232 0.372157 175.514 0.358375Z" fill="#4F9CF9"/>
<path d="M307.45 13.334C307.722 13.3215 307.999 13.3027 308.272 13.2964C308.414 13.2939 308.527 13.3227 308.544 13.3553C308.553 13.3703 308.484 13.3966 308.427 13.4029C308.038 13.4455 307.618 13.4505 307.212 13.4718C307.082 13.4781 306.944 13.458 306.866 13.423C306.749 13.3691 306.814 13.3491 307.035 13.3528C307.173 13.3541 307.311 13.3403 307.45 13.334Z" fill="#4F9CF9"/>
<path d="M241.592 8.94482C241.731 8.93855 241.873 8.92226 242.007 8.92727C242.15 8.93354 242.241 8.96987 242.284 9.00621C242.332 9.04756 242.327 9.08641 242.284 9.12149C242.215 9.18163 242.146 9.17913 241.986 9.13903C241.739 9.07638 241.722 9.0839 241.233 9.0864C241.177 9.0864 241.108 9.0676 241.064 9.05132C240.999 9.02626 241.034 8.98742 241.185 8.96487C241.298 8.94858 241.454 8.95108 241.592 8.94482Z" fill="#4F9CF9"/>
<path d="M297.315 12.9231C297.518 12.9131 297.721 12.8968 297.925 12.8968C298.067 12.8955 298.18 12.9243 298.193 12.9557C298.197 12.9707 298.132 12.9957 298.08 13.0033C297.834 13.0371 297.557 13.0396 297.289 13.0509C297.163 13.0559 297.025 13.0358 296.947 13.0008C296.83 12.9481 296.9 12.9243 297.111 12.9318C297.176 12.9343 297.246 12.9268 297.315 12.9231Z" fill="#4F9CF9"/>
<path d="M265.318 11.3857C265.015 11.4008 264.73 11.382 264.751 11.3494C264.781 11.3068 264.907 11.2792 265.037 11.2717C265.244 11.2592 265.452 11.2492 265.664 11.2416C265.798 11.2366 265.919 11.2554 266.027 11.288C265.962 11.3281 265.863 11.3569 265.733 11.3657C265.599 11.3745 265.456 11.3795 265.318 11.3857Z" fill="#4F9CF9"/>
<path d="M263.334 11.2252C263.538 11.2152 263.741 11.1989 263.944 11.1989C264.087 11.1976 264.199 11.2265 264.212 11.2578C264.217 11.2728 264.152 11.2979 264.1 11.3054C263.853 11.3392 263.576 11.3417 263.308 11.353C263.183 11.358 263.044 11.338 262.967 11.3029C262.85 11.2503 262.919 11.2265 263.131 11.234C263.196 11.2365 263.265 11.229 263.334 11.2252Z" fill="#4F9CF9"/>
<path d="M239.139 8.93496C239.342 8.92494 239.546 8.90864 239.749 8.90739C239.892 8.90614 240.004 8.93496 240.017 8.96629C240.021 8.98132 239.957 9.00513 239.905 9.0139C239.658 9.04773 239.381 9.05024 239.113 9.06151C238.988 9.06653 238.849 9.04648 238.771 9.01139C238.654 8.95877 238.724 8.93496 238.936 8.94247C239 8.94498 239.07 8.93747 239.139 8.93496Z" fill="#4F9CF9"/>
<path d="M238.002 8.86102C238.219 8.85099 238.288 8.84473 238.357 8.84473C238.487 8.84473 238.621 8.85977 238.699 8.8961C238.816 8.94873 238.746 8.96377 238.534 8.96627C238.262 8.96878 237.994 8.99509 237.721 9.00011C237.578 9.00261 237.466 8.97253 237.457 8.94121C237.453 8.92617 237.518 8.89986 237.57 8.89485C237.751 8.87605 237.95 8.86477 238.002 8.86102Z" fill="#4F9CF9"/>
<path d="M261.572 1.48967C261.434 1.49594 261.287 1.51348 261.157 1.50722C260.984 1.49845 260.915 1.46462 260.958 1.4333C260.984 1.41576 261.031 1.3907 261.083 1.38694C261.36 1.3694 261.641 1.35811 261.918 1.34558C262.083 1.36438 262.156 1.39069 262.113 1.42201C262.087 1.43955 262.039 1.46336 261.987 1.46837C261.853 1.4809 261.71 1.48341 261.572 1.48967Z" fill="#4F9CF9"/>
<path d="M93.6928 2.21235C93.8269 2.21109 93.948 2.22738 94.0518 2.25871C93.9869 2.2988 93.8918 2.32511 93.762 2.33639C93.6971 2.3414 93.6236 2.34515 93.5544 2.34641C93.4203 2.34891 93.2991 2.33137 93.1953 2.30005C93.2602 2.25995 93.3597 2.23364 93.4851 2.22237C93.55 2.21735 93.6236 2.21611 93.6928 2.21235Z" fill="#4F9CF9"/>
<path d="M305.973 13.3291C305.968 13.2927 306.232 13.2514 306.47 13.2527C306.596 13.2539 306.725 13.2715 306.799 13.3053C306.911 13.3567 306.846 13.3767 306.634 13.3729C306.505 13.3704 306.366 13.3917 306.237 13.388C306.089 13.3867 306.003 13.3592 305.973 13.3291Z" fill="#4F9CF9"/>
<path d="M242.845 9.0965C242.841 9.08271 242.819 9.06643 242.832 9.0539C242.914 8.98499 243.412 8.96369 243.542 9.02383C243.563 9.03511 243.572 9.0539 243.555 9.06517C243.529 9.08271 243.481 9.10527 243.429 9.11028C243.295 9.12281 243.157 9.12908 243.018 9.13033C242.958 9.13033 242.901 9.10903 242.845 9.0965Z" fill="#4F9CF9"/>
<path d="M11.0173 8.82713C10.5068 8.85344 10.4982 8.85093 10.589 8.78828C10.6712 8.7319 10.8226 8.69807 11.0433 8.69807C11.1081 8.69807 11.1773 8.69557 11.2336 8.70058C11.2941 8.70685 11.3807 8.71936 11.3937 8.7344C11.4196 8.76322 11.346 8.79454 11.2162 8.81584C11.16 8.82587 11.0865 8.82337 11.0173 8.82713Z" fill="#4F9CF9"/>
<path d="M100.083 2.03617C99.9312 2.05747 99.8015 2.04995 99.7063 2.00986C99.6112 1.96977 99.7626 1.92215 100.026 1.91087C100.096 1.90837 100.169 1.89835 100.234 1.90336C100.299 1.90712 100.364 1.92214 100.403 1.93718C100.472 1.96224 100.429 1.99608 100.29 2.0249C100.234 2.03617 100.152 2.03366 100.083 2.03617Z" fill="#4F9CF9"/>
<path d="M305.072 13.2348C305.11 13.2185 305.149 13.2022 305.193 13.1872C305.353 13.2085 305.422 13.2336 305.379 13.2624C305.353 13.2799 305.301 13.2949 305.262 13.3112C305.102 13.2899 305.037 13.2636 305.072 13.2348Z" fill="#4F9CF9"/>
<path d="M17.8691 23.0904C17.8691 23.0754 17.9297 23.0516 17.9773 23.0465C18.0681 23.0378 18.1805 23.0553 18.2584 23.0904C18.3665 23.1405 18.3017 23.1668 18.1027 23.153C17.9643 23.143 17.8691 23.118 17.8691 23.0904Z" fill="#4F9CF9"/>
<path d="M244.608 7.92992C244.664 7.94119 244.72 7.95247 244.772 7.965C244.699 8.01136 244.608 8.0314 244.513 8.01887C244.452 8.01135 244.4 7.99632 244.344 7.98504C244.417 7.93868 244.504 7.92115 244.608 7.92992Z" fill="#4F9CF9"/>
<path d="M243.111 7.87323C243.197 7.85444 243.301 7.86447 243.422 7.90081C243.383 7.9171 243.349 7.93589 243.301 7.94842C243.219 7.96847 243.111 7.95843 242.994 7.92084C243.029 7.90581 243.068 7.88952 243.111 7.87323Z" fill="#4F9CF9"/>
<path d="M241.963 7.92853C242.019 7.9398 242.076 7.95108 242.127 7.96361C242.054 8.00997 241.967 8.03001 241.868 8.01748C241.807 8.00996 241.755 7.99492 241.699 7.98365C241.773 7.93729 241.859 7.9185 241.963 7.92853Z" fill="#4F9CF9"/>
<path d="M241.121 7.86223C241.185 7.88729 241.151 7.91736 241.025 7.95119C240.969 7.93991 240.904 7.93115 240.861 7.91612C240.792 7.89231 240.826 7.86098 240.956 7.82715C241.008 7.83968 241.064 7.85096 241.121 7.86223Z" fill="#4F9CF9"/>
</svg>
