<svg width="534" height="441" viewBox="0 0 534 441" fill="none" xmlns="http://www.w3.org/2000/svg">
<g style="mix-blend-mode:multiply" opacity="0.2">
<path d="M276.484 440.355C271.633 440.355 265.837 438.998 258.121 435.926C237.641 427.595 216.641 402.574 194.468 376.114C182.258 361.583 169.658 346.553 156.992 334.237C138.499 311.984 107.145 296.65 76.7995 281.787C54.6268 270.937 33.6913 260.668 17.477 247.992L17.4444 247.964C5.26731 238.111 -0.430519 228.589 0.0253072 218.874C0.904401 199.915 25.226 183.031 53.4221 163.491L56.1245 161.609C77.0274 147.05 103.27 127.564 141.266 98.4748L144.49 96.0945C178.481 70.9628 220.808 39.6866 275.638 20.7271C385.459 -23.198 481.573 10.8183 511.918 47.6855C543.566 90.7803 540.831 136.532 501.5 222.639C460.312 312.399 369.082 381.788 331.769 407.445C316.499 415.915 306.927 423.416 299.959 428.896C291.103 435.815 285.34 440.355 276.484 440.355ZM20.3421 245.335C36.1984 257.734 56.9385 267.892 78.8833 278.659C109.586 293.688 141.364 309.243 160.248 331.995C172.946 344.312 185.612 359.424 197.854 374.01C219.734 400.083 240.409 424.716 259.879 432.66C279.121 440.271 283.647 436.729 297.094 426.211C304.192 420.648 313.927 413.009 329.295 404.484C366.152 379.103 456.731 310.24 497.56 221.282C536.338 136.421 539.17 91.4999 508.402 49.623C478.936 13.8629 385.068 -19.1293 277.331 23.9654C223.055 42.7588 181.021 73.8136 147.257 98.7516L144.066 101.132C106.038 130.249 79.7624 149.762 58.7943 164.349L56.092 166.231C28.6773 185.218 5.0394 201.631 4.22543 218.958C3.83472 227.621 9.10927 236.229 20.3421 245.335Z" fill="#CCCCCC"/>
<path d="M270.165 415.278C263.458 415.278 256.36 413.451 246.592 410.213L246.397 410.157C227.643 402.158 212.796 382.867 197.102 362.468C186.39 348.518 175.288 334.126 161.938 321.587C143.119 301.244 119.449 285.412 96.5925 270.106C81.2247 259.838 66.7033 250.123 54.0379 239.383L53.81 239.162C28.0232 209.297 46.5167 196.123 80.0525 172.181C83.6991 169.579 87.5411 166.839 91.5459 163.905C99.4251 158.951 107.825 153.415 116.747 147.548C156.371 121.447 210.679 85.7147 287.291 56.7081C380.931 26.2346 453.277 48.2663 483.492 83.6112C513.771 120.451 502.018 164.791 467.993 238.858C430.713 313.754 362.665 362.246 326.101 388.292L322.031 391.198C294.844 408.358 283.188 415.278 270.165 415.278ZM248.22 406.891C274.886 415.693 279.412 413.589 319.427 388.402L323.399 385.579C359.67 359.728 427.197 311.596 464.086 237.557C497.557 164.736 509.246 121.226 480.073 85.7424C450.835 51.5323 380.377 30.3032 288.919 60.0572C212.861 88.8424 158.813 124.436 119.319 150.398C110.398 156.266 101.997 161.802 94.1831 166.728C90.2761 169.579 86.4341 172.319 82.7875 174.949C49.2191 198.918 33.8513 209.879 57.131 236.948C69.6011 247.493 83.9922 257.097 99.1973 267.283C122.282 282.7 146.115 298.67 165.162 319.262C178.641 331.911 189.842 346.442 200.651 360.503C215.986 380.431 230.508 399.28 248.22 406.891Z" fill="#CCCCCC"/>
<path d="M264.704 394.354C256.141 394.354 248.197 391.752 238.299 387.324C221.759 378.854 208.475 361.334 194.409 342.817C186.074 331.802 177.414 320.426 167.516 309.991C153.678 293.606 137.268 279.601 121.445 266.038C108.454 254.912 96.1787 244.422 86.5087 233.6L86.3785 233.434C66.778 205.368 87.0297 192.276 123.821 168.501L124.245 168.224L131.049 164.266C169.795 141.819 222.866 111.069 295.57 88.788C381.396 65.5107 436.03 89.2308 456.77 116.577C478.943 145.749 473.505 184.914 438.016 251.757C412.164 298.339 369.968 340.216 312.631 376.225C290.459 389.012 276.947 394.354 264.704 394.354ZM89.9274 231.468C99.4347 242.069 111.579 252.476 124.44 263.464C140.394 277.11 156.901 291.253 170.869 307.777C180.865 318.267 189.558 329.753 197.958 340.852C211.731 359.037 224.754 376.197 240.383 384.196C262.914 394.326 274.146 394.133 310.189 373.291C366.907 337.642 408.648 296.235 434.174 250.234C468.98 184.665 474.515 146.497 453.221 118.487C431.7 90.1165 375.047 70.9633 296.905 92.137C224.787 114.252 171.976 144.836 133.426 167.2L126.361 171.324C89.3088 195.266 72.3455 206.226 89.9274 231.468Z" fill="#CCCCCC"/>
<path d="M261.646 375.312C252.073 375.312 243.087 372.517 233.059 367.037L232.994 367.009C217.886 358.207 205.709 341.656 192.816 324.163C186.858 316.054 180.671 307.695 173.964 299.723C165.011 288.043 155.08 277.249 145.475 266.842C133.689 254.055 122.521 241.959 115.228 230.224C102.497 205.452 121.121 192.499 153.289 174.037C186.434 156.6 237.65 131.745 300.424 117.076C360.365 106.586 405.264 115 426.981 140.741C450.423 168.474 444.595 212.454 410.994 261.417C375.798 319.043 320.154 352.838 303.94 361.805C286.684 370.884 273.693 375.312 261.646 375.312ZM235.338 364.02C254.092 374.233 268.809 376.06 301.661 358.761C317.615 349.932 372.542 316.579 407.282 259.673C440.037 211.929 445.962 169.36 423.529 142.844C402.822 118.321 359.453 110.433 301.368 120.591C239.245 135.122 188.388 159.783 155.536 177.082C122.423 196.069 108 207.362 118.972 228.702C126.037 240.022 137.075 251.979 148.764 264.655C158.434 275.145 168.429 285.967 177.416 297.731C184.155 305.702 190.341 314.144 196.332 322.281C209.03 339.414 220.98 355.633 235.338 364.02Z" fill="#CCCCCC"/>
<path d="M259.625 357.929C249.466 357.929 240.122 354.967 230.419 349.044L230.159 348.85C193.009 316.882 149.087 243.673 140.654 229.336L140.524 229.004C133.947 208.467 148.794 196.399 178.455 181.315C206.391 167.974 250.508 150.371 302.212 142.15C349.813 135.784 385.465 144.364 402.657 166.313C421.736 190.697 415.908 227.758 386.703 268.002C360.981 306.807 323.082 334.734 296.188 347.909C282.123 354.607 270.402 357.929 259.625 357.929ZM233.024 346.221C251.615 357.486 268.188 357.098 294.072 344.781C320.478 331.856 357.693 304.399 383.056 266.176C410.992 227.675 416.982 191.113 399.14 168.306C382.926 147.575 348.739 139.521 302.928 145.693C251.843 153.83 208.214 171.267 180.571 184.442C152.18 198.863 138.798 209.574 144.528 227.925C168.752 269.11 204.665 321.753 233.024 346.221Z" fill="#CCCCCC"/>
<path d="M258.138 341.905C247.263 341.905 237.854 338.833 230.723 332.882C202.202 309.383 172.508 259.812 163.75 230.003C162.317 223.111 164.368 216.385 169.773 209.964C186.443 190.174 235.835 173.096 301.93 164.295C339.21 161.222 367.016 169.72 380.3 188.236C395.342 209.216 389.937 239.745 365.485 271.963C333.675 312.732 295.614 338.75 263.673 341.628C261.785 341.822 259.929 341.905 258.138 341.905ZM316.451 167.256C311.958 167.256 307.302 167.45 302.484 167.865C237.626 176.501 189.243 193.025 173.257 212.067C168.503 217.713 166.712 223.498 167.917 229.283C176.513 258.483 205.686 307.252 233.719 330.336C241.11 336.48 251.333 339.165 263.25 338.085C293.953 335.318 330.875 309.881 361.969 270.025C385.151 239.468 390.686 209.604 376.718 190.118C366.006 175.2 344.875 167.256 316.451 167.256Z" fill="#CCCCCC"/>
<path d="M259.008 326.68C248.915 326.68 240.026 323.912 233.091 318.543C208.346 299.472 185.457 259.145 184.155 232.27V232.215C183.992 207.443 232.44 187.099 299.316 183.889C327.805 183.307 348.936 191.389 358.867 206.723C370.262 224.299 365.574 248.683 346.006 273.649C321.814 303.984 291.534 323.691 264.966 326.375C262.915 326.569 260.929 326.68 259.008 326.68ZM188.387 232.159C189.69 258.232 211.895 297.369 235.956 315.885C243.282 321.559 253.115 323.94 264.445 322.805C289.809 320.231 318.982 301.105 342.489 271.628C361.146 247.825 365.769 224.769 355.155 208.411C346.006 194.323 326.275 186.85 299.479 187.431C236.054 190.504 188.257 209.74 188.387 232.159Z" fill="#CCCCCC"/>
<path d="M259.735 312.261C250.912 312.261 243.032 309.964 236.683 305.452C214.38 289.703 198.524 257.818 202.008 235.786C205.785 214.64 246.386 199.473 294.313 201.216C315.346 202.241 330.844 209.603 338.007 221.92C346.212 236.036 342.468 254.774 327.686 273.29C310.234 294.962 287.215 309.382 266.117 311.873C263.935 312.15 261.819 312.261 259.735 312.261ZM286.727 204.676C244.204 204.676 209.464 218.045 206.208 236.312C202.952 256.877 218.45 287.904 239.386 302.712C246.288 307.583 255.307 309.521 265.531 308.331C285.489 305.978 307.402 292.111 324.202 271.27C338.105 253.86 341.751 236.451 334.23 223.497C327.783 212.398 313.523 205.756 294.117 204.787C291.643 204.732 289.168 204.676 286.727 204.676Z" fill="#CCCCCC"/>
<path d="M261.727 298.477C254.629 298.477 248.183 296.733 242.778 293.329C224.056 281.51 213.54 257.735 219.335 240.325C225.228 223.109 255.834 212.758 288.946 216.743C303.631 218.598 314.408 224.798 319.291 234.208C324.827 244.864 322.092 258.371 311.803 271.269C299.984 285.994 284.128 295.737 268.304 297.979C266.09 298.311 263.876 298.477 261.727 298.477ZM223.405 241.321C218.131 257.126 228.159 279.628 245.285 290.45C251.373 294.297 259.09 295.681 267.62 294.463C282.109 292.388 297.347 282.977 308.352 269.276C317.794 257.43 320.366 245.196 315.449 235.675C311.184 227.427 301.547 221.975 288.36 220.314C257.787 216.605 228.647 226.043 223.405 241.321Z" fill="#CCCCCC"/>
<path d="M263.362 285.136C258.446 285.136 253.692 284.057 249.525 281.732C235.589 274.065 229.077 257.79 234.971 245.474C240.896 233.212 262.027 226.597 282.116 230.749C291.395 232.659 298.168 237.336 301.196 243.868C304.517 251.065 302.824 259.811 296.572 267.838C287.944 278.853 275.148 285.136 263.362 285.136ZM251.804 278.743C263.818 285.358 282.311 279.601 293.056 265.872C298.526 258.842 300.089 251.286 297.256 245.197C294.749 239.772 289.019 235.869 281.107 234.236C262.971 230.5 244.022 236.146 238.878 246.83C233.701 257.652 239.496 271.962 251.804 278.743Z" fill="#CCCCCC"/>
<path d="M264.588 272.044C261.918 272.044 259.313 271.518 256.936 270.411C248.796 266.619 245.508 257.901 249.643 250.954C253.713 244.089 264.881 240.796 274.485 243.619C279.109 244.975 282.495 247.688 283.96 251.286C285.523 255.078 284.774 259.506 281.876 263.409C277.741 268.917 271.067 272.044 264.588 272.044ZM267.192 246.193C261.299 246.193 255.731 248.601 253.355 252.587C250.262 257.818 252.736 264.405 258.922 267.256C265.076 270.135 273.769 267.533 278.262 261.471C280.509 258.454 281.095 255.271 279.923 252.448C278.881 249.902 276.439 247.964 273.053 246.968C271.132 246.442 269.146 246.193 267.192 246.193Z" fill="#CCCCCC"/>
</g>
</svg>
