<svg width="60" height="61" viewBox="0 0 60 61" fill="none" xmlns="http://www.w3.org/2000/svg">
<g clip-path="url(#clip0_184_10168)">
<path d="M46.4409 34.1085C44.7904 25.8022 52.6745 20.9307 52.6745 20.9307C52.6745 20.9307 49.6028 16.4866 44.4403 15.3433C39.2804 14.1975 36.6979 15.629 34.1204 16.7027C31.5405 17.7791 30.2531 17.7791 30.2531 17.7791C26.53 17.7791 23.8083 13.837 16.7148 15.6317C11.8278 16.865 6.68328 22.5064 5.75378 29.2396C4.82427 35.9753 6.8301 44.57 10.6974 51.2311C14.5648 57.8973 18.5043 60.4025 21.3004 60.4746C24.0967 60.5441 26.8878 58.4714 30.2531 57.9667C33.621 57.4672 35.6937 59.1873 38.9971 60.1168C42.2877 61.0437 43.4412 60.1837 47.2313 56.96C51.0317 53.7363 54.4717 44.4902 54.4717 44.4902C54.4717 44.4902 48.0914 42.42 46.4409 34.1085Z" fill="white"/>
<path d="M39.1337 9.96983C42.7899 6.24419 41.5514 0.476562 41.5514 0.476562C41.5514 0.476562 36.4173 1.37777 32.9773 4.95671C29.5399 8.53828 30.1089 14.1951 30.1089 14.1951C30.1089 14.1951 35.4774 13.6931 39.1337 9.96983Z" fill="white"/>
</g>
<defs>
<clipPath id="clip0_184_10168">
<rect width="60" height="60" fill="white" transform="translate(0 0.476562)"/>
</clipPath>
</defs>
</svg>
