<svg width="15" height="16" viewBox="0 0 15 16" fill="none" xmlns="http://www.w3.org/2000/svg">
<path d="M14.9962 15.9765V15.9759H14.9999V10.4573C14.9999 7.75762 14.4246 5.67798 11.3002 5.67798C9.79826 5.67798 8.79033 6.51059 8.37884 7.29993H8.3354V5.93002H5.37305V15.9759H8.45767V11.0015C8.45767 9.6918 8.70344 8.42533 10.3091 8.42533C11.8911 8.42533 11.9147 9.92002 11.9147 11.0855V15.9765H14.9962Z" fill="#F7F7EE"/>
<path d="M0.223877 5.9021H3.35821V15.7528H0.223877V5.9021Z" fill="#F7F7EE"/>
<path d="M1.79104 0.976562C0.802303 0.976562 0 1.77513 0 2.75926C0 3.74339 0.802303 4.55865 1.79104 4.55865C2.77979 4.55865 3.58209 3.74339 3.58209 2.75926C3.58147 1.77513 2.77916 0.976563 1.79104 0.976563V0.976562Z" fill="#F7F7EE"/>
</svg>
